<svg width="271" height="151" viewBox="0 0 271 151" fill="none" xmlns="http://www.w3.org/2000/svg">
<mask id="path-1-inside-1_58_2" fill="white">
<path fill-rule="evenodd" clip-rule="evenodd" d="M214.935 16.4224C208.307 16.0985 201.214 15.8422 193.794 15.6495C136.625 14.1496 60.214 16.2793 30.1299 18.86L17.9939 20.2884C17.7013 21.0732 16.7548 28.0166 16.5133 33.8972C16.4118 36.3707 16.4334 38.6573 16.7056 40.199C16.7658 40.5407 16.8372 40.8407 16.9266 41.0871C16.9655 41.1963 17.0364 41.3254 17.0783 41.397C33.7362 38.6772 44.9277 39.8931 52.2949 42.7082C64.8178 47.4961 66.5986 56.9964 65.4173 60.6618C64.8763 62.3406 63.7792 63.0637 62.6404 62.7538C21.7987 58.3513 7.76446 76.7023 8.98143 96.4679C10.4802 120.813 34.8794 146.818 59.832 132.832C73.469 123.391 75.7117 109.884 72.0936 97.8466C64.0035 109.588 50.0449 117.346 38.6394 118.149C32.021 118.615 26.2755 116.74 22.9184 112.145C19.1044 106.926 18.2829 98.0433 23.1293 84.6948C32.2316 59.6228 54.0994 66.2802 66.5725 82.8253C68.9949 86.0397 71.0582 89.6178 72.5983 93.4004C75.9134 87.4324 77.5918 80.5605 76.5847 73.1342C76.2388 70.5833 77.4104 68.3881 79.9266 66.6239C84.3138 63.5505 93.0942 61.7148 103.609 60.8029C125.194 58.9334 154.162 60.7969 166.6 62.6545C169.449 63.0796 171.458 63.5167 172.363 63.9001C173.114 64.218 173.398 64.7246 173.466 65.0107C173.479 65.0683 173.489 65.1359 173.493 65.2074C174.529 65.8968 175.432 67.0808 176.172 68.6721C187.581 64.224 198.094 62.2313 207.51 62.0744C212.831 52.2184 217.73 44.4704 218.755 42.0665C220.755 37.3739 222.721 30.7801 224.605 22.9983L221.851 22.8632C220.612 22.8056 219.371 22.748 218.132 22.6904L215.29 22.5672C210.619 39.4063 205.518 50.9947 200.718 52.2661C191.667 54.6641 171.47 54.9323 149.757 54.2806C114.545 53.2237 75.3428 49.7808 73.4711 49.3298C71.5643 48.8729 70.1478 45.5611 69.512 41.0811C68.6347 34.8965 68.8165 26.5644 69.1273 22.7897C69.2249 21.6056 69.4512 20.7772 69.6175 20.3679L69.4375 20.7057C69.4986 20.3659 69.8414 19.76 70.7836 19.462C71.9204 19.1044 74.427 18.8024 78.056 18.5759C91.0532 17.7673 118.836 17.7951 149.281 18.3772C170.922 18.7905 193.906 19.4878 213.895 20.3639L213.964 20.1116C214.289 18.9077 214.613 17.678 214.935 16.4224ZM208.463 64.2081C200.702 78.6016 192.42 97.0341 194.198 109.725C195.774 120.97 205.533 127.11 230.929 121.905C247.437 118.522 255.177 109.367 255.612 99.1777C256.063 88.537 248.609 77.0381 235.37 70.2357C228.055 66.4788 218.981 64.1644 208.463 64.2081ZM71.3215 95.5361C69.8301 91.4733 67.6866 87.6271 65.1181 84.2199C53.5734 68.9066 33.3206 62.3048 24.896 85.5093C20.177 98.5082 20.9484 106.898 25.0184 111.561C29.833 117.076 39.003 117.223 48.2638 113.79C56.9802 110.559 65.8227 104.093 71.3215 95.5361ZM103.933 108.205C99.0182 108.251 95.2679 108.686 93.474 109.681C92.8811 110.011 92.751 110.472 93.2134 111.094C93.871 111.978 95.1336 113.001 97.0687 114.225C100.407 116.337 102.231 115.157 103.171 112.087C103.513 110.973 103.76 109.661 103.933 108.205ZM124.953 91.0124C123.928 88.8807 122.637 86.604 121.216 84.3769C117.831 79.0764 113.688 74.062 110.44 72.0912C109.295 71.3959 108.315 71.0343 107.579 71.4873C106.331 72.2581 106.043 74.9382 105.875 78.4784C105.51 86.1788 106.545 97.7294 106.001 106.143C127.954 106.399 167.847 112.802 169.466 113.051C171.142 113.307 172.404 111.438 173.535 108.65C175.324 104.238 176.459 97.4235 176.811 90.5316C177.156 83.7253 176.739 76.8414 175.38 72.1131C175.305 71.8548 175.23 71.6045 175.149 71.3601C172.433 72.4667 169.663 73.7164 166.847 75.117C166.451 75.3136 159.144 83.8782 153.542 91.4793C152.498 92.8978 151.514 94.2845 150.649 95.5818C151.28 96.3089 151.803 96.9983 152.186 97.64C152.909 98.8559 153.17 99.9644 152.994 100.872C152.72 102.303 151.184 103.624 147.466 103.912C146.129 104.015 145.557 103.316 145.436 102.281C145.305 101.164 146.216 98.8956 147.916 96.152L148.152 95.7805C144.081 91.4773 137.074 86.0755 133.384 81.4545C131.595 84.4345 129.124 87.9271 127.147 91.1475C128.57 94.356 129.371 97.197 129.224 99.0327C129.031 101.429 127.655 102.811 124.341 101.78C121.592 100.924 121.423 98.2161 123.054 94.5706C123.546 93.468 124.202 92.266 124.953 91.0124ZM149.518 97.3261C148.945 98.244 148.458 99.0923 148.082 99.8452C147.808 100.398 147.594 100.89 147.461 101.317C147.414 101.46 147.381 101.631 147.358 101.762C149.748 101.578 150.952 101.337 151.13 100.415C151.217 99.9604 150.964 99.4499 150.601 98.84C150.315 98.3612 149.95 97.8565 149.518 97.3261ZM125.935 93.2057C125.237 94.4573 124.663 95.6354 124.297 96.6864C123.781 98.1645 123.64 99.3287 124.849 99.7042C125.839 100.012 126.528 100.086 126.96 99.7638C127.422 99.4221 127.398 98.685 127.281 97.7513C127.12 96.4818 126.644 94.9242 125.935 93.2057ZM133.214 77.6778C133.397 77.2864 133.554 76.9129 133.681 76.5613C133.932 75.86 134.14 75.3156 133.924 74.9481C133.768 74.6839 133.44 74.6382 132.944 74.6501C132.374 75.5063 132.591 76.5275 133.214 77.6778ZM213.314 22.4798C199.49 21.8818 184.24 21.3692 169.007 20.9739C132.895 20.0381 96.8748 19.7659 80.126 20.6143C76.6167 20.7931 73.9639 21.0176 72.3485 21.2977C71.8731 21.3811 71.419 21.5122 71.1928 21.5857C71.1501 21.8718 71.0731 22.442 71.0281 22.9884C70.7264 26.6518 70.5456 34.7396 71.397 40.7414C71.8753 44.1128 72.4342 46.8802 73.8689 47.2259C75.7323 47.6729 114.756 51.0761 149.81 52.129C171.312 52.7747 191.318 52.5462 200.281 50.1721C201.683 49.8006 203.04 48.3345 204.443 46.0796C207.44 41.2579 210.411 32.9158 213.314 22.4798ZM227.516 18.9574C227.385 19.5355 227.252 20.1156 227.118 20.6957L227.051 20.9898C242.365 21.7805 254.913 22.6804 262.178 23.6241C261.653 22.5414 259.646 21.7646 256.536 20.9282C250.491 19.3031 240.487 18.0792 227.912 17.1872L227.516 18.9574ZM216.73 17.1713C216.574 17.7713 216.418 18.3713 216.261 18.9713L215.867 20.4514C219.033 20.5924 222.117 20.7394 225.107 20.8904L225.318 19.9865C225.449 19.4123 225.578 18.8402 225.709 18.266L225.98 17.0541C223.075 16.8594 220.042 16.6806 216.896 16.5217L216.73 17.1713Z"/>
</mask>
<path fill-rule="evenodd" clip-rule="evenodd" d="M214.935 16.4224C208.307 16.0985 201.214 15.8422 193.794 15.6495C136.625 14.1496 60.214 16.2793 30.1299 18.86L17.9939 20.2884C17.7013 21.0732 16.7548 28.0166 16.5133 33.8972C16.4118 36.3707 16.4334 38.6573 16.7056 40.199C16.7658 40.5407 16.8372 40.8407 16.9266 41.0871C16.9655 41.1963 17.0364 41.3254 17.0783 41.397C33.7362 38.6772 44.9277 39.8931 52.2949 42.7082C64.8178 47.4961 66.5986 56.9964 65.4173 60.6618C64.8763 62.3406 63.7792 63.0637 62.6404 62.7538C21.7987 58.3513 7.76446 76.7023 8.98143 96.4679C10.4802 120.813 34.8794 146.818 59.832 132.832C73.469 123.391 75.7117 109.884 72.0936 97.8466C64.0035 109.588 50.0449 117.346 38.6394 118.149C32.021 118.615 26.2755 116.74 22.9184 112.145C19.1044 106.926 18.2829 98.0433 23.1293 84.6948C32.2316 59.6228 54.0994 66.2802 66.5725 82.8253C68.9949 86.0397 71.0582 89.6178 72.5983 93.4004C75.9134 87.4324 77.5918 80.5605 76.5847 73.1342C76.2388 70.5833 77.4104 68.3881 79.9266 66.6239C84.3138 63.5505 93.0942 61.7148 103.609 60.8029C125.194 58.9334 154.162 60.7969 166.6 62.6545C169.449 63.0796 171.458 63.5167 172.363 63.9001C173.114 64.218 173.398 64.7246 173.466 65.0107C173.479 65.0683 173.489 65.1359 173.493 65.2074C174.529 65.8968 175.432 67.0808 176.172 68.6721C187.581 64.224 198.094 62.2313 207.51 62.0744C212.831 52.2184 217.73 44.4704 218.755 42.0665C220.755 37.3739 222.721 30.7801 224.605 22.9983L221.851 22.8632C220.612 22.8056 219.371 22.748 218.132 22.6904L215.29 22.5672C210.619 39.4063 205.518 50.9947 200.718 52.2661C191.667 54.6641 171.47 54.9323 149.757 54.2806C114.545 53.2237 75.3428 49.7808 73.4711 49.3298C71.5643 48.8729 70.1478 45.5611 69.512 41.0811C68.6347 34.8965 68.8165 26.5644 69.1273 22.7897C69.2249 21.6056 69.4512 20.7772 69.6175 20.3679L69.4375 20.7057C69.4986 20.3659 69.8414 19.76 70.7836 19.462C71.9204 19.1044 74.427 18.8024 78.056 18.5759C91.0532 17.7673 118.836 17.7951 149.281 18.3772C170.922 18.7905 193.906 19.4878 213.895 20.3639L213.964 20.1116C214.289 18.9077 214.613 17.678 214.935 16.4224ZM208.463 64.2081C200.702 78.6016 192.42 97.0341 194.198 109.725C195.774 120.97 205.533 127.11 230.929 121.905C247.437 118.522 255.177 109.367 255.612 99.1777C256.063 88.537 248.609 77.0381 235.37 70.2357C228.055 66.4788 218.981 64.1644 208.463 64.2081ZM71.3215 95.5361C69.8301 91.4733 67.6866 87.6271 65.1181 84.2199C53.5734 68.9066 33.3206 62.3048 24.896 85.5093C20.177 98.5082 20.9484 106.898 25.0184 111.561C29.833 117.076 39.003 117.223 48.2638 113.79C56.9802 110.559 65.8227 104.093 71.3215 95.5361ZM103.933 108.205C99.0182 108.251 95.2679 108.686 93.474 109.681C92.8811 110.011 92.751 110.472 93.2134 111.094C93.871 111.978 95.1336 113.001 97.0687 114.225C100.407 116.337 102.231 115.157 103.171 112.087C103.513 110.973 103.76 109.661 103.933 108.205ZM124.953 91.0124C123.928 88.8807 122.637 86.604 121.216 84.3769C117.831 79.0764 113.688 74.062 110.44 72.0912C109.295 71.3959 108.315 71.0343 107.579 71.4873C106.331 72.2581 106.043 74.9382 105.875 78.4784C105.51 86.1788 106.545 97.7294 106.001 106.143C127.954 106.399 167.847 112.802 169.466 113.051C171.142 113.307 172.404 111.438 173.535 108.65C175.324 104.238 176.459 97.4235 176.811 90.5316C177.156 83.7253 176.739 76.8414 175.38 72.1131C175.305 71.8548 175.23 71.6045 175.149 71.3601C172.433 72.4667 169.663 73.7164 166.847 75.117C166.451 75.3136 159.144 83.8782 153.542 91.4793C152.498 92.8978 151.514 94.2845 150.649 95.5818C151.28 96.3089 151.803 96.9983 152.186 97.64C152.909 98.8559 153.17 99.9644 152.994 100.872C152.72 102.303 151.184 103.624 147.466 103.912C146.129 104.015 145.557 103.316 145.436 102.281C145.305 101.164 146.216 98.8956 147.916 96.152L148.152 95.7805C144.081 91.4773 137.074 86.0755 133.384 81.4545C131.595 84.4345 129.124 87.9271 127.147 91.1475C128.57 94.356 129.371 97.197 129.224 99.0327C129.031 101.429 127.655 102.811 124.341 101.78C121.592 100.924 121.423 98.2161 123.054 94.5706C123.546 93.468 124.202 92.266 124.953 91.0124ZM149.518 97.3261C148.945 98.244 148.458 99.0923 148.082 99.8452C147.808 100.398 147.594 100.89 147.461 101.317C147.414 101.46 147.381 101.631 147.358 101.762C149.748 101.578 150.952 101.337 151.13 100.415C151.217 99.9604 150.964 99.4499 150.601 98.84C150.315 98.3612 149.95 97.8565 149.518 97.3261ZM125.935 93.2057C125.237 94.4573 124.663 95.6354 124.297 96.6864C123.781 98.1645 123.64 99.3287 124.849 99.7042C125.839 100.012 126.528 100.086 126.96 99.7638C127.422 99.4221 127.398 98.685 127.281 97.7513C127.12 96.4818 126.644 94.9242 125.935 93.2057ZM133.214 77.6778C133.397 77.2864 133.554 76.9129 133.681 76.5613C133.932 75.86 134.14 75.3156 133.924 74.9481C133.768 74.6839 133.44 74.6382 132.944 74.6501C132.374 75.5063 132.591 76.5275 133.214 77.6778ZM213.314 22.4798C199.49 21.8818 184.24 21.3692 169.007 20.9739C132.895 20.0381 96.8748 19.7659 80.126 20.6143C76.6167 20.7931 73.9639 21.0176 72.3485 21.2977C71.8731 21.3811 71.419 21.5122 71.1928 21.5857C71.1501 21.8718 71.0731 22.442 71.0281 22.9884C70.7264 26.6518 70.5456 34.7396 71.397 40.7414C71.8753 44.1128 72.4342 46.8802 73.8689 47.2259C75.7323 47.6729 114.756 51.0761 149.81 52.129C171.312 52.7747 191.318 52.5462 200.281 50.1721C201.683 49.8006 203.04 48.3345 204.443 46.0796C207.44 41.2579 210.411 32.9158 213.314 22.4798ZM227.516 18.9574C227.385 19.5355 227.252 20.1156 227.118 20.6957L227.051 20.9898C242.365 21.7805 254.913 22.6804 262.178 23.6241C261.653 22.5414 259.646 21.7646 256.536 20.9282C250.491 19.3031 240.487 18.0792 227.912 17.1872L227.516 18.9574ZM216.73 17.1713C216.574 17.7713 216.418 18.3713 216.261 18.9713L215.867 20.4514C219.033 20.5924 222.117 20.7394 225.107 20.8904L225.318 19.9865C225.449 19.4123 225.578 18.8402 225.709 18.266L225.98 17.0541C223.075 16.8594 220.042 16.6806 216.896 16.5217L216.73 17.1713Z" fill="#D9D9D9"/>
<path d="M193.839 13.496L193.852 12.9962L193.852 12.9961L193.839 13.496ZM29.9851 16.7144L30.0277 17.2126L30.0278 17.2126L29.9851 16.7144ZM19.4352 17.9561L19.3428 17.4647L19.3425 17.4647L19.4352 17.9561ZM16.2342 19.456L16.7027 19.6308L16.7029 19.6303L16.2342 19.456ZM14.6123 38.6196L15.1113 38.5889L15.1113 38.5889L14.6123 38.6196ZM15.6567 42.8492L15.2613 43.1553L15.2617 43.1557L15.6567 42.8492ZM17.2514 43.5426L17.3315 44.0361L17.3323 44.036L17.2514 43.5426ZM51.6821 44.7465L51.8606 44.2795L51.8605 44.2795L51.6821 44.7465ZM63.8153 57.7712L63.3166 57.8076L63.3166 57.8076L63.8153 57.7712ZM63.4916 60.2585L63.042 60.0398L63.0416 60.0407L63.4916 60.2585ZM63.0691 60.6559L63.2244 60.1806L63.2222 60.1799L63.0691 60.6559ZM62.8986 60.6201L62.8447 61.1172L62.8473 61.1175L62.8986 60.6201ZM7.07712 96.6169L6.57807 96.6476L6.57807 96.6476L7.07712 96.6169ZM60.7206 134.737L60.9656 135.173L60.9659 135.173L60.7206 134.737ZM60.7934 134.692L60.5092 134.28L60.5008 134.286L60.4926 134.292L60.7934 134.692ZM73.4671 95.7189L73.0391 95.4603L72.9183 95.6602L72.9942 95.8812L73.4671 95.7189ZM78.4718 72.8084L78.9673 72.7413L78.9673 72.7412L78.4718 72.8084ZM80.9343 68.4516L80.6474 68.0422L80.6472 68.0422L80.9343 68.4516ZM103.756 62.9505L103.799 63.4487L103.799 63.4487L103.756 62.9505ZM166.349 64.7882L166.275 65.2827L166.276 65.2828L166.349 64.7882ZM171.039 65.6941H171.539V65.3197L171.18 65.2143L171.039 65.6941ZM171.039 65.6981H170.539L170.539 65.7078L171.039 65.6981ZM171.788 66.7292L171.667 67.2143L171.668 67.2144L171.788 66.7292ZM174.38 69.3873L174.57 69.8502L175.06 69.65L174.832 69.1721L174.38 69.3873ZM166.077 73.1482L165.854 72.7005L165.854 72.7006L166.077 73.1482ZM149.265 94.0799L148.907 94.4288L149.336 94.869L149.68 94.3595L149.265 94.0799ZM134.453 79.5691L134.012 79.3346L133.863 79.615L134.053 79.869L134.453 79.5691ZM134.889 78.6989L134.437 78.4851L134.437 78.4855L134.889 78.6989ZM135.513 73.7541L135.943 73.5001L135.943 73.4993L135.513 73.7541ZM132.461 72.5164L132.435 72.0171L132.431 72.0173L132.461 72.5164ZM131.844 72.8184L132.211 73.1571L132.214 73.1545L131.844 72.8184ZM132.141 79.7181L132.574 79.9669L132.724 79.7068L132.565 79.4527L132.141 79.7181ZM126.159 89.0575L125.712 89.2809L126.107 90.0725L126.581 89.3255L126.159 89.0575ZM125.013 86.8861L124.576 87.1289L124.576 87.1299L125.013 86.8861ZM112.083 70.6807L111.795 71.0895L111.795 71.0898L112.083 70.6807ZM106.665 69.5999L106.402 69.1743L106.402 69.1743L106.665 69.5999ZM103.968 78.3652L103.469 78.3414L103.469 78.3415L103.968 78.3652ZM104.13 106.135L104.132 106.635L104.596 106.633L104.629 106.171L104.13 106.135ZM101.403 106.191L101.385 105.691L101.384 105.691L101.403 106.191ZM92.9973 107.565L93.209 108.018L93.2093 108.018L92.9973 107.565ZM90.9659 109.826L90.4743 109.735L90.4742 109.736L90.9659 109.826ZM96.1347 116.102L96.4021 115.68L96.402 115.68L96.1347 116.102ZM104.976 112.79L105.454 112.937L105.454 112.937L104.976 112.79ZM105.827 108.205L105.831 107.705L105.377 107.701L105.33 108.153L105.827 108.205ZM169.21 115.182L169.285 114.688L169.285 114.688L169.21 115.182ZM174.031 112.073L174.459 112.332L174.459 112.332L174.031 112.073ZM178.716 90.6548L179.215 90.6803L179.215 90.6802L178.716 90.6548ZM177.197 71.4495L176.716 71.5873L176.716 71.5876L177.197 71.4495ZM176.946 70.6449L176.765 70.1789L176.318 70.3525L176.472 70.8064L176.946 70.6449ZM206.348 64.2478L206.79 64.4817L207.193 63.7193L206.331 63.7481L206.348 64.2478ZM192.312 110.061L191.817 110.13L191.817 110.13L192.312 110.061ZM231.27 124.023L231.17 123.533L231.17 123.533L231.27 124.023ZM255.627 107.45L256.084 107.652L256.084 107.652L255.627 107.45ZM248.321 77.2666L248.684 76.9222L248.684 76.9222L248.321 77.2666ZM209.627 62.0684L209.189 61.8276L208.788 62.558L209.621 62.5684L209.627 62.0684ZM220.475 43.0002L220.935 43.1964L220.935 43.1964L220.475 43.0002ZM226.551 23.0976L226.576 22.5983L226.162 22.5772L226.065 22.9808L226.551 23.0976ZM263.855 22.597L264.305 22.3793L264.305 22.3793L263.855 22.597ZM256.978 18.8342L256.848 19.3171L256.848 19.3171L256.978 18.8342ZM215.5 13.7972C208.725 13.4613 201.458 13.1969 193.852 12.9962L193.825 13.9958C201.425 14.1964 208.684 14.4605 215.451 14.796L215.5 13.7972ZM193.852 12.9961C136.603 11.4978 60.0844 13.6315 29.9424 16.2162L30.0278 17.2126C60.1235 14.6319 136.604 12.4982 193.825 13.9958L193.852 12.9961ZM29.9425 16.2162C25.1988 16.6217 21.5767 17.0445 19.3428 17.4647L19.5276 18.4475C21.7087 18.0372 25.2881 17.6177 30.0277 17.2126L29.9425 16.2162ZM19.3425 17.4647C18.2859 17.6641 17.4716 17.9592 16.8914 18.2664C16.6018 18.4197 16.3631 18.5799 16.1801 18.7387C16.0084 18.8877 15.8438 19.0713 15.7655 19.2818L16.7029 19.6303C16.6948 19.6521 16.7114 19.6017 16.8355 19.494C16.9483 19.3961 17.1201 19.2768 17.3592 19.1502C17.8364 18.8976 18.5524 18.6315 19.5279 18.4474L19.3425 17.4647ZM15.7658 19.2812C15.6984 19.4617 15.6229 19.8054 15.5433 20.231C15.4604 20.674 15.3653 21.2509 15.2641 21.929C15.0618 23.2858 14.8338 25.0586 14.6306 26.9965C14.2252 30.8635 13.9146 35.4238 14.1132 38.6503L15.1113 38.5889C14.9181 35.45 15.2206 30.959 15.6251 27.1008C15.8269 25.176 16.0531 23.4177 16.2532 22.0765C16.3533 21.4056 16.4464 20.8418 16.5263 20.4149C16.6094 19.9708 16.671 19.7156 16.7027 19.6308L15.7658 19.2812ZM14.1132 38.6503C14.1764 39.677 14.3055 40.5909 14.4925 41.3463C14.677 42.0911 14.928 42.7247 15.2613 43.1553L16.0521 42.5431C15.844 42.2744 15.6347 41.7985 15.4632 41.1059C15.2943 40.424 15.1719 39.5726 15.1113 38.5889L14.1132 38.6503ZM15.2617 43.1557C15.7929 43.8404 16.5003 44.171 17.3315 44.0361L17.1713 43.049C16.7537 43.1168 16.393 42.9825 16.0517 42.5427L15.2617 43.1557ZM17.3323 44.036C33.5761 41.3721 44.4192 42.5067 51.5036 45.2136L51.8605 44.2795C44.5525 41.4872 33.5145 40.3689 17.1705 43.0492L17.3323 44.036ZM51.5035 45.2136C60.1813 48.5311 63.0503 54.1551 63.3166 57.8076L64.314 57.7349C64.0151 53.6353 60.8411 47.7127 51.8606 44.2795L51.5035 45.2136ZM63.3166 57.8076C63.3892 58.802 63.2688 59.5736 63.042 60.0398L63.9412 60.4773C64.2769 59.7872 64.3927 58.8145 64.314 57.7348L63.3166 57.8076ZM63.0416 60.0407C63.012 60.1018 62.9891 60.1482 62.9673 60.1872C62.9569 60.2059 62.9484 60.2198 62.9416 60.23C62.9347 60.2403 62.9313 60.2444 62.9314 60.2442C62.9314 60.2442 62.9377 60.2368 62.9509 60.2266C62.9645 60.216 62.987 60.2011 63.0188 60.1887C63.0516 60.1759 63.0891 60.1678 63.1288 60.167C63.1681 60.1663 63.2008 60.1729 63.2244 60.1806L62.9138 61.1312C63.0661 61.1809 63.2291 61.1802 63.3828 61.1201C63.5243 61.0648 63.6234 60.9728 63.6879 60.8982C63.8064 60.7612 63.8915 60.58 63.9416 60.4764L63.0416 60.0407ZM63.2222 60.1799C63.1332 60.1513 63.042 60.1323 62.95 60.1228L62.8473 61.1175C62.8707 61.1199 62.8938 61.1247 62.916 61.1319L63.2222 60.1799ZM62.9525 60.123C41.4939 57.7968 27.0683 61.626 18.1586 68.7325C9.23709 75.8484 5.93365 86.1799 6.57807 96.6476L7.57618 96.5861C6.94727 86.3704 10.168 76.3851 18.7822 69.5143C27.4083 62.634 41.5302 58.8066 62.8447 61.1172L62.9525 60.123ZM6.57807 96.6476C7.37598 109.607 14.2843 122.958 24.3182 131.217C34.3712 139.491 47.6094 142.68 60.9656 135.173L60.4757 134.301C47.5521 141.565 34.7578 138.514 24.9536 130.444C15.1303 122.359 8.35675 109.264 7.57618 96.5861L6.57807 96.6476ZM60.9659 135.173C60.9897 135.16 61.0408 135.131 61.0942 135.091L60.4926 134.292C60.4965 134.289 60.4983 134.288 60.4958 134.29C60.4946 134.291 60.4925 134.292 60.489 134.294C60.4854 134.296 60.4813 134.298 60.4754 134.302L60.9659 135.173ZM61.0776 135.103C68.7701 129.789 73.1502 123.26 75.0193 116.363C76.8865 109.474 76.2386 102.253 73.94 95.5565L72.9942 95.8812C75.2414 102.428 75.8591 109.442 74.0541 116.102C72.2511 122.755 68.0214 129.091 60.5092 134.28L61.0776 135.103ZM73.895 95.9775C77.9708 89.2333 80.1305 81.3198 78.9673 72.7413L77.9763 72.8756C79.1046 81.1958 77.0148 88.8818 73.0391 95.4603L73.895 95.9775ZM78.9673 72.7412C78.7665 71.2616 79.5574 70.0278 81.2214 68.861L80.6472 68.0422C78.8547 69.2992 77.7015 70.8508 77.9763 72.8757L78.9673 72.7412ZM81.2213 68.8611C83.2537 67.4367 86.3528 66.298 90.244 65.4069C94.125 64.5183 98.7494 63.8856 103.799 63.4487L103.713 62.4524C98.6379 62.8915 93.9635 63.5294 90.0208 64.4322C86.0884 65.3326 82.8389 66.5063 80.6474 68.0422L81.2213 68.8611ZM103.799 63.4487C125.202 61.593 153.949 63.4419 166.275 65.2827L166.423 64.2937C154.032 62.4432 125.206 60.5889 103.713 62.4524L103.799 63.4487ZM166.276 65.2828C168.364 65.5924 169.938 65.8923 170.899 66.1739L171.18 65.2143C170.148 64.9118 168.515 64.6038 166.422 64.2936L166.276 65.2828ZM170.539 65.6941V65.6981H171.539V65.6941H170.539ZM170.539 65.7078C170.553 66.3911 170.982 67.0435 171.667 67.2143L171.909 66.244C171.734 66.2003 171.545 65.9984 171.539 65.6884L170.539 65.7078ZM171.668 67.2144C172.515 67.425 173.266 68.2129 173.929 69.6026L174.832 69.1721C174.132 67.705 173.204 66.5658 171.909 66.2439L171.668 67.2144ZM174.191 68.9245C171.46 70.0398 168.681 71.2945 165.854 72.7005L166.3 73.5959C169.105 72.2006 171.862 70.9561 174.57 69.8502L174.191 68.9245ZM165.854 72.7006C165.772 72.7416 165.701 72.8047 165.672 72.8302C165.627 72.8694 165.576 72.9183 165.52 72.9734C165.408 73.0845 165.262 73.2369 165.087 73.4246C164.736 73.801 164.259 74.3319 163.683 74.9861C162.532 76.2951 160.984 78.1054 159.271 80.1751C155.847 84.3118 151.752 89.4995 148.851 93.8002L149.68 94.3595C152.553 90.0996 156.623 84.9416 160.041 80.8127C161.749 78.7497 163.29 76.9471 164.434 75.6465C165.006 74.9959 165.477 74.4728 165.819 74.1063C165.99 73.9226 166.126 73.7814 166.224 73.6842C166.273 73.6352 166.309 73.6013 166.333 73.58C166.373 73.5449 166.352 73.5697 166.3 73.5957L165.854 72.7006ZM149.623 93.731C147.453 91.503 144.59 89.0059 141.872 86.5196C139.136 84.0182 136.545 81.5265 134.853 79.2692L134.053 79.869C135.808 82.2109 138.466 84.7604 141.197 87.2575C143.944 89.7697 146.764 92.2284 148.907 94.4288L149.623 93.731ZM134.895 79.8036C135.057 79.4985 135.205 79.2014 135.341 78.9124L134.437 78.4855C134.307 78.7607 134.166 79.0438 134.012 79.3346L134.895 79.8036ZM135.341 78.9128C135.868 77.7989 136.194 76.763 136.305 75.8558C136.415 74.9543 136.318 74.1347 135.943 73.5001L135.082 74.0081C135.304 74.3847 135.407 74.9567 135.312 75.7345C135.218 76.5066 134.933 77.4375 134.437 78.4851L135.341 78.9128ZM135.943 73.4993C135.371 72.5336 134.233 71.9228 132.435 72.0171L132.487 73.0157C134.025 72.9351 134.751 73.4488 135.083 74.0088L135.943 73.4993ZM132.431 72.0173C132.065 72.0393 131.724 72.2059 131.473 72.4822L132.214 73.1545C132.295 73.0653 132.394 73.0213 132.491 73.0155L132.431 72.0173ZM131.476 72.4796C130.554 73.4804 130.164 74.6674 130.242 75.9623C130.319 77.2396 130.849 78.5975 131.717 79.9835L132.565 79.4527C131.748 78.1487 131.303 76.9538 131.24 75.9021C131.177 74.8682 131.481 73.9503 132.211 73.1571L131.476 72.4796ZM131.707 79.4693C130.107 82.2587 127.781 85.57 125.737 88.7896L126.581 89.3255C128.583 86.1718 130.963 82.776 132.574 79.9669L131.707 79.4693ZM126.607 88.8342C126.246 88.1126 125.861 87.3786 125.449 86.6423L124.576 87.1299C124.979 87.8518 125.358 88.572 125.712 89.2809L126.607 88.8342ZM125.45 86.6433C123.643 83.3902 121.42 80.0362 119.131 77.1307C116.848 74.2318 114.477 71.7518 112.37 70.2716L111.795 71.0898C113.786 72.4882 116.086 74.8807 118.346 77.7495C120.601 80.6119 122.794 83.9212 124.576 87.1289L125.45 86.6433ZM112.37 70.2718C110.173 68.7249 108.009 68.1841 106.402 69.1743L106.927 70.0256C107.996 69.3668 109.68 69.6008 111.795 71.0895L112.37 70.2718ZM106.402 69.1743C105.441 69.7666 104.776 70.9764 104.319 72.51C103.856 74.065 103.578 76.054 103.469 78.3414L104.468 78.389C104.575 76.1447 104.846 74.2439 105.277 72.7955C105.715 71.3256 106.289 70.4186 106.927 70.0255L106.402 69.1743ZM103.469 78.3415C103.284 82.2387 103.475 87.1283 103.636 92.0534C103.798 96.9933 103.929 101.973 103.632 106.099L104.629 106.171C104.93 101.984 104.797 96.9517 104.636 92.0207C104.474 87.0749 104.285 82.2357 104.468 78.3888L103.469 78.3415ZM104.128 105.635C103.169 105.639 102.254 105.659 101.385 105.691L101.421 106.69C102.281 106.659 103.184 106.639 104.132 106.635L104.128 105.635ZM101.384 105.691C97.5859 105.838 94.5568 106.283 92.7853 107.113L93.2093 108.018C94.7815 107.282 97.6293 106.837 101.422 106.69L101.384 105.691ZM92.7856 107.112C91.4562 107.734 90.6718 108.666 90.4743 109.735L91.4576 109.917C91.5817 109.246 92.0897 108.541 93.209 108.018L92.7856 107.112ZM90.4742 109.736C90.307 110.642 90.6649 111.706 91.5193 112.828C92.3806 113.96 93.7904 115.211 95.8675 116.525L96.402 115.68C94.3855 114.405 93.0801 113.228 92.3149 112.223C91.5429 111.209 91.3631 110.429 91.4576 109.917L90.4742 109.736ZM95.8674 116.525C98.3557 118.099 100.415 118.492 102.074 117.734C103.707 116.988 104.757 115.21 105.454 112.937L104.498 112.644C103.823 114.845 102.887 116.263 101.658 116.824C100.456 117.373 98.7799 117.184 96.4021 115.68L95.8674 116.525ZM105.454 112.937C105.862 111.602 106.141 110.013 106.324 108.257L105.33 108.153C105.15 109.874 104.88 111.393 104.498 112.644L105.454 112.937ZM105.822 108.705C127.408 108.899 167.498 115.427 169.134 115.677L169.285 114.688C167.69 114.445 127.508 107.9 105.831 107.705L105.822 108.705ZM169.134 115.677C171.22 115.997 173.044 114.675 174.459 112.332L173.603 111.815C172.27 114.021 170.774 114.917 169.285 114.688L169.134 115.677ZM174.459 112.332C175.781 110.143 176.855 106.889 177.656 103.126C178.458 99.3539 178.993 95.0315 179.215 90.6803L178.216 90.6293C177.996 94.9361 177.468 99.2052 176.678 102.918C175.886 106.641 174.839 109.768 173.603 111.815L174.459 112.332ZM179.215 90.6802C179.577 83.5584 179.116 76.3181 177.677 71.3115L176.716 71.5876C178.111 76.4429 178.576 83.5583 178.216 90.6294L179.215 90.6802ZM177.677 71.3118C177.596 71.0291 177.511 70.7529 177.419 70.4835L176.472 70.8064C176.558 71.0575 176.639 71.3177 176.716 71.5873L177.677 71.3118ZM177.127 71.111C187.745 66.9872 197.549 65.0415 206.365 64.7475L206.331 63.7481C197.393 64.0461 187.478 66.0182 176.765 70.1789L177.127 71.111ZM205.906 64.0139C202.037 71.3214 198.069 79.6153 195.29 87.6866C192.516 95.7457 190.907 103.641 191.817 110.13L192.807 109.991C191.931 103.74 193.477 96.0258 196.236 88.0121C198.99 80.0107 202.932 71.7684 206.79 64.4817L205.906 64.0139ZM191.817 110.13C192.678 116.276 195.729 121.322 202.054 124.087C208.334 126.833 217.775 127.3 231.371 124.513L231.17 123.533C217.65 126.305 208.454 125.794 202.454 123.171C196.5 120.568 193.629 115.853 192.807 109.991L191.817 110.13ZM231.371 124.513C244.673 121.786 252.67 115.373 256.084 107.652L255.17 107.248C251.921 114.595 244.249 120.852 231.17 123.533L231.371 124.513ZM256.084 107.652C260.392 97.9068 257.429 86.1305 248.684 76.9222L247.959 77.6109C256.504 86.6086 259.273 97.9652 255.17 107.248L256.084 107.652ZM248.684 76.9222C240.433 68.2345 226.96 61.7845 209.633 61.5685L209.621 62.5684C226.705 62.7814 239.911 69.1376 247.959 77.6109L248.684 76.9222ZM210.065 62.3093C212.646 57.615 215.107 53.4328 217.05 50.1304C218.98 46.8486 220.424 44.393 220.935 43.1964L220.015 42.804C219.537 43.924 218.142 46.3009 216.188 49.6234C214.246 52.9252 211.778 57.1189 209.189 61.8276L210.065 62.3093ZM220.935 43.1964C223.028 38.2882 225.08 31.3621 227.037 23.2144L226.065 22.9808C224.111 31.112 222.075 37.9736 220.015 42.8041L220.935 43.1964ZM226.526 23.597C243.004 24.4355 256.253 25.3982 263.155 26.4114L263.301 25.422C256.344 24.4009 243.049 23.4365 226.576 22.5983L226.526 23.597ZM264.947 23.7491C264.737 23.2866 264.523 22.8299 264.305 22.3793L263.405 22.8146C263.62 23.258 263.83 23.7073 264.037 24.1627L264.947 23.7491ZM264.305 22.3793C263.912 21.5655 263.056 20.8224 261.87 20.1624C260.671 19.4952 259.074 18.8796 257.108 18.3513L256.848 19.3171C258.764 19.8318 260.278 20.4211 261.384 21.0363C262.502 21.6587 263.144 22.2755 263.405 22.8147L264.305 22.3793ZM257.108 18.3514C251.006 16.7106 240.969 15.4747 228.407 14.5707L228.335 15.5682C240.896 16.472 250.848 17.7036 256.848 19.3171L257.108 18.3514ZM217.408 14.8953C220.523 15.06 223.528 15.2387 226.407 15.4332L226.475 14.4355C223.59 14.2406 220.58 14.0617 217.461 13.8967L217.408 14.8953ZM214.935 16.4224L215.904 16.671L216.209 15.4834L214.984 15.4236L214.935 16.4224ZM193.794 15.6495L193.768 16.6492L193.768 16.6492L193.794 15.6495ZM30.1299 18.86L30.0444 17.8637L30.0286 17.865L30.013 17.8669L30.1299 18.86ZM17.9939 20.2884L17.8771 19.2953L17.2704 19.3667L17.057 19.9391L17.9939 20.2884ZM16.5133 33.8972L15.5142 33.8562L15.5142 33.8562L16.5133 33.8972ZM16.7056 40.199L17.6904 40.0254L17.6903 40.0252L16.7056 40.199ZM16.9266 41.0871L17.8684 40.751L17.8666 40.746L16.9266 41.0871ZM17.0783 41.397L16.2154 41.9023L16.5621 42.4945L17.2394 42.3839L17.0783 41.397ZM52.2949 42.7082L52.652 41.7741L52.6518 41.7741L52.2949 42.7082ZM65.4173 60.6618L66.3691 60.9686L66.3691 60.9686L65.4173 60.6618ZM62.6404 62.7538L62.903 61.7889L62.8264 61.7681L62.7476 61.7596L62.6404 62.7538ZM8.98143 96.4679L9.97954 96.4064L9.97954 96.4064L8.98143 96.4679ZM59.832 132.832L60.3209 133.704L60.3623 133.681L60.4012 133.654L59.832 132.832ZM72.0936 97.8466L73.0512 97.5588L72.4517 95.5643L71.2701 97.2792L72.0936 97.8466ZM38.6394 118.149L38.5692 117.151L38.569 117.151L38.6394 118.149ZM22.9184 112.145L23.7258 111.555L23.7258 111.555L22.9184 112.145ZM23.1293 84.6948L24.0693 85.036L24.0693 85.036L23.1293 84.6948ZM66.5725 82.8253L67.3711 82.2235L67.371 82.2233L66.5725 82.8253ZM72.5983 93.4004L71.6721 93.7775L72.4591 95.7104L73.4725 93.886L72.5983 93.4004ZM76.5847 73.1342L75.5937 73.2686L75.5937 73.2686L76.5847 73.1342ZM79.9266 66.6239L79.3528 65.8049L79.3525 65.8051L79.9266 66.6239ZM103.609 60.8029L103.523 59.8066L103.523 59.8066L103.609 60.8029ZM166.6 62.6545L166.452 63.6435L166.452 63.6435L166.6 62.6545ZM172.363 63.9001L171.973 64.8209L171.974 64.821L172.363 63.9001ZM173.466 65.0107L174.439 64.7824L174.439 64.7809L173.466 65.0107ZM173.493 65.2074L172.494 65.2613L172.521 65.7622L172.939 66.04L173.493 65.2074ZM176.172 68.6721L175.265 69.0935L175.66 69.9448L176.535 69.6038L176.172 68.6721ZM207.51 62.0744L207.527 63.0742L208.112 63.0645L208.39 62.5495L207.51 62.0744ZM218.755 42.0665L219.675 42.4587L219.675 42.4585L218.755 42.0665ZM224.605 22.9983L225.577 23.2336L225.862 22.0587L224.654 21.9995L224.605 22.9983ZM221.851 22.8632L221.9 21.8644L221.897 21.8643L221.851 22.8632ZM218.132 22.6904L218.178 21.6914L218.175 21.6913L218.132 22.6904ZM215.29 22.5672L215.334 21.5681L214.539 21.5337L214.327 22.2999L215.29 22.5672ZM200.718 52.2661L200.462 51.2995L200.461 51.2995L200.718 52.2661ZM149.757 54.2806L149.727 55.2802L149.727 55.2802L149.757 54.2806ZM73.4711 49.3298L73.7054 48.3576L73.7042 48.3573L73.4711 49.3298ZM69.512 41.0811L68.5219 41.2215L68.5219 41.2216L69.512 41.0811ZM69.1273 22.7897L68.1307 22.7075L68.1307 22.7076L69.1273 22.7897ZM69.6175 20.3679L70.5439 20.7445L68.7351 19.8974L69.6175 20.3679ZM69.4375 20.7057L68.4533 20.5284L70.3199 21.1761L69.4375 20.7057ZM70.7836 19.462L70.4835 18.5081L70.482 18.5086L70.7836 19.462ZM78.056 18.5759L77.994 17.5778L77.9938 17.5779L78.056 18.5759ZM149.281 18.3772L149.262 19.3771L149.262 19.3771L149.281 18.3772ZM213.895 20.3639L213.851 21.363L214.647 21.3979L214.859 20.6295L213.895 20.3639ZM213.964 20.1116L214.928 20.3773L214.93 20.3717L213.964 20.1116ZM208.463 64.2081L208.459 63.2081L207.865 63.2106L207.583 63.7335L208.463 64.2081ZM194.198 109.725L193.207 109.864L193.207 109.864L194.198 109.725ZM230.929 121.905L230.728 120.926L230.728 120.926L230.929 121.905ZM255.612 99.1777L256.611 99.2203L256.611 99.2201L255.612 99.1777ZM235.37 70.2357L235.827 69.3462L235.827 69.3461L235.37 70.2357ZM71.3215 95.5361L72.1628 96.0767L72.4316 95.6583L72.2602 95.1915L71.3215 95.5361ZM65.1181 84.2199L65.9167 83.618L65.9166 83.618L65.1181 84.2199ZM24.896 85.5093L23.956 85.168L23.956 85.1681L24.896 85.5093ZM25.0184 111.561L24.265 112.218L24.2651 112.218L25.0184 111.561ZM48.2638 113.79L47.9162 112.852L47.9162 112.852L48.2638 113.79ZM103.933 108.205L104.926 108.324L105.061 107.195L103.924 107.205L103.933 108.205ZM93.474 109.681L92.9888 108.807L92.9879 108.807L93.474 109.681ZM93.2134 111.094L92.411 111.691L92.4111 111.691L93.2134 111.094ZM97.0687 114.225L97.6034 113.38L97.6032 113.38L97.0687 114.225ZM103.171 112.087L102.215 111.794L102.215 111.794L103.171 112.087ZM124.953 91.0124L125.811 91.5263L126.087 91.0644L125.854 90.5791L124.953 91.0124ZM121.216 84.3769L122.059 83.8391L122.059 83.8386L121.216 84.3769ZM110.44 72.0912L109.921 72.9459L109.921 72.9462L110.44 72.0912ZM107.579 71.4873L107.055 70.6358L107.054 70.6363L107.579 71.4873ZM105.875 78.4784L104.876 78.431L104.876 78.4311L105.875 78.4784ZM106.001 106.143L105.003 106.078L104.935 107.131L105.989 107.143L106.001 106.143ZM169.466 113.051L169.315 114.039L169.315 114.039L169.466 113.051ZM173.535 108.65L174.462 109.026L174.462 109.026L173.535 108.65ZM176.811 90.5316L177.809 90.5826L177.809 90.5823L176.811 90.5316ZM175.38 72.1131L176.341 71.8369L176.34 71.8333L175.38 72.1131ZM175.149 71.3601L176.098 71.0453L175.761 70.0307L174.771 70.4341L175.149 71.3601ZM166.847 75.117L167.292 76.0124L167.292 76.0123L166.847 75.117ZM153.542 91.4793L152.737 90.8861L152.737 90.8865L153.542 91.4793ZM150.649 95.5818L149.817 95.0272L149.394 95.6616L149.894 96.2373L150.649 95.5818ZM152.186 97.64L153.045 97.1285L153.045 97.1283L152.186 97.64ZM152.994 100.872L152.012 100.682L152.012 100.684L152.994 100.872ZM147.466 103.912L147.543 104.909L147.544 104.909L147.466 103.912ZM145.436 102.281L146.429 102.164L146.429 102.164L145.436 102.281ZM147.916 96.152L147.071 95.6166L147.066 95.6252L147.916 96.152ZM148.152 95.7805L148.996 96.3159L149.413 95.6586L148.878 95.0933L148.152 95.7805ZM133.384 81.4545L134.165 80.8304L133.267 79.706L132.527 80.9397L133.384 81.4545ZM127.147 91.1475L126.295 90.6244L126.02 91.0724L126.233 91.5528L127.147 91.1475ZM129.224 99.0327L130.221 99.113L130.221 99.1123L129.224 99.0327ZM124.341 101.78L124.044 102.735L124.044 102.735L124.341 101.78ZM123.054 94.5706L123.966 94.9789L123.967 94.9782L123.054 94.5706ZM149.518 97.3261L150.293 96.6943L149.41 95.611L148.67 96.7964L149.518 97.3261ZM148.082 99.8452L147.188 99.3981L147.186 99.4007L148.082 99.8452ZM147.461 101.317L148.412 101.625L148.415 101.615L147.461 101.317ZM147.358 101.762L146.373 101.588L146.149 102.859L147.435 102.759L147.358 101.762ZM151.13 100.415L152.112 100.605L152.112 100.603L151.13 100.415ZM150.601 98.84L151.46 98.3287L151.46 98.3276L150.601 98.84ZM125.935 93.2057L126.86 92.8246L126.071 90.911L125.062 92.7183L125.935 93.2057ZM124.297 96.6864L123.352 96.3569L123.352 96.3572L124.297 96.6864ZM124.849 99.7042L125.146 98.7493L125.145 98.7492L124.849 99.7042ZM126.96 99.7638L126.365 98.9602L126.363 98.9616L126.96 99.7638ZM127.281 97.7513L128.273 97.6261L128.273 97.626L127.281 97.7513ZM133.214 77.6778L132.335 78.1543L133.279 79.8962L134.12 78.102L133.214 77.6778ZM133.681 76.5613L134.621 76.9019L134.623 76.8981L133.681 76.5613ZM133.924 74.9481L134.786 74.4411L134.785 74.4389L133.924 74.9481ZM132.944 74.6501L132.92 73.6504L132.399 73.6629L132.111 74.0964L132.944 74.6501ZM213.314 22.4798L214.277 22.7477L214.615 21.5351L213.357 21.4807L213.314 22.4798ZM169.007 20.9739L169.033 19.9742L169.033 19.9742L169.007 20.9739ZM80.126 20.6143L80.0754 19.6155L80.0751 19.6156L80.126 20.6143ZM72.3485 21.2977L72.1777 20.3124L72.1757 20.3128L72.3485 21.2977ZM71.1928 21.5857L70.8837 20.6347L70.295 20.826L70.2037 21.4383L71.1928 21.5857ZM71.0281 22.9884L72.0247 23.0704L72.0248 23.0704L71.0281 22.9884ZM71.397 40.7414L70.4069 40.8818L70.4069 40.8818L71.397 40.7414ZM73.8689 47.2259L73.6347 48.1981L73.6357 48.1983L73.8689 47.2259ZM149.81 52.129L149.78 53.1286L149.78 53.1286L149.81 52.129ZM200.281 50.1721L200.537 51.1388L200.538 51.1388L200.281 50.1721ZM204.443 46.0796L205.292 46.6079L205.292 46.6076L204.443 46.0796ZM227.516 18.9574L228.491 19.1788L228.492 19.1755L227.516 18.9574ZM227.118 20.6957L228.093 20.9197L228.093 20.9195L227.118 20.6957ZM227.051 20.9898L226.076 20.7657L225.809 21.927L226.999 21.9884L227.051 20.9898ZM262.178 23.6241L262.049 24.6158L263.886 24.8543L263.078 23.1878L262.178 23.6241ZM256.536 20.9282L256.796 19.9625L256.796 19.9624L256.536 20.9282ZM227.912 17.1872L227.982 16.1897L227.124 16.1288L226.936 16.9691L227.912 17.1872ZM216.73 17.1713L217.698 17.4235L217.699 17.4189L216.73 17.1713ZM216.261 18.9713L217.228 19.2284L217.229 19.2234L216.261 18.9713ZM215.867 20.4514L214.901 20.1943L214.582 21.3951L215.823 21.4504L215.867 20.4514ZM225.107 20.8904L225.057 21.8891L225.892 21.9313L226.081 21.1171L225.107 20.8904ZM225.318 19.9865L226.292 20.2132L226.292 20.2093L225.318 19.9865ZM225.709 18.266L226.684 18.4889L226.685 18.4836L225.709 18.266ZM225.98 17.0541L226.956 17.2718L227.209 16.1343L226.046 16.0564L225.98 17.0541ZM216.896 16.5217L216.947 15.523L216.13 15.4817L215.927 16.2741L216.896 16.5217ZM214.984 15.4236C208.347 15.0993 201.246 14.8427 193.82 14.6499L193.768 16.6492C201.181 16.8417 208.267 17.0978 214.886 17.4212L214.984 15.4236ZM193.82 14.6499C136.624 13.1492 60.1749 15.279 30.0444 17.8637L30.2153 19.8564C60.2531 17.2796 136.625 15.1499 193.768 16.6492L193.82 14.6499ZM30.013 17.8669L17.8771 19.2953L18.1108 21.2816L30.2467 19.8532L30.013 17.8669ZM17.057 19.9391C16.9877 20.1247 16.9276 20.3967 16.875 20.6644C16.8172 20.9581 16.7531 21.3305 16.6852 21.7641C16.5491 22.6327 16.3941 23.7709 16.2413 25.0646C15.936 27.6506 15.6362 30.8832 15.5142 33.8562L17.5125 33.9383C17.6319 31.0307 17.9261 27.8513 18.2275 25.2992C18.3782 24.0238 18.5298 22.9115 18.6611 22.0737C18.7268 21.6542 18.7865 21.3094 18.8374 21.0502C18.8629 20.9205 18.8852 20.8178 18.9037 20.741C18.9242 20.6562 18.934 20.6297 18.9309 20.6378L17.057 19.9391ZM15.5142 33.8562C15.4124 36.3345 15.4282 38.7156 15.7208 40.3728L17.6903 40.0252C17.4386 38.599 17.4111 36.4068 17.5125 33.9382L15.5142 33.8562ZM15.7207 40.3726C15.7859 40.7421 15.8694 41.1051 15.9865 41.4281L17.8666 40.746C17.805 40.5763 17.7457 40.3394 17.6904 40.0254L15.7207 40.3726ZM15.9847 41.4231C16.0569 41.6254 16.1681 41.8217 16.2154 41.9023L17.9412 40.8916C17.9278 40.8687 17.9098 40.8367 17.8933 40.804C17.8852 40.788 17.8786 40.7743 17.8738 40.7634C17.8686 40.752 17.8673 40.748 17.8684 40.751L15.9847 41.4231ZM17.2394 42.3839C33.7929 39.6812 44.7912 40.9115 51.938 43.6423L52.6518 41.7741C45.0641 38.8747 33.6795 37.6732 16.9171 40.41L17.2394 42.3839ZM51.9378 43.6423C64.053 48.2743 65.4561 57.2814 64.4655 60.3551L66.3691 60.9686C67.741 56.7115 65.5827 46.7179 52.652 41.7741L51.9378 43.6423ZM64.4655 60.3551C64.2393 61.0572 63.9303 61.452 63.6652 61.6446C63.4233 61.8204 63.1765 61.8633 62.903 61.7889L62.3778 63.7187C63.2431 63.9542 64.1143 63.7905 64.8409 63.2625C65.5443 62.7514 66.0543 61.9453 66.3691 60.9686L64.4655 60.3551ZM62.7476 61.7596C42.1902 59.5436 28.1737 63.0296 19.4292 69.7552C10.6535 76.5049 7.3587 86.3846 7.98332 96.5293L9.97954 96.4064C9.38718 86.7856 12.5011 77.607 20.6486 71.3405C28.8275 65.0498 42.2489 61.5615 62.5332 63.748L62.7476 61.7596ZM7.98332 96.5293C8.74994 108.982 15.3578 121.824 24.9734 129.794C34.6272 137.796 47.4099 140.941 60.3209 133.704L59.343 131.96C47.3015 138.709 35.4083 135.845 26.2497 128.254C17.0528 120.632 10.7117 108.299 9.97954 96.4064L7.98332 96.5293ZM60.4012 133.654C67.3921 128.815 71.5086 122.895 73.3915 116.6C75.2708 110.316 74.9054 103.727 73.0512 97.5588L71.1359 98.1345C72.8999 104.003 73.2221 110.186 71.4754 116.027C69.7322 121.855 65.9089 127.409 59.2628 132.01L60.4012 133.654ZM71.2701 97.2792C63.3394 108.789 49.6487 116.371 38.5692 117.151L38.7096 119.146C50.4411 118.32 64.6676 110.387 72.917 98.414L71.2701 97.2792ZM38.569 117.151C32.1586 117.603 26.8111 115.778 23.7258 111.555L22.1109 112.735C25.7399 117.702 31.8835 119.628 38.7097 119.146L38.569 117.151ZM23.7258 111.555C20.2061 106.739 19.265 98.2686 24.0693 85.036L22.1894 84.3535C17.3008 97.818 18.0026 107.113 22.111 112.735L23.7258 111.555ZM24.0693 85.036C26.2979 78.8975 29.2737 74.7954 32.6032 72.2988C35.9208 69.8113 39.6543 68.868 43.5138 69.151C51.2882 69.7209 59.6381 75.2883 65.774 83.4273L67.371 82.2233C61.0338 73.8172 52.2133 67.7833 43.66 67.1563C39.3556 66.8408 35.1358 67.9001 31.4034 70.6987C27.683 73.4883 24.5119 77.9561 22.1894 84.3535L24.0693 85.036ZM65.7739 83.4271C68.1467 86.5758 70.1662 90.0787 71.6721 93.7775L73.5245 93.0233C71.9503 89.1568 69.8431 85.5037 67.3711 82.2235L65.7739 83.4271ZM73.4725 93.886C76.8785 87.7542 78.6154 80.6665 77.5756 72.9999L75.5937 73.2686C76.5683 80.4544 74.9482 87.1106 71.7241 92.9148L73.4725 93.886ZM77.5756 72.9999C77.2931 70.9162 78.2018 69.0545 80.5007 67.4427L79.3525 65.8051C76.619 67.7217 75.1845 70.2505 75.5937 73.2686L77.5756 72.9999ZM80.5003 67.4429C82.539 66.0148 85.6848 64.823 89.6995 63.8761C93.6947 62.9338 98.4671 62.2526 103.696 61.7992L103.523 59.8066C98.2361 60.2651 93.3609 60.9577 89.2404 61.9295C85.1394 62.8968 81.7014 64.1596 79.3528 65.8049L80.5003 67.4429ZM103.695 61.7992C125.19 59.9375 154.079 61.7956 166.452 63.6435L166.748 61.6654C154.245 59.7983 125.198 57.9294 103.523 59.8066L103.695 61.7992ZM166.452 63.6435C169.319 64.0713 171.203 64.4947 171.973 64.8209L172.753 62.9793C171.713 62.5387 169.579 62.088 166.748 61.6654L166.452 63.6435ZM171.974 64.821C172.441 65.019 172.501 65.2753 172.492 65.2405L174.439 64.7809C174.296 64.1739 173.787 63.417 172.753 62.9793L171.974 64.821ZM172.492 65.239C172.491 65.2353 172.491 65.2361 172.492 65.2412C172.493 65.2461 172.494 65.253 172.494 65.2613L174.491 65.1535C174.484 65.0291 174.467 64.9028 174.439 64.7824L172.492 65.239ZM172.939 66.04C173.767 66.5907 174.569 67.5966 175.265 69.0935L177.079 68.2508C176.295 66.565 175.291 65.2028 174.046 64.3747L172.939 66.04ZM176.535 69.6038C187.844 65.1946 198.241 63.229 207.527 63.0742L207.493 61.0745C197.948 61.2336 187.318 63.2533 175.808 67.7405L176.535 69.6038ZM208.39 62.5495C211.042 57.6369 213.59 53.248 215.608 49.7787C217.602 46.3508 219.131 43.7348 219.675 42.4587L217.835 41.6743C217.354 42.8021 215.921 45.262 213.879 48.7731C211.861 52.2428 209.299 56.656 206.63 61.5993L208.39 62.5495ZM219.675 42.4585C221.707 37.6895 223.689 31.0325 225.577 23.2336L223.633 22.763C221.754 30.5278 219.802 37.0583 217.835 41.6744L219.675 42.4585ZM224.654 21.9995L221.9 21.8644L221.802 23.862L224.556 23.9971L224.654 21.9995ZM221.897 21.8643C221.278 21.8355 220.658 21.8067 220.038 21.7779C219.418 21.7491 218.798 21.7202 218.178 21.6914L218.085 23.6893C218.705 23.7181 219.325 23.7469 219.945 23.7757C220.565 23.8045 221.185 23.8333 221.805 23.8621L221.897 21.8643ZM218.175 21.6913L215.334 21.5681L215.247 23.5662L218.088 23.6894L218.175 21.6913ZM214.327 22.2999C211.998 30.6962 209.573 37.7395 207.15 42.8244C205.937 45.3684 204.742 47.3866 203.583 48.8314C202.409 50.295 201.357 51.0623 200.462 51.2995L200.974 53.2328C202.478 52.8342 203.865 51.6762 205.143 50.0831C206.436 48.4713 207.708 46.3015 208.955 43.6847C211.451 38.4477 213.912 31.2773 216.254 22.8345L214.327 22.2999ZM200.461 51.2995C196.057 52.4666 188.846 53.1322 179.954 53.4175C171.088 53.7019 160.633 53.6066 149.787 53.2811L149.727 55.2802C160.594 55.6063 171.094 55.7027 180.018 55.4164C188.915 55.131 196.328 54.4636 200.974 53.2328L200.461 51.2995ZM149.787 53.2811C132.2 52.7532 113.612 51.6292 99.1841 50.5806C91.9709 50.0564 85.8004 49.5511 81.3181 49.149C79.0766 48.9479 77.2599 48.7728 75.9472 48.6342C75.2904 48.5648 74.7636 48.505 74.3745 48.456C74.1798 48.4314 74.0236 48.4101 73.9049 48.392C73.8457 48.383 73.7986 48.3753 73.7626 48.3688C73.7447 48.3656 73.7309 48.363 73.7206 48.3609C73.71 48.3587 73.7053 48.3576 73.7054 48.3576L73.2369 50.302C73.552 50.3779 74.455 50.4877 75.7372 50.6231C77.0642 50.7633 78.8923 50.9394 81.1394 51.141C85.6345 51.5443 91.8163 52.0504 99.0392 52.5754C113.484 53.6252 132.102 54.7511 149.727 55.2802L149.787 53.2811ZM73.7042 48.3573C73.219 48.2411 72.5644 47.6745 71.9217 46.2924C71.3056 44.9677 70.812 43.1245 70.502 40.9406L68.5219 41.2216C68.8477 43.5177 69.3803 45.5704 70.1082 47.1357C70.8094 48.6438 71.8164 49.9616 73.2381 50.3023L73.7042 48.3573ZM70.5021 40.9406C69.6389 34.8559 69.8166 26.6042 70.1239 22.8717L68.1307 22.7076C67.8164 26.5246 67.6305 34.9372 68.5219 41.2215L70.5021 40.9406ZM70.1239 22.8719C70.2152 21.7645 70.424 21.0394 70.5439 20.7445L68.6912 19.9913C68.4783 20.5149 68.2347 21.4468 68.1307 22.7075L70.1239 22.8719ZM68.7351 19.8974L68.555 20.2352L70.3199 21.1761L70.5 20.8384L68.7351 19.8974ZM70.4216 20.8829C70.4119 20.9368 70.4688 20.6104 71.0851 20.4154L70.482 18.5086C69.2141 18.9096 68.5854 19.7951 68.4533 20.5284L70.4216 20.8829ZM71.0836 20.4159C72.0837 20.1013 74.4645 19.802 78.1183 19.574L77.9938 17.5779C74.3894 17.8028 71.7571 18.1075 70.4835 18.5081L71.0836 20.4159ZM78.1181 19.574C91.0683 18.7683 118.811 18.7949 149.262 19.3771L149.3 17.3774C118.861 16.7954 91.0381 16.7663 77.994 17.5778L78.1181 19.574ZM149.262 19.3771C170.895 19.7902 193.872 20.4873 213.851 21.363L213.939 19.3649C193.941 18.4884 170.948 17.7908 149.3 17.3774L149.262 19.3771ZM214.859 20.6295L214.928 20.3773L213 19.846L212.931 20.0983L214.859 20.6295ZM214.93 20.3717C215.255 19.1643 215.58 17.9307 215.904 16.671L213.967 16.1737C213.645 17.4252 213.322 18.6511 212.999 19.8516L214.93 20.3717ZM207.583 63.7335C203.692 70.9506 199.654 79.2087 196.81 87.2725C193.976 95.3108 192.284 103.277 193.207 109.864L195.188 109.586C194.333 103.482 195.894 95.8865 198.696 87.9375C201.49 80.014 205.474 71.8591 209.344 64.6827L207.583 63.7335ZM193.207 109.864C194.039 115.794 197.075 120.475 203.265 122.914C209.348 125.312 218.369 125.5 231.129 122.885L230.728 120.926C218.093 123.515 209.537 123.236 203.998 121.053C198.565 118.913 195.933 114.9 195.188 109.586L193.207 109.864ZM231.129 122.885C247.933 119.441 256.151 110.009 256.611 99.2203L254.612 99.1351C254.204 108.726 246.941 117.603 230.728 120.926L231.129 122.885ZM256.611 99.2201C257.083 88.08 249.303 76.2706 235.827 69.3462L234.913 71.1251C247.914 77.8055 255.043 88.994 254.612 99.1353L256.611 99.2201ZM235.827 69.3461C228.36 65.5116 219.127 63.1638 208.459 63.2081L208.468 65.2081C218.835 65.165 227.749 67.4461 234.913 71.1252L235.827 69.3461ZM72.2602 95.1915C70.733 91.0311 68.5407 87.0988 65.9167 83.618L64.3196 84.8219C66.8325 88.1554 68.9272 91.9155 70.3828 95.8807L72.2602 95.1915ZM65.9166 83.618C60.0471 75.8323 51.868 70.1221 43.9245 69.4243C39.9236 69.0728 35.9947 69.9983 32.5182 72.56C29.0541 75.1125 26.1095 79.2367 23.956 85.168L25.836 85.8506C27.8948 80.1797 30.641 76.4275 33.7046 74.1701C36.7557 71.9218 40.191 71.104 43.7495 71.4166C50.9248 72.0469 58.6445 77.2942 64.3196 84.8219L65.9166 83.618ZM23.956 85.1681C19.2075 98.248 19.8165 107.122 24.265 112.218L25.7718 110.903C22.0804 106.674 21.1464 98.7684 25.836 85.8505L23.956 85.1681ZM24.2651 112.218C26.8906 115.226 30.6635 116.717 34.9007 117.028C39.1318 117.338 43.8856 116.479 48.6113 114.727L47.9162 112.852C43.3812 114.533 38.9196 115.317 35.0469 115.033C31.1802 114.75 27.9608 113.411 25.7717 110.903L24.2651 112.218ZM48.6113 114.727C57.5066 111.431 66.5334 104.836 72.1628 96.0767L70.4802 94.9955C65.1119 103.349 56.4538 109.688 47.9162 112.852L48.6113 114.727ZM103.924 107.205C101.444 107.228 99.2326 107.35 97.3999 107.596C95.5929 107.839 94.0543 108.216 92.9888 108.807L93.9592 110.556C94.6876 110.152 95.9211 109.813 97.6665 109.578C99.3862 109.347 101.507 109.228 103.943 109.205L103.924 107.205ZM92.9879 108.807C92.5684 109.041 92.102 109.436 91.969 110.074C91.8368 110.708 92.0991 111.271 92.411 111.691L94.0158 110.497C93.9821 110.452 93.96 110.416 93.9461 110.391C93.9323 110.365 93.928 110.352 93.9278 110.352C93.9278 110.351 93.932 110.364 93.9337 110.389C93.9355 110.414 93.9344 110.446 93.9269 110.482C93.9194 110.518 93.9073 110.55 93.8939 110.575C93.8809 110.6 93.8692 110.614 93.8652 110.618C93.8614 110.623 93.8649 110.618 93.8807 110.606C93.8964 110.594 93.9219 110.576 93.9601 110.555L92.9879 108.807ZM92.4111 111.691C93.1857 112.732 94.5839 113.837 96.5343 115.07L97.6032 113.38C95.6832 112.165 94.5564 111.224 94.0158 110.497L92.4111 111.691ZM96.5341 115.07C98.3025 116.189 99.9617 116.626 101.405 116.021C102.818 115.43 103.632 113.997 104.127 112.38L102.215 111.794C101.77 113.247 101.201 113.939 100.633 114.176C100.095 114.402 99.1728 114.373 97.6034 113.38L96.5341 115.07ZM104.127 112.38C104.492 111.19 104.748 109.816 104.926 108.324L102.94 108.087C102.771 109.507 102.533 110.755 102.215 111.794L104.127 112.38ZM125.854 90.5791C124.809 88.405 123.497 86.0931 122.059 83.8391L120.373 84.9147C121.776 87.1148 123.047 89.3565 124.052 91.4457L125.854 90.5791ZM122.059 83.8386C120.345 81.1559 118.435 78.5374 116.534 76.3324C114.645 74.1415 112.716 72.3025 110.959 71.2363L109.921 72.9462C111.412 73.8508 113.179 75.5044 115.019 77.6385C116.847 79.7584 118.701 82.2974 120.373 84.9152L122.059 83.8386ZM110.959 71.2366C110.36 70.8725 109.727 70.5463 109.1 70.3888C108.455 70.2268 107.725 70.2229 107.055 70.6358L108.104 72.3387C108.169 72.2988 108.297 72.2491 108.612 72.3285C108.946 72.4123 109.375 72.6146 109.921 72.9459L110.959 71.2366ZM107.054 70.6363C106.042 71.2611 105.595 72.5159 105.343 73.7426C105.076 75.0368 104.96 76.6633 104.876 78.431L106.874 78.5258C106.958 76.7533 107.07 75.2697 107.301 74.146C107.547 72.955 107.868 72.4843 108.105 72.3382L107.054 70.6363ZM104.876 78.4311C104.692 82.3294 104.861 87.1896 105.006 92.0728C105.151 96.9829 105.271 101.927 105.003 106.078L106.999 106.208C107.274 101.946 107.149 96.9074 107.005 92.0137C106.859 87.0931 106.694 82.3278 106.874 78.5257L104.876 78.4311ZM105.989 107.143C127.854 107.398 167.661 113.786 169.315 114.039L169.618 112.062C168.033 111.819 128.054 105.4 106.012 105.143L105.989 107.143ZM169.315 114.039C170.633 114.241 171.683 113.561 172.467 112.64C173.239 111.731 173.886 110.445 174.462 109.026L172.608 108.274C172.053 109.642 171.503 110.685 170.943 111.344C170.394 111.99 169.975 112.117 169.618 112.062L169.315 114.039ZM174.462 109.026C176.312 104.463 177.456 97.5205 177.809 90.5826L175.812 90.4807C175.463 97.3265 174.337 104.013 172.608 108.274L174.462 109.026ZM177.809 90.5823C178.157 83.729 177.744 76.7187 176.341 71.8369L174.419 72.3893C175.734 76.9641 176.155 83.7216 175.812 90.481L177.809 90.5823ZM176.34 71.8333C176.264 71.5708 176.185 71.3069 176.098 71.0453L174.2 71.675C174.275 71.9022 174.346 72.1389 174.42 72.3929L176.34 71.8333ZM174.771 70.4341C172.032 71.5503 169.24 72.8102 166.402 74.2216L167.292 76.0123C170.087 74.6225 172.834 73.3832 175.526 72.2862L174.771 70.4341ZM166.402 74.2215C166.263 74.2908 166.157 74.3846 166.135 74.4042C166.087 74.4457 166.038 74.492 165.993 74.5368C165.9 74.6276 165.787 74.746 165.659 74.8844C165.4 75.1631 165.052 75.5522 164.635 76.0302C163.8 76.9879 162.669 78.3214 161.376 79.8842C158.792 83.009 155.553 87.0658 152.737 90.8861L154.347 92.0725C157.134 88.2918 160.348 84.2657 162.918 81.1587C164.202 79.6057 165.322 78.2861 166.143 77.3451C166.554 76.8737 166.886 76.5021 167.124 76.245C167.245 76.1156 167.334 76.0224 167.395 75.9625C167.426 75.9319 167.442 75.9179 167.445 75.9151C167.474 75.8903 167.407 75.9554 167.292 76.0124L166.402 74.2215ZM152.737 90.8865C151.687 92.3131 150.693 93.7131 149.817 95.0272L151.481 96.1364C152.335 94.8559 153.31 93.4825 154.348 92.0721L152.737 90.8865ZM149.894 96.2373C150.503 96.9388 150.985 97.5788 151.326 98.1517L153.045 97.1283C152.622 96.4178 152.058 95.6791 151.404 94.9263L149.894 96.2373ZM151.326 98.1515C151.979 99.2481 152.125 100.103 152.012 100.682L153.976 101.062C154.215 99.826 153.84 98.4636 153.045 97.1285L151.326 98.1515ZM152.012 100.684C151.872 101.416 150.985 102.636 147.389 102.915L147.544 104.909C151.383 104.611 153.569 103.189 153.976 101.061L152.012 100.684ZM147.389 102.915C146.904 102.952 146.726 102.836 146.662 102.778C146.583 102.708 146.473 102.542 146.429 102.164L144.443 102.398C144.52 103.055 144.757 103.757 145.328 104.268C145.914 104.793 146.691 104.975 147.543 104.909L147.389 102.915ZM146.429 102.164C146.395 101.873 146.501 101.229 146.916 100.201C147.313 99.2191 147.936 98.018 148.766 96.6788L147.066 95.6252C146.196 97.0296 145.513 98.3347 145.062 99.4521C144.629 100.523 144.346 101.572 144.443 102.398L146.429 102.164ZM148.761 96.6874L148.996 96.3159L147.307 95.2451L147.071 95.6166L148.761 96.6874ZM148.878 95.0933C146.808 92.9051 143.994 90.4399 141.297 87.9956C138.569 85.524 135.953 83.0689 134.165 80.8304L132.602 82.0785C134.505 84.461 137.238 87.0174 139.954 89.4778C142.699 91.9654 145.424 94.3527 147.425 96.4677L148.878 95.0933ZM132.527 80.9397C131.645 82.4082 130.592 84.0084 129.501 85.6598C128.416 87.3038 127.294 88.9972 126.295 90.6244L128 91.6706C128.978 90.0775 130.079 88.4143 131.17 86.7619C132.257 85.1169 133.334 83.4808 134.241 81.9692L132.527 80.9397ZM126.233 91.5528C127.65 94.7479 128.353 97.3876 128.228 98.953L130.221 99.1123C130.389 97.0063 129.49 93.9642 128.062 90.7422L126.233 91.5528ZM128.228 98.9524C128.142 100.009 127.816 100.584 127.402 100.857C126.984 101.133 126.171 101.302 124.638 100.825L124.044 102.735C125.825 103.289 127.357 103.283 128.504 102.526C129.655 101.766 130.113 100.452 130.221 99.113L128.228 98.9524ZM124.638 100.826C124.094 100.656 123.738 100.415 123.504 100.147C123.271 99.8812 123.112 99.535 123.044 99.076C122.903 98.117 123.179 96.7399 123.966 94.9789L122.141 94.1622C121.298 96.0468 120.842 97.8464 121.066 99.3668C121.18 100.148 121.477 100.867 121.998 101.463C122.518 102.058 123.214 102.477 124.044 102.735L124.638 100.826ZM123.967 94.9782C124.436 93.9262 125.071 92.7621 125.811 91.5263L124.095 90.4986C123.333 91.77 122.655 93.0098 122.14 94.1629L123.967 94.9782ZM148.67 96.7964C148.086 97.7314 147.582 98.6083 147.188 99.3981L148.976 100.292C149.334 99.5762 149.804 98.7565 150.366 97.8558L148.67 96.7964ZM147.186 99.4007C146.903 99.9722 146.662 100.519 146.506 101.02L148.415 101.615C148.525 101.261 148.713 100.823 148.978 100.29L147.186 99.4007ZM146.509 101.009C146.439 101.225 146.397 101.456 146.373 101.588L148.343 101.936C148.366 101.806 148.389 101.696 148.412 101.625L146.509 101.009ZM147.435 102.759C148.617 102.668 149.628 102.557 150.377 102.318C151.153 102.071 151.922 101.589 152.112 100.605L150.148 100.226C150.146 100.236 150.152 100.229 150.139 100.24C150.106 100.269 150.008 100.337 149.77 100.413C149.275 100.57 148.489 100.672 147.281 100.765L147.435 102.759ZM152.112 100.603C152.203 100.127 152.103 99.6884 151.97 99.3349C151.839 98.9848 151.645 98.6398 151.46 98.3287L149.741 99.3513C149.919 99.65 150.033 99.8653 150.098 100.037C150.16 100.205 150.144 100.249 150.147 100.228L152.112 100.603ZM151.46 98.3276C151.142 97.7951 150.746 97.2499 150.293 96.6943L148.743 97.9579C149.155 98.4632 149.489 98.9273 149.742 99.3523L151.46 98.3276ZM125.062 92.7183C124.35 93.9931 123.746 95.2282 123.352 96.3569L125.241 97.0159C125.58 96.0427 126.123 94.9215 126.808 93.6932L125.062 92.7183ZM123.352 96.3572C123.093 97.1021 122.856 97.9462 122.931 98.7066C122.971 99.1137 123.103 99.5384 123.401 99.9084C123.699 100.279 124.101 100.519 124.552 100.659L125.145 98.7492C125.067 98.7247 125.02 98.7004 124.995 98.6842C124.971 98.6689 124.962 98.6588 124.96 98.6558C124.96 98.6557 124.933 98.6266 124.921 98.5109C124.893 98.2258 124.985 97.7488 125.241 97.0156L123.352 96.3572ZM124.552 100.659C125.074 100.821 125.589 100.946 126.066 100.969C126.552 100.992 127.091 100.913 127.557 100.566L126.363 98.9616C126.397 98.9363 126.376 98.9815 126.161 98.9713C125.938 98.9607 125.614 98.8949 125.146 98.7493L124.552 100.659ZM127.555 100.567C128.103 100.162 128.28 99.5688 128.332 99.087C128.383 98.6158 128.332 98.0949 128.273 97.6261L126.289 97.8764C126.347 98.3413 126.367 98.6559 126.343 98.8721C126.321 99.0777 126.279 99.0238 126.365 98.9602L127.555 100.567ZM128.273 97.626C128.097 96.2312 127.584 94.5807 126.86 92.8246L125.011 93.5868C125.704 95.2677 126.144 96.7323 126.289 97.8765L128.273 97.626ZM134.12 78.102C134.314 77.6876 134.482 77.286 134.621 76.9019L132.741 76.2207C132.625 76.5398 132.481 76.8852 132.308 77.2535L134.12 78.102ZM134.623 76.8981C134.737 76.579 134.883 76.1884 134.957 75.8344C135.03 75.482 135.084 74.948 134.786 74.4411L133.062 75.4551C132.98 75.3157 133.038 75.2377 132.999 75.4246C132.96 75.61 132.876 75.8422 132.74 76.2244L134.623 76.8981ZM134.785 74.4389C134.539 74.024 134.163 73.8195 133.815 73.7283C133.507 73.6472 133.18 73.6441 132.92 73.6504L132.968 75.6498C133.076 75.6472 133.157 75.6483 133.219 75.6523C133.249 75.6543 133.271 75.6567 133.286 75.659C133.302 75.6612 133.308 75.6629 133.307 75.6627C133.306 75.6624 133.266 75.6519 133.211 75.6146C133.152 75.5738 133.1 75.5183 133.064 75.4573L134.785 74.4389ZM132.111 74.0964C131.215 75.4442 131.673 76.9334 132.335 78.1543L134.093 77.2013C133.508 76.1215 133.534 75.5685 133.776 75.2038L132.111 74.0964ZM213.357 21.4807C199.527 20.8824 184.271 20.3697 169.033 19.9742L168.981 21.9735C184.209 22.3688 199.453 22.8811 213.271 23.4788L213.357 21.4807ZM169.033 19.9742C132.924 19.0385 96.8676 18.765 80.0754 19.6155L80.1765 21.613C96.882 20.7669 132.867 21.0377 168.981 21.9735L169.033 19.9742ZM80.0751 19.6156C76.5649 19.7944 73.8584 20.0209 72.1777 20.3124L72.5194 22.283C74.0694 22.0142 76.6686 21.7917 80.1768 21.613L80.0751 19.6156ZM72.1757 20.3128C71.6411 20.4066 71.1398 20.5515 70.8837 20.6347L71.5018 22.5368C71.6982 22.473 72.1052 22.3557 72.5214 22.2826L72.1757 20.3128ZM70.2037 21.4383C70.1593 21.7362 70.0789 22.33 70.0315 22.9063L72.0248 23.0704C72.0673 22.5541 72.1409 22.0075 72.1818 21.7332L70.2037 21.4383ZM70.0315 22.9063C69.7264 26.6115 69.5413 34.7799 70.4069 40.8818L72.3871 40.6009C71.5499 34.6993 71.7265 26.6922 72.0247 23.0704L70.0315 22.9063ZM70.4069 40.8818C70.6454 42.5628 70.9143 44.179 71.324 45.4296C71.5292 46.0561 71.7877 46.649 72.1352 47.1281C72.4878 47.6143 72.9749 48.0391 73.6347 48.1981L74.1032 46.2537C74.0456 46.2399 73.9248 46.1891 73.7542 45.9539C73.5784 45.7115 73.3983 45.337 73.2246 44.807C72.8766 43.7446 72.6269 42.2913 72.3871 40.6009L70.4069 40.8818ZM73.6357 48.1983C73.9495 48.2736 74.8486 48.3823 76.1249 48.5163C77.4459 48.6549 79.2657 48.8292 81.5025 49.0286C85.9771 49.4275 92.1308 49.9282 99.3208 50.4476C113.7 51.4865 132.234 52.6015 149.78 53.1286L149.84 51.1295C132.331 50.6036 113.827 49.4905 99.4649 48.4528C92.2844 47.934 86.142 47.4343 81.6801 47.0365C79.4488 46.8376 77.6403 46.6643 76.3336 46.5272C75.6798 46.4586 75.1554 46.3994 74.7681 46.3508C74.5743 46.3265 74.4188 46.3054 74.3007 46.2875C74.2417 46.2786 74.1949 46.271 74.1591 46.2646C74.1413 46.2614 74.1275 46.2588 74.1173 46.2567C74.1067 46.2546 74.1021 46.2535 74.1022 46.2535L73.6357 48.1983ZM149.78 53.1286C160.541 53.4517 170.94 53.5566 179.778 53.2825C188.59 53.0093 195.934 52.3579 200.537 51.1388L200.025 49.2055C195.665 50.3605 188.524 51.0104 179.716 51.2835C170.935 51.5558 160.58 51.452 149.84 51.1295L149.78 53.1286ZM200.538 51.1388C201.473 50.8908 202.312 50.3017 203.071 49.5367C203.834 48.768 204.569 47.7688 205.292 46.6079L203.594 45.5512C202.913 46.6453 202.268 47.5066 201.652 48.1276C201.032 48.7523 200.491 49.082 200.025 49.2055L200.538 51.1388ZM205.292 46.6076C208.373 41.6517 211.374 33.1837 214.277 22.7477L212.35 22.2118C209.447 32.648 206.508 40.8641 203.594 45.5516L205.292 46.6076ZM226.541 18.736C226.41 19.3127 226.277 19.8917 226.144 20.472L228.093 20.9195C228.226 20.3395 228.36 19.7583 228.491 19.1788L226.541 18.736ZM226.144 20.4717L226.076 20.7657L228.025 21.2138L228.093 20.9197L226.144 20.4717ZM226.999 21.9884C242.314 22.7792 254.827 23.6776 262.049 24.6158L262.307 22.6324C254.999 21.6832 242.416 20.7818 227.102 19.9911L226.999 21.9884ZM263.078 23.1878C262.652 22.3103 261.73 21.723 260.74 21.2732C259.705 20.8037 258.36 20.3833 256.796 19.9625L256.276 21.8938C257.821 22.3094 259.035 22.6957 259.913 23.0943C260.834 23.5127 261.179 23.8552 261.278 24.0604L263.078 23.1878ZM256.796 19.9624C250.648 18.3099 240.559 17.0818 227.982 16.1897L227.841 18.1847C240.415 19.0766 250.333 20.2962 256.276 21.8939L256.796 19.9624ZM226.936 16.9691L226.54 18.7392L228.492 19.1755L228.888 17.4054L226.936 16.9691ZM215.763 16.9192C215.684 17.2192 215.606 17.5192 215.528 17.8191C215.45 18.1191 215.372 18.4191 215.294 18.7191L217.229 19.2234C217.307 18.9234 217.385 18.6235 217.463 18.3235C217.542 18.0235 217.62 17.7235 217.698 17.4235L215.763 16.9192ZM215.295 18.7142L214.901 20.1943L216.834 20.7084L217.228 19.2284L215.295 18.7142ZM215.823 21.4504C218.986 21.5913 222.069 21.7382 225.057 21.8891L225.158 19.8917C222.166 19.7406 219.079 19.5935 215.912 19.4523L215.823 21.4504ZM226.081 21.1171L226.292 20.2132L224.344 19.7598L224.133 20.6637L226.081 21.1171ZM226.292 20.2093C226.358 19.9216 226.423 19.6344 226.489 19.3479C226.554 19.0612 226.619 18.7752 226.684 18.4889L224.735 18.0432C224.669 18.3309 224.603 18.6181 224.538 18.9046C224.473 19.1913 224.408 19.4773 224.343 19.7636L226.292 20.2093ZM226.685 18.4836L226.956 17.2718L225.004 16.8365L224.733 18.0484L226.685 18.4836ZM226.046 16.0564C223.136 15.8613 220.098 15.6822 216.947 15.523L216.846 17.5204C219.987 17.6791 223.013 17.8576 225.913 18.0519L226.046 16.0564ZM215.927 16.2741L215.761 16.9238L217.699 17.4189L217.865 16.7692L215.927 16.2741Z" fill="black" mask="url(#path-1-inside-1_58_2)"/>
</svg>
