<svg width="109" height="45" viewBox="0 0 109 45" fill="none" xmlns="http://www.w3.org/2000/svg">
<rect width="109" height="45" fill="white"/>
<path d="M17.1281 20.3231C4.86791 2.20424 105.481 2.91765 93.1737 20.3231" stroke="black" stroke-miterlimit="1.5" stroke-linecap="square"/>
<path fill-rule="evenodd" clip-rule="evenodd" d="M19.1633 22.0799V36.4565C17.1449 37.413 15.1454 38.4163 11.9286 36.3796L11.7734 22.0799C13.9552 20.1821 16.3905 19.9934 19.1633 22.0799Z" fill="white"/>
<path d="M19.1633 36.4565V22.0799C16.3905 19.9934 13.9552 20.1821 11.7734 22.0799M19.1633 36.4565C17.1449 37.413 15.1454 38.4163 11.9286 36.3796L11.7734 22.0799M19.1633 36.4565C11.9286 36.3796 19.1633 22.0799 11.7734 22.0799" stroke="black" stroke-miterlimit="1.5" stroke-linecap="round" stroke-linejoin="round"/>
<path fill-rule="evenodd" clip-rule="evenodd" d="M97.6789 22.0799V36.4565C95.6606 37.413 93.661 38.4163 90.4442 36.3796L90.2891 22.0799C92.4709 20.1821 94.9062 19.9934 97.6789 22.0799Z" fill="white" stroke="black" stroke-miterlimit="1.5" stroke-linecap="round" stroke-linejoin="round"/>
<path d="M90.6875 36.2075C96.6875 36.2075 90.6875 22.2075 96.6875 22.2075" stroke="black"/>
<path d="M11.4127 25.4175C8.01707 25.8694 8.37954 32.9247 11.4127 33.0745" stroke="black" stroke-miterlimit="1.5" stroke-linecap="square"/>
<path d="M97.9338 23.7197C101.474 24.2465 101.096 32.4706 97.9338 32.6453" stroke="black" stroke-miterlimit="1.5" stroke-linecap="square"/>
<path d="M26.1836 32.6196V33.9409C26.1836 33.9767 26.1872 34.0233 26.1943 34.0806C26.2015 34.1379 26.2051 34.1987 26.2051 34.2632C26.2122 34.3276 26.2194 34.3849 26.2266 34.4351C26.2337 34.4852 26.2373 34.5138 26.2373 34.521C26.2588 34.5282 26.3125 34.5747 26.3984 34.6606C26.4844 34.7394 26.5488 34.8039 26.5918 34.854C26.7422 34.9972 26.9176 35.1297 27.1182 35.2515C27.3187 35.366 27.5407 35.4233 27.7842 35.4233C27.9704 35.4233 28.1781 35.3911 28.4072 35.3267C28.6436 35.255 28.8727 35.1619 29.0947 35.0474C29.3239 34.9256 29.5316 34.786 29.7178 34.6284C29.904 34.4709 30.04 34.299 30.126 34.1128C30.126 34.1056 30.1296 34.0806 30.1367 34.0376C30.1439 33.9946 30.1475 33.9517 30.1475 33.9087C30.1546 33.8586 30.1618 33.8156 30.1689 33.7798C30.1761 33.744 30.1797 33.7225 30.1797 33.7153C30.2298 33.5578 30.2728 33.411 30.3086 33.2749C30.3516 33.1388 30.391 33.0028 30.4268 32.8667C30.4626 32.7306 30.4948 32.591 30.5234 32.4478C30.5592 32.2974 30.5879 32.1326 30.6094 31.9536V31.6313C30.6237 31.5597 30.6488 31.4881 30.6846 31.4165C30.7204 31.3449 30.7383 31.2625 30.7383 31.1694C30.7383 31.0549 30.7204 30.9546 30.6846 30.8687C30.6488 30.7827 30.6237 30.6968 30.6094 30.6108C30.6022 30.5822 30.5915 30.5321 30.5771 30.4604C30.57 30.3888 30.5592 30.3136 30.5449 30.2349C30.5378 30.1489 30.5306 30.0701 30.5234 29.9985C30.5163 29.9198 30.5127 29.8696 30.5127 29.8481C30.5127 29.8481 30.5055 29.8338 30.4912 29.8052C30.4769 29.7765 30.459 29.7443 30.4375 29.7085C30.4232 29.6727 30.4053 29.6369 30.3838 29.6011C30.3623 29.5653 30.3444 29.5366 30.3301 29.5151L30.2764 29.4614C30.2334 29.3254 30.194 29.1857 30.1582 29.0425C30.1224 28.8921 30.0866 28.7417 30.0508 28.5913C30.015 28.4409 29.972 28.2977 29.9219 28.1616C29.8717 28.0256 29.8037 27.9002 29.7178 27.7856C29.6247 27.7069 29.485 27.6353 29.2988 27.5708C29.1198 27.4992 28.973 27.4347 28.8584 27.3774C28.7796 27.3416 28.6937 27.3094 28.6006 27.2808C28.5146 27.245 28.418 27.2271 28.3105 27.2271C28.153 27.2271 27.9811 27.245 27.7949 27.2808C27.6159 27.3166 27.4404 27.3703 27.2686 27.4419C27.0967 27.5135 26.9427 27.6066 26.8066 27.7212C26.6706 27.8286 26.5703 27.9611 26.5059 28.1187C26.4915 28.133 26.4772 28.1688 26.4629 28.2261C26.4557 28.2834 26.4486 28.3442 26.4414 28.4087C26.4342 28.4731 26.4271 28.534 26.4199 28.5913C26.4128 28.6486 26.4092 28.6844 26.4092 28.6987C26.3519 28.9995 26.3161 29.3003 26.3018 29.6011C26.2946 29.9019 26.2731 30.2026 26.2373 30.5034C26.2373 30.5249 26.2337 30.5715 26.2266 30.6431C26.2194 30.7147 26.2122 30.7935 26.2051 30.8794C26.2051 30.9582 26.2015 31.0334 26.1943 31.105C26.1872 31.1694 26.1836 31.2088 26.1836 31.2231V32.6196ZM24.9805 35.7456C24.8802 35.7456 24.7835 35.7743 24.6904 35.8315C24.5973 35.8817 24.5078 35.9067 24.4219 35.9067C24.3717 35.9067 24.3359 35.8745 24.3145 35.8101C24.293 35.7456 24.2536 35.6991 24.1963 35.6704V32.7271C24.2464 32.5552 24.2786 32.3905 24.293 32.2329C24.3145 32.0682 24.3252 31.9071 24.3252 31.7495C24.3252 31.6493 24.3216 31.5526 24.3145 31.4595C24.3145 31.3664 24.3145 31.2697 24.3145 31.1694C24.3145 30.9331 24.3145 30.6395 24.3145 30.2886C24.3216 29.9377 24.3288 29.5939 24.3359 29.2573C24.3431 28.8706 24.3538 28.4696 24.3682 28.0542L24.4541 27.9038V22.6616C24.4541 22.6401 24.4326 22.59 24.3896 22.5112C24.3538 22.4253 24.3288 22.3573 24.3145 22.3071C24.25 22.2355 24.1641 22.1675 24.0566 22.103C23.9492 22.0314 23.8346 21.967 23.7129 21.9097C23.5911 21.8524 23.473 21.7987 23.3584 21.7485C23.2438 21.6912 23.1507 21.634 23.0791 21.5767C23.0791 21.5623 23.0684 21.5373 23.0469 21.5015C23.0326 21.4585 23.0254 21.4299 23.0254 21.4155C23.0254 21.3869 23.0326 21.3511 23.0469 21.3081C23.054 21.2866 23.0648 21.2651 23.0791 21.2437C23.0934 21.2365 23.1292 21.2007 23.1865 21.1362C23.2438 21.0646 23.2904 21.0216 23.3262 21.0073C23.3333 21.0002 23.3691 20.9894 23.4336 20.9751C23.498 20.9608 23.5661 20.9465 23.6377 20.9321C23.7165 20.9178 23.7845 20.9035 23.8418 20.8892C23.9062 20.8748 23.9456 20.8641 23.96 20.8569C24.1318 20.7996 24.3001 20.7352 24.4648 20.6636C24.6367 20.5848 24.805 20.5096 24.9697 20.438C25.1416 20.3664 25.3135 20.3091 25.4854 20.2661C25.6644 20.216 25.8542 20.1909 26.0547 20.1909C26.1406 20.1909 26.2122 20.2196 26.2695 20.2769C26.334 20.327 26.3805 20.3914 26.4092 20.4702C26.445 20.5418 26.4701 20.6206 26.4844 20.7065C26.4987 20.7925 26.5059 20.8677 26.5059 20.9321C26.5059 21.2329 26.4951 21.5373 26.4736 21.8452C26.4521 22.1532 26.4307 22.4432 26.4092 22.7153C26.3734 22.7726 26.3519 22.8407 26.3447 22.9194C26.3376 22.991 26.334 23.0662 26.334 23.145C26.334 23.2668 26.3447 23.3813 26.3662 23.4888C26.3949 23.5962 26.4092 23.7108 26.4092 23.8325C26.4092 23.9113 26.4056 23.9865 26.3984 24.0581C26.3913 24.1226 26.3698 24.1942 26.334 24.2729V26.1743C26.334 26.2316 26.3698 26.3032 26.4414 26.3892C26.513 26.4679 26.5846 26.5073 26.6562 26.5073C26.9284 26.5073 27.2005 26.4787 27.4727 26.4214C27.752 26.3641 28.0312 26.3354 28.3105 26.3354H28.4502C28.6149 26.3569 28.751 26.3784 28.8584 26.3999C28.973 26.4142 29.0768 26.4357 29.1699 26.4644C29.2702 26.493 29.3704 26.5324 29.4707 26.5825C29.5781 26.6326 29.7035 26.6935 29.8467 26.7651C29.8682 26.7651 29.9219 26.7795 30.0078 26.8081C30.0938 26.8296 30.1833 26.8582 30.2764 26.894C30.3695 26.9299 30.4554 26.9657 30.5342 27.0015C30.613 27.0373 30.6631 27.0659 30.6846 27.0874C30.835 27.159 30.9639 27.245 31.0713 27.3452C31.1859 27.4455 31.2861 27.5565 31.3721 27.6782C31.4652 27.7928 31.5511 27.9181 31.6299 28.0542C31.7087 28.1903 31.7946 28.3263 31.8877 28.4624C31.902 28.4624 31.9128 28.466 31.9199 28.4731C31.9271 28.4803 31.9378 28.4875 31.9521 28.4946C31.9665 28.5018 31.9772 28.509 31.9844 28.5161C32.0059 28.5734 32.0381 28.6486 32.0811 28.7417C32.1312 28.8276 32.1777 28.9136 32.2207 28.9995C32.2637 29.0854 32.2995 29.1642 32.3281 29.2358C32.3639 29.3003 32.3854 29.3397 32.3926 29.354C32.3997 29.3826 32.4105 29.4435 32.4248 29.5366C32.4463 29.6226 32.4642 29.7157 32.4785 29.8159C32.5 29.9162 32.5179 30.0093 32.5322 30.0952C32.5465 30.1812 32.5573 30.2349 32.5645 30.2563C32.5645 30.2778 32.5716 30.3208 32.5859 30.3853C32.6074 30.4497 32.6182 30.4891 32.6182 30.5034C32.6325 30.6466 32.6432 30.7827 32.6504 30.9116C32.6647 31.0405 32.6719 31.1659 32.6719 31.2876C32.6719 31.4165 32.6647 31.549 32.6504 31.6851C32.6432 31.814 32.6325 31.9393 32.6182 32.061C32.6038 32.0897 32.5931 32.1147 32.5859 32.1362C32.5716 32.1935 32.5645 32.2257 32.5645 32.2329C32.5573 32.2472 32.5501 32.2902 32.543 32.3618C32.5358 32.4334 32.5286 32.5122 32.5215 32.5981C32.5143 32.6769 32.5072 32.7521 32.5 32.8237C32.4928 32.8953 32.4893 32.9383 32.4893 32.9526C32.4893 32.967 32.4821 32.9956 32.4678 33.0386C32.4535 33.0815 32.4355 33.1317 32.4141 33.189C32.3926 33.2391 32.3711 33.2892 32.3496 33.3394C32.3281 33.3895 32.3102 33.4289 32.2959 33.4575C32.2959 33.4718 32.2852 33.4969 32.2637 33.5327C32.2493 33.5685 32.2422 33.5936 32.2422 33.6079C32.2422 33.6151 32.235 33.6473 32.2207 33.7046C32.2064 33.7619 32.1885 33.8263 32.167 33.8979C32.1455 33.9624 32.124 34.0233 32.1025 34.0806C32.0882 34.1379 32.0739 34.1701 32.0596 34.1772C32.0596 34.1987 32.0345 34.2345 31.9844 34.2847C31.9414 34.3276 31.8877 34.3778 31.8232 34.4351C31.766 34.4852 31.7122 34.5317 31.6621 34.5747C31.612 34.6177 31.5833 34.6463 31.5762 34.6606C31.5475 34.6965 31.5153 34.7502 31.4795 34.8218C31.4437 34.8934 31.4043 34.9686 31.3613 35.0474C31.3184 35.1261 31.2718 35.2013 31.2217 35.2729C31.1715 35.3374 31.1214 35.3875 31.0713 35.4233C30.8636 35.5809 30.6309 35.717 30.373 35.8315C30.1224 35.9461 29.861 36.0392 29.5889 36.1108C29.3167 36.1825 29.041 36.2326 28.7617 36.2612C28.4896 36.297 28.2246 36.3149 27.9668 36.3149C27.7161 36.3149 27.4548 36.297 27.1826 36.2612C26.9105 36.2326 26.6527 36.1968 26.4092 36.1538C26.2803 36.1323 26.1585 36.1001 26.0439 36.0571C25.9365 36.007 25.8255 35.9604 25.7109 35.9175C25.6035 35.8674 25.4889 35.828 25.3672 35.7993C25.2454 35.7635 25.1165 35.7456 24.9805 35.7456ZM38.3867 31.062C38.3652 31.062 38.3115 31.0835 38.2256 31.1265C38.1468 31.1694 38.0609 31.2196 37.9678 31.2769C37.8818 31.327 37.7959 31.3807 37.71 31.438C37.6312 31.4881 37.5775 31.5239 37.5488 31.5454C37.5345 31.5669 37.4915 31.6134 37.4199 31.6851C37.3483 31.7567 37.2695 31.8354 37.1836 31.9214C37.1048 32.0002 37.0296 32.0754 36.958 32.147C36.8864 32.2186 36.8434 32.2651 36.8291 32.2866C36.8005 32.2866 36.7646 32.3009 36.7217 32.3296L36.6572 32.3618C36.6214 32.3976 36.5713 32.4836 36.5068 32.6196C36.4424 32.7485 36.3887 32.8846 36.3457 33.0278C36.2956 33.1711 36.2669 33.2785 36.2598 33.3501C36.2526 33.4217 36.249 33.5184 36.249 33.6401C36.249 33.8192 36.2705 33.9839 36.3135 34.1343C36.3564 34.2847 36.471 34.4064 36.6572 34.4995C36.6859 34.5138 36.7253 34.5317 36.7754 34.5532C36.8327 34.5675 36.8864 34.5819 36.9365 34.5962C36.9938 34.6105 37.0439 34.6248 37.0869 34.6392C37.1299 34.6463 37.1621 34.6499 37.1836 34.6499C37.2194 34.6499 37.266 34.6499 37.3232 34.6499C37.3805 34.6427 37.4414 34.6356 37.5059 34.6284C37.5703 34.6213 37.6276 34.6141 37.6777 34.6069C37.735 34.5998 37.778 34.5926 37.8066 34.5854C38.0716 34.5282 38.2829 34.4422 38.4404 34.3276C38.598 34.2059 38.709 34.0161 38.7734 33.7583C38.7878 33.6938 38.8092 33.6115 38.8379 33.5112C38.8665 33.4038 38.8916 33.3 38.9131 33.1997C38.9417 33.0923 38.9668 32.9992 38.9883 32.9204C39.0098 32.8345 39.0205 32.7843 39.0205 32.77C39.0348 32.77 39.042 32.7557 39.042 32.7271C39.0492 32.6912 39.0527 32.6698 39.0527 32.6626C39.0527 32.6411 39.0492 32.616 39.042 32.5874C39.042 32.5516 39.0348 32.5265 39.0205 32.5122C39.0062 32.4621 38.9954 32.4155 38.9883 32.3726C38.9811 32.3368 38.974 32.3009 38.9668 32.2651C38.9668 32.2293 38.9668 32.2043 38.9668 32.1899V31.7817C38.9525 31.7173 38.9274 31.6457 38.8916 31.5669C38.8558 31.481 38.8128 31.4022 38.7627 31.3306C38.7197 31.2518 38.666 31.1873 38.6016 31.1372C38.5371 31.0871 38.4655 31.062 38.3867 31.062ZM34.2939 34.1665C34.2939 33.9875 34.3154 33.7798 34.3584 33.5435C34.4014 33.3 34.4873 33.0994 34.6162 32.9419C34.6234 32.9347 34.6556 32.8989 34.7129 32.8345C34.7773 32.77 34.849 32.6984 34.9277 32.6196C35.0065 32.5337 35.0853 32.4513 35.1641 32.3726C35.25 32.2938 35.3145 32.2329 35.3574 32.1899C35.5866 31.9823 35.8301 31.7925 36.0879 31.6206C36.3457 31.4416 36.6107 31.284 36.8828 31.1479C36.9186 31.1336 36.9795 31.1193 37.0654 31.105C37.1585 31.0907 37.2158 31.0763 37.2373 31.062C37.2588 31.0549 37.2982 31.0369 37.3555 31.0083C37.4199 30.9725 37.488 30.9367 37.5596 30.9009C37.6312 30.8579 37.6956 30.8221 37.7529 30.7935C37.8174 30.7576 37.8568 30.7397 37.8711 30.7397C37.9928 30.6825 38.1038 30.6359 38.2041 30.6001C38.3115 30.5643 38.4118 30.5249 38.5049 30.4819C38.598 30.439 38.6875 30.3888 38.7734 30.3315C38.8594 30.2671 38.9417 30.1812 39.0205 30.0737C39.0348 30.0451 39.0456 29.995 39.0527 29.9233C39.0671 29.8446 39.0778 29.7622 39.085 29.6763C39.0921 29.5832 39.0957 29.4972 39.0957 29.4185C39.1029 29.3325 39.1064 29.2716 39.1064 29.2358C39.1064 29.064 39.1029 28.8921 39.0957 28.7202C39.0885 28.5412 39.0599 28.3729 39.0098 28.2153C38.9668 28.0506 38.8952 27.9038 38.7949 27.7749C38.7018 27.6388 38.5658 27.5314 38.3867 27.4526C38.3724 27.4455 38.3402 27.4347 38.29 27.4204C38.2399 27.4061 38.1862 27.3918 38.1289 27.3774C38.0716 27.356 38.0179 27.3381 37.9678 27.3237C37.9176 27.3094 37.8854 27.3022 37.8711 27.3022C37.8711 27.2951 37.8568 27.2843 37.8281 27.27C37.7995 27.2557 37.7673 27.2414 37.7314 27.2271C37.6956 27.2056 37.6598 27.1912 37.624 27.1841C37.5882 27.1698 37.5632 27.159 37.5488 27.1519H37.4951C37.402 27.1519 37.3304 27.1626 37.2803 27.1841C37.2301 27.2056 37.1657 27.245 37.0869 27.3022C37.0583 27.3166 37.0225 27.3345 36.9795 27.356C36.9365 27.3774 36.8936 27.4025 36.8506 27.4312C36.8076 27.4598 36.7682 27.4849 36.7324 27.5063C36.7038 27.5207 36.6859 27.5278 36.6787 27.5278C36.6644 27.5422 36.6465 27.5708 36.625 27.6138C36.6035 27.6496 36.582 27.6925 36.5605 27.7427C36.5462 27.7856 36.5319 27.8286 36.5176 27.8716C36.5033 27.9074 36.4961 27.9289 36.4961 27.936C36.4889 27.9504 36.4818 27.979 36.4746 28.022C36.4674 28.0578 36.4603 28.1007 36.4531 28.1509C36.446 28.1938 36.4388 28.2368 36.4316 28.2798C36.4245 28.3156 36.4209 28.3371 36.4209 28.3442C36.4209 28.3657 36.4066 28.4123 36.3779 28.4839C36.3493 28.5483 36.3242 28.5877 36.3027 28.6021C36.2741 28.7596 36.2526 28.8921 36.2383 28.9995C36.2311 29.1069 36.2061 29.1929 36.1631 29.2573C36.1201 29.3218 36.0521 29.3683 35.959 29.397C35.873 29.4185 35.7406 29.4292 35.5615 29.4292C35.3968 29.4292 35.2357 29.4256 35.0781 29.4185C34.9277 29.4113 34.7917 29.3862 34.6699 29.3433C34.5553 29.2931 34.4622 29.2179 34.3906 29.1177C34.319 29.0103 34.2832 28.8634 34.2832 28.6772C34.2832 28.5985 34.2868 28.5125 34.2939 28.4194C34.3011 28.3263 34.3262 28.2476 34.3691 28.1831C34.3763 28.1759 34.3942 28.158 34.4229 28.1294C34.4515 28.0936 34.4837 28.0578 34.5195 28.022C34.5553 27.9862 34.5876 27.9539 34.6162 27.9253C34.652 27.8966 34.6771 27.8752 34.6914 27.8608C35.3073 27.4025 35.9482 27.0301 36.6143 26.7437C37.2874 26.45 38.0072 26.3032 38.7734 26.3032C38.9525 26.3032 39.1315 26.314 39.3105 26.3354C39.4967 26.3569 39.6758 26.3999 39.8477 26.4644C40.0195 26.5216 40.1771 26.604 40.3203 26.7114C40.4635 26.8188 40.5817 26.9549 40.6748 27.1196C40.6963 27.1626 40.7214 27.2199 40.75 27.2915C40.7858 27.3631 40.8216 27.4347 40.8574 27.5063C40.8932 27.578 40.9219 27.6388 40.9434 27.689C40.972 27.7391 40.9863 27.7677 40.9863 27.7749C40.9935 27.7964 41.0007 27.8501 41.0078 27.936C41.015 28.0148 41.0221 28.1007 41.0293 28.1938C41.0365 28.2798 41.0436 28.3657 41.0508 28.4517C41.0579 28.5304 41.0615 28.5806 41.0615 28.6021C41.0615 28.6235 41.0758 28.6558 41.1045 28.6987C41.1188 28.7202 41.1367 28.7381 41.1582 28.7524C41.1654 28.7524 41.1689 28.7703 41.1689 28.8062V28.8169C41.1618 28.8241 41.1582 28.8276 41.1582 28.8276C41.1081 28.9924 41.0758 29.1571 41.0615 29.3218C41.0472 29.4865 41.0221 29.6584 40.9863 29.8374C40.9863 29.8446 40.9756 29.8947 40.9541 29.9878C40.9398 30.0809 40.9326 30.1418 40.9326 30.1704C40.9183 30.1776 40.9111 30.2456 40.9111 30.3745C40.9111 30.4891 40.9147 30.6073 40.9219 30.729C40.929 30.8507 40.9326 30.9295 40.9326 30.9653C40.9326 30.9797 40.9255 31.0083 40.9111 31.0513C40.904 31.0871 40.8932 31.13 40.8789 31.1802C40.8717 31.2231 40.861 31.2661 40.8467 31.3091C40.8395 31.3449 40.8359 31.3664 40.8359 31.3735C40.8359 31.395 40.8288 31.4953 40.8145 31.6743C40.8001 31.8534 40.7822 32.061 40.7607 32.2974C40.7464 32.5265 40.7285 32.7629 40.707 33.0063C40.6927 33.2427 40.682 33.436 40.6748 33.5864V33.6294V33.6938C40.6748 33.7225 40.6784 33.7798 40.6855 33.8657C40.6927 33.9445 40.6999 34.0304 40.707 34.1235C40.7142 34.2166 40.7214 34.3062 40.7285 34.3921C40.7357 34.478 40.7428 34.5425 40.75 34.5854C40.8503 34.7 40.9756 34.7824 41.126 34.8325C41.2764 34.8826 41.416 34.9077 41.5449 34.9077C41.6882 34.9077 41.8135 34.8898 41.9209 34.854C42.0355 34.8182 42.1536 34.8003 42.2754 34.8003C42.2897 34.8003 42.3327 34.8039 42.4043 34.811C42.4831 34.811 42.5332 34.811 42.5547 34.811C42.6263 34.8468 42.6693 34.8898 42.6836 34.9399C42.7051 34.9901 42.7158 35.0545 42.7158 35.1333C42.7158 35.1405 42.7158 35.1548 42.7158 35.1763C42.7158 35.1978 42.7087 35.2085 42.6943 35.2085L41.9531 35.9712L41.8672 36.0142C41.7956 36.0428 41.749 36.0571 41.7275 36.0571C41.7061 36.0571 41.6523 36.0607 41.5664 36.0679C41.4805 36.075 41.3874 36.0822 41.2871 36.0894C41.1868 36.0965 41.0902 36.1037 40.9971 36.1108C40.9111 36.118 40.8574 36.1252 40.8359 36.1323C40.8216 36.1323 40.7858 36.1395 40.7285 36.1538C40.6712 36.161 40.6104 36.1717 40.5459 36.186C40.4814 36.1932 40.4206 36.2004 40.3633 36.2075C40.3132 36.2147 40.2809 36.2147 40.2666 36.2075C40.2523 36.2075 40.2236 36.2039 40.1807 36.1968C40.1449 36.1825 40.1019 36.1681 40.0518 36.1538C40.0016 36.1323 39.9515 36.1144 39.9014 36.1001C39.8512 36.0858 39.8118 36.0715 39.7832 36.0571C39.6686 36.0142 39.554 35.9569 39.4395 35.8853C39.3249 35.8136 39.2389 35.7277 39.1816 35.6274C39.1387 35.5487 39.1029 35.4627 39.0742 35.3696C39.0527 35.2694 39.0241 35.1799 38.9883 35.1011C38.9596 35.0151 38.9167 34.9435 38.8594 34.8862C38.8021 34.8289 38.7126 34.8003 38.5908 34.8003C38.5837 34.8003 38.5765 34.8039 38.5693 34.811C38.5693 34.811 38.5658 34.811 38.5586 34.811H38.5371C38.3581 34.9256 38.2148 35.0581 38.1074 35.2085C38.0072 35.3589 37.8818 35.4985 37.7314 35.6274C37.6097 35.7277 37.4844 35.8136 37.3555 35.8853C37.2337 35.9497 37.1084 36.0321 36.9795 36.1323C36.9437 36.1466 36.8792 36.161 36.7861 36.1753C36.7002 36.1896 36.6035 36.2039 36.4961 36.2183C36.3958 36.2397 36.2956 36.2541 36.1953 36.2612C36.1022 36.2756 36.0342 36.2827 35.9912 36.2827C35.9697 36.2827 35.9339 36.2791 35.8838 36.272C35.8337 36.272 35.7764 36.2684 35.7119 36.2612C35.6546 36.2541 35.5973 36.2433 35.54 36.229C35.4899 36.2218 35.4541 36.2147 35.4326 36.2075C35.4183 36.2075 35.3932 36.1968 35.3574 36.1753C35.3288 36.1466 35.2965 36.118 35.2607 36.0894C35.2249 36.0607 35.1891 36.0356 35.1533 36.0142C35.1247 35.9855 35.1068 35.9712 35.0996 35.9712C34.7845 35.7563 34.5697 35.4914 34.4551 35.1763C34.3477 34.8612 34.2939 34.5246 34.2939 34.1665ZM47.7324 27.0874H47.5498C47.2777 27.0874 47.002 27.134 46.7227 27.2271C46.4434 27.3201 46.2285 27.4813 46.0781 27.7104C46.0566 27.7534 46.0208 27.8179 45.9707 27.9038C45.9277 27.9826 45.8848 28.0649 45.8418 28.1509C45.7988 28.2368 45.7594 28.3192 45.7236 28.3979C45.6878 28.4696 45.6699 28.5161 45.6699 28.5376C45.6699 28.5376 45.6628 28.5949 45.6484 28.7095C45.6413 28.8241 45.627 28.9601 45.6055 29.1177C45.5911 29.2752 45.5732 29.4399 45.5518 29.6118C45.5374 29.7765 45.5231 29.9126 45.5088 30.02C45.5088 30.0415 45.5088 30.0881 45.5088 30.1597C45.516 30.2241 45.5195 30.2922 45.5195 30.3638C45.5195 30.4354 45.5195 30.5034 45.5195 30.5679C45.5267 30.6252 45.5303 30.6646 45.5303 30.686C45.5374 30.7362 45.541 30.797 45.541 30.8687C45.541 30.9331 45.541 30.9725 45.541 30.9868C45.5482 31.0871 45.5553 31.1981 45.5625 31.3198C45.5697 31.4344 45.5768 31.549 45.584 31.6636C45.5983 31.771 45.609 31.8748 45.6162 31.9751C45.6305 32.0682 45.6484 32.147 45.6699 32.2114C45.6771 32.2257 45.6914 32.2616 45.7129 32.3188C45.7415 32.3761 45.7666 32.4406 45.7881 32.5122C45.8167 32.5767 45.8418 32.6375 45.8633 32.6948C45.8919 32.7521 45.9098 32.7843 45.917 32.7915C46.0101 33.0422 46.1139 33.3035 46.2285 33.5757C46.3431 33.8478 46.4827 34.0985 46.6475 34.3276C46.8122 34.5568 47.0055 34.7466 47.2275 34.897C47.4495 35.0402 47.7181 35.1118 48.0332 35.1118C48.0547 35.1118 48.0726 35.1047 48.0869 35.0903L48.1084 35.0688C48.1156 35.0688 48.1406 35.0653 48.1836 35.0581C48.2266 35.0438 48.2731 35.0295 48.3232 35.0151C48.3805 35.0008 48.4342 34.9865 48.4844 34.9722C48.5417 34.9578 48.5882 34.9471 48.624 34.9399C48.6742 34.9185 48.7422 34.8934 48.8281 34.8647C48.9141 34.8289 49 34.7931 49.0859 34.7573C49.179 34.7215 49.2578 34.6893 49.3223 34.6606C49.3939 34.632 49.4368 34.6141 49.4512 34.6069C49.5872 34.521 49.6947 34.4207 49.7734 34.3062C49.8522 34.1844 49.9059 34.0555 49.9346 33.9194C49.9704 33.7762 49.9919 33.633 49.999 33.4897C50.0062 33.3465 50.0098 33.2069 50.0098 33.0708V32.7915C50.0026 32.7843 49.9954 32.7664 49.9883 32.7378C49.9811 32.7091 49.974 32.6769 49.9668 32.6411C49.9596 32.6053 49.9525 32.5731 49.9453 32.5444C49.9382 32.5086 49.9346 32.4836 49.9346 32.4692V31.7495V30.9868C49.9704 30.9295 49.9919 30.8687 49.999 30.8042C50.0133 30.7397 50.0205 30.6753 50.0205 30.6108C50.0205 30.5464 50.0169 30.4891 50.0098 30.439C50.0098 30.3817 50.0098 30.3351 50.0098 30.2993C50.0098 29.9914 49.9954 29.6834 49.9668 29.3755C49.9382 29.0675 49.8952 28.7668 49.8379 28.4731C49.8379 28.4588 49.8343 28.4445 49.8271 28.4302C49.82 28.4087 49.8128 28.3908 49.8057 28.3765L49.7842 28.312C49.7484 28.2834 49.7018 28.2404 49.6445 28.1831C49.5872 28.1258 49.5264 28.0685 49.4619 28.0112C49.4046 27.9468 49.3473 27.8895 49.29 27.8394C49.2399 27.7821 49.2041 27.7391 49.1826 27.7104C49.1611 27.7104 49.1361 27.6997 49.1074 27.6782L49.043 27.6353C49.0286 27.6353 49.0072 27.6245 48.9785 27.603C48.957 27.5815 48.932 27.5565 48.9033 27.5278C48.8747 27.4992 48.846 27.4741 48.8174 27.4526C48.7959 27.424 48.7816 27.4061 48.7744 27.3989C48.7529 27.3846 48.7207 27.3667 48.6777 27.3452C48.6348 27.3237 48.5846 27.3022 48.5273 27.2808C48.4772 27.2521 48.4271 27.2271 48.377 27.2056C48.334 27.1841 48.3018 27.1662 48.2803 27.1519C48.18 27.116 48.0869 27.0981 48.001 27.0981C47.9222 27.091 47.8327 27.0874 47.7324 27.0874ZM45.9922 36.0786C45.8275 35.9282 45.6556 35.7886 45.4766 35.6597C45.2975 35.5236 45.1149 35.3911 44.9287 35.2622C44.9215 35.2622 44.9036 35.255 44.875 35.2407C44.8535 35.2264 44.8285 35.2085 44.7998 35.187C44.7712 35.1655 44.7461 35.144 44.7246 35.1226C44.7031 35.1011 44.6924 35.0832 44.6924 35.0688C44.6781 35.0688 44.6494 35.0438 44.6064 34.9937C44.5635 34.9364 44.5133 34.8755 44.4561 34.811C44.4059 34.7394 44.3558 34.6714 44.3057 34.6069C44.2627 34.5425 44.2305 34.4924 44.209 34.4565C44.1087 34.3133 44.0514 34.1486 44.0371 33.9624C44.0228 33.7762 43.9941 33.6079 43.9512 33.4575C43.944 33.4504 43.9333 33.4325 43.9189 33.4038C43.9046 33.368 43.8867 33.3322 43.8652 33.2964C43.8509 33.2534 43.8366 33.2176 43.8223 33.189C43.8079 33.1532 43.8008 33.1317 43.8008 33.1245C43.7793 33.0959 43.7542 33.0565 43.7256 33.0063C43.6969 32.9491 43.6826 32.9132 43.6826 32.8989C43.6826 32.8774 43.679 32.8309 43.6719 32.7593C43.6647 32.6877 43.6576 32.6125 43.6504 32.5337C43.6504 32.4478 43.6468 32.3726 43.6396 32.3081C43.6325 32.2365 43.6289 32.1935 43.6289 32.1792C43.6217 32.1649 43.6146 32.1398 43.6074 32.104C43.6074 32.0682 43.6038 32.0324 43.5967 31.9966C43.5967 31.9536 43.5967 31.9178 43.5967 31.8892C43.5967 31.8534 43.5967 31.8319 43.5967 31.8247V31.6958V31.5776C43.5967 31.549 43.5967 31.506 43.5967 31.4487C43.6038 31.3843 43.6146 31.3485 43.6289 31.3413V31.1479C43.6289 31.1193 43.6325 31.0656 43.6396 30.9868C43.6468 30.908 43.6504 30.8257 43.6504 30.7397C43.6576 30.6538 43.6647 30.575 43.6719 30.5034C43.679 30.4246 43.6826 30.3745 43.6826 30.353C43.7399 30.0594 43.8044 29.7729 43.876 29.4937C43.9476 29.2144 44.0407 28.9458 44.1553 28.688C44.2699 28.4302 44.4095 28.1867 44.5742 27.9575C44.7389 27.7284 44.943 27.5171 45.1865 27.3237C45.2581 27.2593 45.3333 27.1984 45.4121 27.1411C45.4909 27.0767 45.5768 27.0194 45.6699 26.9692C45.7129 26.9621 45.7523 26.9549 45.7881 26.9478C45.8167 26.9406 45.8418 26.9334 45.8633 26.9263C45.8919 26.9191 45.9098 26.9155 45.917 26.9155C45.9242 26.9012 45.9421 26.8761 45.9707 26.8403C46.0065 26.8045 46.0387 26.7687 46.0674 26.7329C46.1032 26.6899 46.1354 26.6541 46.1641 26.6255C46.1999 26.5897 46.2214 26.5682 46.2285 26.561C46.3145 26.5037 46.4255 26.4608 46.5615 26.4321C46.7048 26.3963 46.8551 26.3713 47.0127 26.3569C47.1702 26.3426 47.3206 26.3354 47.4639 26.3354C47.6143 26.3283 47.736 26.3247 47.8291 26.3247C48.1084 26.3247 48.3841 26.339 48.6562 26.3677C48.9355 26.3963 49.2256 26.4106 49.5264 26.4106H49.8379C49.8952 26.3892 49.9382 26.3498 49.9668 26.2925C50.0026 26.2352 50.0277 26.1743 50.042 26.1099C50.0563 26.0454 50.0635 25.981 50.0635 25.9165C50.0706 25.8521 50.0742 25.8019 50.0742 25.7661V24.5415C50.0742 24.5272 50.0778 24.4985 50.085 24.4556C50.0993 24.4126 50.1136 24.3696 50.1279 24.3267C50.1494 24.2765 50.1637 24.2336 50.1709 24.1978C50.1852 24.1548 50.1924 24.1261 50.1924 24.1118V23.7358V23.3062C50.1781 23.256 50.1637 23.1701 50.1494 23.0483C50.1423 22.9194 50.1315 22.7869 50.1172 22.6509C50.11 22.5148 50.1029 22.3859 50.0957 22.2642C50.0885 22.1424 50.0814 22.0565 50.0742 22.0063C50.0671 21.9849 50.0456 21.9562 50.0098 21.9204C49.974 21.8774 49.9346 21.8345 49.8916 21.7915C49.8486 21.7485 49.8057 21.7091 49.7627 21.6733C49.7197 21.6304 49.6839 21.5981 49.6553 21.5767C49.6051 21.5122 49.5264 21.4764 49.4189 21.4692C49.3187 21.4549 49.2399 21.4442 49.1826 21.437C49.1611 21.4227 49.1146 21.3976 49.043 21.3618C48.9714 21.326 48.8962 21.2902 48.8174 21.2544C48.7386 21.2186 48.6598 21.1864 48.5811 21.1577C48.5094 21.1291 48.4629 21.1112 48.4414 21.104V21.0396C48.4414 20.9751 48.4915 20.9035 48.5918 20.8247C48.6921 20.7388 48.7852 20.6886 48.8711 20.6743H49.1826C49.1969 20.6743 49.222 20.6636 49.2578 20.6421C49.3008 20.6134 49.333 20.5991 49.3545 20.5991H49.5908C49.863 20.5705 50.1494 20.5239 50.4502 20.4595C50.751 20.3879 51.041 20.327 51.3203 20.2769C51.3346 20.2769 51.3597 20.2661 51.3955 20.2446C51.4313 20.216 51.4564 20.1981 51.4707 20.1909H51.5244H51.5674C51.5674 20.1981 51.5889 20.2124 51.6318 20.2339C51.682 20.2482 51.7214 20.2625 51.75 20.2769C51.8073 20.3127 51.8682 20.3556 51.9326 20.4058C51.9971 20.4487 52.0365 20.5132 52.0508 20.5991V21.104C52.0508 21.104 52.0544 21.1255 52.0615 21.1685C52.0687 21.2043 52.0758 21.2472 52.083 21.2974C52.0973 21.3403 52.1081 21.3833 52.1152 21.4263C52.1296 21.4692 52.1367 21.4979 52.1367 21.5122V22.103V22.6616C52.1296 22.6688 52.1152 22.6903 52.0938 22.7261C52.0794 22.7547 52.0615 22.7869 52.04 22.8228C52.0186 22.8514 52.0007 22.8836 51.9863 22.9194C51.972 22.9481 51.9613 22.966 51.9541 22.9731V23.0161C51.9541 23.1092 51.9684 23.1916 51.9971 23.2632C52.0329 23.3348 52.0508 23.4136 52.0508 23.4995V23.6499C52.0508 23.6642 52.0472 23.7072 52.04 23.7788C52.0329 23.8504 52.0221 23.9292 52.0078 24.0151C52.0007 24.1011 51.9899 24.1799 51.9756 24.2515C51.9684 24.3231 51.9613 24.3696 51.9541 24.3911C51.9541 24.4198 51.9541 24.4842 51.9541 24.5845C51.9613 24.6776 51.9648 24.7922 51.9648 24.9282C51.9648 25.0571 51.9648 25.1968 51.9648 25.3472C51.972 25.4976 51.9756 25.6408 51.9756 25.7769C51.9756 25.9201 51.972 26.0418 51.9648 26.1421C51.9577 26.2424 51.9541 26.3068 51.9541 26.3354C51.9541 26.3641 51.9469 26.4393 51.9326 26.561C51.9183 26.6756 51.9004 26.8045 51.8789 26.9478C51.8646 27.0838 51.8503 27.2127 51.8359 27.3345C51.8216 27.4491 51.8109 27.5207 51.8037 27.5493V27.6997V27.8286C51.8109 27.8501 51.8216 27.8931 51.8359 27.9575C51.8503 28.022 51.8646 28.0936 51.8789 28.1724C51.8932 28.244 51.9076 28.3156 51.9219 28.3872C51.9362 28.4588 51.9469 28.509 51.9541 28.5376V30.9116C51.9541 30.9403 51.9398 30.9868 51.9111 31.0513C51.8896 31.1157 51.8789 31.1551 51.8789 31.1694V31.2446V31.3413C51.8789 31.37 51.8896 31.4237 51.9111 31.5024C51.9398 31.5812 51.9541 31.6242 51.9541 31.6313V34.3491C51.9541 34.5138 52.015 34.6571 52.1367 34.7788C52.2585 34.9006 52.391 34.9793 52.5342 35.0151C52.5986 35.0295 52.6595 35.0366 52.7168 35.0366C52.7741 35.0366 52.8421 35.0366 52.9209 35.0366C53.0355 35.0366 53.1429 35.0545 53.2432 35.0903C53.3506 35.119 53.4401 35.2049 53.5117 35.3481C53.5046 35.3696 53.4688 35.409 53.4043 35.4663C53.3398 35.5236 53.304 35.5666 53.2969 35.5952C53.2396 35.631 53.1715 35.6776 53.0928 35.7349C53.014 35.7922 52.971 35.8244 52.9639 35.8315C52.9424 35.8387 52.8923 35.8459 52.8135 35.853C52.7347 35.8602 52.6452 35.8674 52.5449 35.8745C52.4518 35.8817 52.3659 35.8888 52.2871 35.896C52.2083 35.9032 52.1582 35.9067 52.1367 35.9067C52.0293 35.9211 51.9326 35.9497 51.8467 35.9927C51.7679 36.0285 51.6855 36.0679 51.5996 36.1108C51.5208 36.1466 51.4313 36.1789 51.3311 36.2075C51.238 36.2433 51.1234 36.2612 50.9873 36.2612C50.8298 36.2612 50.708 36.2326 50.6221 36.1753C50.5361 36.118 50.4645 36.0464 50.4072 35.9604C50.3571 35.8674 50.3177 35.7707 50.2891 35.6704C50.2604 35.563 50.2318 35.4663 50.2031 35.3804C50.1745 35.2873 50.1351 35.2121 50.085 35.1548C50.0348 35.0975 49.9632 35.0688 49.8701 35.0688H49.7842C49.4189 35.4985 49.0322 35.8136 48.624 36.0142C48.2158 36.2147 47.736 36.3149 47.1846 36.3149H47.1201C47.0843 36.3006 47.0127 36.2827 46.9053 36.2612C46.7979 36.2397 46.6833 36.2183 46.5615 36.1968C46.4398 36.1681 46.3252 36.1431 46.2178 36.1216C46.1104 36.1001 46.0352 36.0858 45.9922 36.0786ZM55.209 21.7271C55.209 21.5695 55.2376 21.4191 55.2949 21.2759C55.3594 21.1326 55.4453 21.0073 55.5527 20.8999C55.6602 20.7925 55.7855 20.7065 55.9287 20.6421C56.0791 20.5776 56.2367 20.5454 56.4014 20.5454C56.5088 20.5454 56.6126 20.5705 56.7129 20.6206C56.8132 20.6707 56.9062 20.7352 56.9922 20.814C57.0853 20.8927 57.1676 20.9787 57.2393 21.0718C57.318 21.1577 57.3861 21.2365 57.4434 21.3081C57.4935 21.3439 57.5221 21.3976 57.5293 21.4692C57.5365 21.5409 57.54 21.616 57.54 21.6948C57.54 21.9097 57.4971 22.0923 57.4111 22.2427C57.3252 22.3859 57.2106 22.5076 57.0674 22.6079C56.9313 22.701 56.7738 22.7726 56.5947 22.8228C56.4157 22.8729 56.2331 22.9051 56.0469 22.9194C55.7962 22.7905 55.5921 22.633 55.4346 22.4468C55.2842 22.2606 55.209 22.0207 55.209 21.7271ZM54.4141 35.8208C54.4141 35.6489 54.4606 35.5379 54.5537 35.4878C54.6468 35.4377 54.7614 35.4054 54.8975 35.3911C55.0335 35.3768 55.1768 35.366 55.3271 35.3589C55.4847 35.3446 55.6208 35.2873 55.7354 35.187C55.7354 35.144 55.7389 35.0617 55.7461 34.9399C55.7533 34.8182 55.7568 34.6893 55.7568 34.5532C55.764 34.41 55.7712 34.2775 55.7783 34.1558C55.7855 34.034 55.7891 33.9481 55.7891 33.8979V32.5981C55.7891 32.5623 55.7891 32.4836 55.7891 32.3618C55.7962 32.2401 55.8034 32.1004 55.8105 31.9429C55.8249 31.7853 55.8356 31.617 55.8428 31.438C55.8499 31.259 55.8571 31.0907 55.8643 30.9331C55.8786 30.7756 55.8857 30.6395 55.8857 30.5249C55.8929 30.4103 55.8965 30.3351 55.8965 30.2993V28.9565C55.8965 28.9565 55.9001 28.9422 55.9072 28.9136C55.9144 28.8778 55.9215 28.8455 55.9287 28.8169C55.943 28.7811 55.9538 28.7489 55.9609 28.7202C55.9681 28.6844 55.9717 28.6665 55.9717 28.6665L55.9932 28.6235C55.9932 28.6092 55.9896 28.5985 55.9824 28.5913C55.9824 28.5841 55.9824 28.577 55.9824 28.5698C55.9753 28.5627 55.9717 28.5555 55.9717 28.5483C55.9717 28.5483 55.9609 28.5376 55.9395 28.5161C55.918 28.4875 55.8929 28.4588 55.8643 28.4302C55.8356 28.3944 55.807 28.3621 55.7783 28.3335C55.7568 28.2977 55.7425 28.2726 55.7354 28.2583C55.6637 28.158 55.5527 28.0864 55.4023 28.0435C55.2591 27.9933 55.1123 27.9468 54.9619 27.9038C54.8187 27.8608 54.6898 27.8107 54.5752 27.7534C54.4678 27.689 54.4141 27.5959 54.4141 27.4741C54.4141 27.3953 54.4535 27.3309 54.5322 27.2808C54.6182 27.2235 54.6898 27.1877 54.7471 27.1733C54.7686 27.1662 54.8223 27.1554 54.9082 27.1411C54.9941 27.1268 55.0872 27.1125 55.1875 27.0981C55.2949 27.0838 55.3916 27.0695 55.4775 27.0552C55.5635 27.0337 55.6172 27.0194 55.6387 27.0122C55.6458 27.005 55.6709 26.9943 55.7139 26.98C55.7568 26.9657 55.7998 26.9513 55.8428 26.937C55.8929 26.9155 55.9359 26.8976 55.9717 26.8833C56.0146 26.869 56.0397 26.8618 56.0469 26.8618C56.1113 26.8403 56.2188 26.8153 56.3691 26.7866C56.5195 26.758 56.6377 26.7222 56.7236 26.6792C56.7952 26.6434 56.8561 26.6076 56.9062 26.5718C56.9635 26.5288 57.0173 26.493 57.0674 26.4644C57.1247 26.4285 57.182 26.4035 57.2393 26.3892C57.3037 26.3677 57.3789 26.3569 57.4648 26.3569C57.5938 26.3569 57.6904 26.4178 57.7549 26.5396C57.8193 26.6613 57.8516 26.7866 57.8516 26.9155C57.8516 27.1232 57.8337 27.3345 57.7979 27.5493C57.7692 27.757 57.7549 27.9683 57.7549 28.1831C57.7549 28.3621 57.7585 28.5197 57.7656 28.6558C57.7728 28.7847 57.8014 28.953 57.8516 29.1606V33.5542C57.8587 33.5757 57.8659 33.6043 57.873 33.6401C57.8874 33.6759 57.8945 33.7153 57.8945 33.7583C57.9017 33.8013 57.9089 33.8442 57.916 33.8872C57.9232 33.923 57.9339 33.9481 57.9482 33.9624V34.0161V34.0698C57.9482 34.0841 57.9447 34.1092 57.9375 34.145C57.9303 34.1808 57.9232 34.2238 57.916 34.2739C57.9089 34.3169 57.8981 34.3599 57.8838 34.4028C57.8695 34.4386 57.8587 34.4637 57.8516 34.478V34.5747C57.8516 34.5962 57.8587 34.6463 57.873 34.7251C57.8874 34.8039 57.9053 34.8898 57.9268 34.9829C57.9554 35.076 57.984 35.1619 58.0127 35.2407C58.0413 35.3123 58.07 35.3553 58.0986 35.3696C58.1058 35.384 58.1237 35.3911 58.1523 35.3911C58.181 35.3911 58.2061 35.3911 58.2275 35.3911C58.2705 35.3911 58.3099 35.3875 58.3457 35.3804C58.3887 35.3732 58.4173 35.3696 58.4316 35.3696C58.4388 35.384 58.4746 35.4019 58.5391 35.4233C58.6107 35.4377 58.6536 35.4448 58.668 35.4448C58.6895 35.4591 58.7324 35.4699 58.7969 35.4771C58.8613 35.4842 58.9258 35.4914 58.9902 35.4985C59.0618 35.4985 59.1299 35.5057 59.1943 35.52C59.2588 35.5272 59.3018 35.5343 59.3232 35.5415C59.402 35.5558 59.4521 35.606 59.4736 35.6919C59.4951 35.7778 59.5059 35.8494 59.5059 35.9067C59.5059 36.0213 59.4593 36.1073 59.3662 36.1646C59.2731 36.2147 59.1764 36.2469 59.0762 36.2612H58.2061H57.2715C57.2572 36.2612 57.2214 36.2576 57.1641 36.2505C57.1139 36.2433 57.0566 36.2326 56.9922 36.2183C56.9349 36.2111 56.8776 36.2039 56.8203 36.1968C56.7702 36.1825 56.738 36.1753 56.7236 36.1753H56.627C56.4336 36.1753 56.2295 36.1896 56.0146 36.2183C55.807 36.2469 55.5957 36.2612 55.3809 36.2612H54.8223C54.8079 36.2469 54.7578 36.2218 54.6719 36.186C54.5931 36.1502 54.5394 36.1252 54.5107 36.1108C54.4749 36.0822 54.4499 36.0535 54.4355 36.0249C54.4212 35.9891 54.4141 35.9569 54.4141 35.9282V35.8208ZM65.8223 27.7749C65.8223 27.5815 65.7829 27.4419 65.7041 27.356C65.6253 27.27 65.5358 27.2056 65.4355 27.1626C65.3424 27.1196 65.2565 27.0802 65.1777 27.0444C65.099 27.0086 65.0596 26.9478 65.0596 26.8618C65.0596 26.7974 65.0775 26.7472 65.1133 26.7114C65.1562 26.6685 65.2064 26.6326 65.2637 26.604C65.321 26.5754 65.3783 26.5575 65.4355 26.5503C65.5 26.536 65.5537 26.5288 65.5967 26.5288C65.6969 26.5288 65.7936 26.5431 65.8867 26.5718C65.9798 26.6004 66.0837 26.6147 66.1982 26.6147H66.3057C66.6423 26.5575 66.9717 26.5037 67.2939 26.4536C67.6162 26.4035 67.9492 26.3784 68.293 26.3784C68.3932 26.3784 68.4935 26.3892 68.5938 26.4106C68.7012 26.4321 68.7549 26.4823 68.7549 26.561V26.6147C68.7191 26.6792 68.6868 26.7222 68.6582 26.7437C68.6296 26.7651 68.6009 26.783 68.5723 26.7974C68.5508 26.8045 68.5186 26.8117 68.4756 26.8188C68.4398 26.826 68.3932 26.8403 68.3359 26.8618C68.2285 26.9191 68.1104 26.98 67.9814 27.0444C67.8525 27.1017 67.7201 27.1662 67.584 27.2378C67.4479 27.3094 67.3154 27.381 67.1865 27.4526C67.0648 27.5243 66.9574 27.5994 66.8643 27.6782C66.8499 27.6854 66.8213 27.7104 66.7783 27.7534C66.7425 27.7964 66.7031 27.8429 66.6602 27.8931C66.6172 27.936 66.5742 27.9826 66.5312 28.0327C66.4954 28.0757 66.4704 28.1007 66.4561 28.1079C66.4417 28.1079 66.3988 28.133 66.3271 28.1831C66.2627 28.2332 66.2233 28.2619 66.209 28.269C66.2018 28.2905 66.1768 28.3263 66.1338 28.3765C66.0908 28.4194 66.055 28.466 66.0264 28.5161C66.0264 28.5304 66.0228 28.5376 66.0156 28.5376C66.0085 28.5376 66.0049 28.5412 66.0049 28.5483C65.9762 28.5913 65.9261 28.6593 65.8545 28.7524C65.7829 28.8384 65.7041 28.9279 65.6182 29.021C65.5394 29.1141 65.4606 29.2036 65.3818 29.2896C65.3102 29.3755 65.2529 29.4328 65.21 29.4614C65.1598 29.4972 65.1133 29.5402 65.0703 29.5903C65.0273 29.6333 64.988 29.6763 64.9521 29.7192C64.8949 29.798 64.8447 29.8768 64.8018 29.9556C64.766 30.0343 64.748 30.131 64.748 30.2456C64.748 30.2456 64.7588 30.2563 64.7803 30.2778C64.8018 30.2993 64.8268 30.3244 64.8555 30.353C64.8841 30.3817 64.9092 30.4067 64.9307 30.4282C64.9593 30.4497 64.9772 30.4604 64.9844 30.4604C64.9915 30.4748 65.013 30.4963 65.0488 30.5249C65.0846 30.5464 65.1204 30.5715 65.1562 30.6001C65.1921 30.6216 65.2243 30.6431 65.2529 30.6646C65.2816 30.686 65.2995 30.7004 65.3066 30.7075C65.3066 30.7218 65.3281 30.7612 65.3711 30.8257C65.4212 30.883 65.4535 30.9295 65.4678 30.9653C65.5322 31.0799 65.6074 31.1659 65.6934 31.2231C65.7865 31.2804 65.8796 31.3556 65.9727 31.4487C65.9798 31.4631 65.9941 31.4881 66.0156 31.5239C66.0443 31.5526 66.0693 31.5848 66.0908 31.6206C66.1195 31.6564 66.1445 31.6922 66.166 31.728C66.1947 31.7567 66.209 31.7746 66.209 31.7817C66.2305 31.8104 66.2663 31.8534 66.3164 31.9106C66.3665 31.9679 66.4167 32.0288 66.4668 32.0933C66.5169 32.1506 66.5635 32.2043 66.6064 32.2544C66.6494 32.3045 66.6781 32.3403 66.6924 32.3618L67.1006 32.77C67.1221 32.7843 67.1615 32.8345 67.2188 32.9204C67.2832 33.0063 67.3512 33.103 67.4229 33.2104C67.5016 33.3179 67.5697 33.4181 67.627 33.5112C67.6914 33.6043 67.7344 33.6652 67.7559 33.6938C67.763 33.701 67.7809 33.7189 67.8096 33.7476C67.8454 33.769 67.8812 33.7977 67.917 33.8335C67.96 33.8621 67.9958 33.8944 68.0244 33.9302C68.0531 33.9588 68.0674 33.9803 68.0674 33.9946C68.1462 34.0806 68.2214 34.1772 68.293 34.2847C68.3646 34.3921 68.4398 34.4888 68.5186 34.5747C68.5329 34.5819 68.5723 34.6105 68.6367 34.6606C68.7083 34.7036 68.7477 34.7251 68.7549 34.7251C68.762 34.7323 68.7907 34.7573 68.8408 34.8003C68.891 34.8361 68.9411 34.8791 68.9912 34.9292C69.0485 34.9722 69.0986 35.0151 69.1416 35.0581C69.1917 35.1011 69.224 35.1297 69.2383 35.144C69.2526 35.1584 69.292 35.1906 69.3564 35.2407C69.4209 35.2837 69.4889 35.3338 69.5605 35.3911C69.6393 35.4412 69.7109 35.4914 69.7754 35.5415C69.8398 35.5845 69.8792 35.6131 69.8936 35.6274C69.9508 35.6776 69.9867 35.717 70.001 35.7456C70.0153 35.7743 70.0225 35.8351 70.0225 35.9282C70.0225 36.0285 70.001 36.118 69.958 36.1968C69.915 36.2684 69.8327 36.3042 69.7109 36.3042C69.3887 36.3042 69.0664 36.2863 68.7441 36.2505C68.429 36.2218 68.1175 36.2075 67.8096 36.2075H67.2188C67.0182 36.2075 66.8249 36.2075 66.6387 36.2075C66.4525 36.2147 66.2555 36.2326 66.0479 36.2612C65.9476 36.2469 65.8617 36.2075 65.79 36.1431C65.7256 36.0715 65.6934 35.9748 65.6934 35.853C65.6934 35.8244 65.6969 35.7993 65.7041 35.7778C65.7041 35.7563 65.7077 35.7384 65.7148 35.7241C65.7435 35.7098 65.7972 35.6812 65.876 35.6382C65.9548 35.5952 66.012 35.5666 66.0479 35.5522C66.0693 35.5522 66.1051 35.5487 66.1553 35.5415C66.2126 35.5272 66.2734 35.5164 66.3379 35.5093C66.4023 35.495 66.4632 35.4842 66.5205 35.4771C66.5778 35.4699 66.6172 35.4663 66.6387 35.4663C66.6387 35.452 66.6458 35.4269 66.6602 35.3911C66.6816 35.3553 66.6924 35.3302 66.6924 35.3159C66.6924 35.2944 66.6888 35.2622 66.6816 35.2192C66.6745 35.1691 66.6673 35.119 66.6602 35.0688C66.6602 35.0116 66.6566 34.9614 66.6494 34.9185C66.6423 34.8683 66.6387 34.8325 66.6387 34.811C66.5957 34.7824 66.5312 34.7323 66.4453 34.6606C66.3665 34.5819 66.2806 34.4995 66.1875 34.4136C66.1016 34.3276 66.0192 34.2453 65.9404 34.1665C65.8688 34.0877 65.8187 34.0304 65.79 33.9946C65.7829 33.9803 65.765 33.9481 65.7363 33.8979C65.7077 33.8478 65.6755 33.7941 65.6396 33.7368C65.6038 33.6795 65.568 33.6294 65.5322 33.5864C65.5036 33.5363 65.4821 33.5041 65.4678 33.4897C65.3031 33.2964 65.1312 33.1138 64.9521 32.9419C64.7803 32.77 64.6227 32.5767 64.4795 32.3618C64.4508 32.3188 64.4079 32.2651 64.3506 32.2007C64.2933 32.1291 64.2288 32.0646 64.1572 32.0073C64.0856 31.9429 64.014 31.8892 63.9424 31.8462C63.8779 31.8032 63.8242 31.7817 63.7812 31.7817H63.7383C63.6953 31.8677 63.6523 31.9644 63.6094 32.0718C63.5664 32.172 63.5342 32.2687 63.5127 32.3618C63.5127 32.4191 63.5091 32.5194 63.502 32.6626C63.4948 32.7987 63.4876 32.9455 63.4805 33.103C63.4733 33.2606 63.4661 33.4074 63.459 33.5435C63.4518 33.6795 63.4482 33.7762 63.4482 33.8335V34.2417C63.4482 34.2489 63.4518 34.2703 63.459 34.3062C63.4661 34.3348 63.4733 34.367 63.4805 34.4028C63.4876 34.4386 63.4948 34.4744 63.502 34.5103C63.5091 34.5461 63.5127 34.5675 63.5127 34.5747C63.5127 34.589 63.5127 34.6248 63.5127 34.6821C63.5199 34.7394 63.527 34.8003 63.5342 34.8647C63.5413 34.9292 63.5485 34.9901 63.5557 35.0474C63.5628 35.0975 63.57 35.1297 63.5771 35.144C63.5986 35.1942 63.6488 35.2515 63.7275 35.3159C63.8063 35.3804 63.8887 35.4448 63.9746 35.5093C64.0677 35.5737 64.1465 35.6382 64.2109 35.7026C64.2826 35.7599 64.3184 35.8029 64.3184 35.8315V35.896C64.2253 36.0607 64.1035 36.1681 63.9531 36.2183C63.8027 36.2756 63.638 36.3042 63.459 36.3042C63.3158 36.3042 63.1689 36.297 63.0186 36.2827C62.8753 36.2684 62.7393 36.2612 62.6104 36.2612C62.5674 36.2756 62.4671 36.2863 62.3096 36.2935C62.1592 36.3078 61.9945 36.3221 61.8154 36.3364C61.6436 36.3507 61.4788 36.3615 61.3213 36.3687C61.1709 36.3758 61.0778 36.3794 61.042 36.3794H60.8809C60.7376 36.3794 60.6087 36.3507 60.4941 36.2935C60.3796 36.2362 60.3223 36.1466 60.3223 36.0249V35.896C60.3796 35.7957 60.4655 35.717 60.5801 35.6597C60.6947 35.6024 60.8092 35.5558 60.9238 35.52C61.0456 35.4842 61.153 35.452 61.2461 35.4233C61.3464 35.3947 61.4108 35.3589 61.4395 35.3159C61.5182 35.2157 61.5684 35.1047 61.5898 34.9829C61.6113 34.8612 61.6221 34.7358 61.6221 34.6069C61.6221 34.4924 61.6185 34.3885 61.6113 34.2954C61.6042 34.1951 61.6006 34.0949 61.6006 33.9946C61.6077 33.9803 61.6185 33.9481 61.6328 33.8979C61.6471 33.8407 61.6579 33.7798 61.665 33.7153C61.6722 33.6509 61.6794 33.59 61.6865 33.5327C61.6937 33.4754 61.6973 33.4396 61.6973 33.4253C61.7474 32.8882 61.7796 32.3511 61.7939 31.814C61.8154 31.2697 61.8298 30.729 61.8369 30.1919C61.8441 29.6476 61.8548 29.1069 61.8691 28.5698C61.8835 28.0256 61.9121 27.4849 61.9551 26.9478C61.9551 26.9334 61.9587 26.9048 61.9658 26.8618C61.973 26.8117 61.9801 26.758 61.9873 26.7007C62.0016 26.6434 62.0124 26.5933 62.0195 26.5503C62.0267 26.5002 62.0303 26.4679 62.0303 26.4536C62.0303 26.4465 62.0339 26.3856 62.041 26.271C62.0482 26.1493 62.0553 26.0132 62.0625 25.8628C62.0768 25.7052 62.0876 25.5441 62.0947 25.3794C62.1019 25.2147 62.1055 25.0822 62.1055 24.9819V24.8853C62.1055 24.8709 62.1019 24.8351 62.0947 24.7778C62.0876 24.7134 62.0768 24.6453 62.0625 24.5737C62.0553 24.5021 62.0482 24.4341 62.041 24.3696C62.0339 24.3052 62.0303 24.2622 62.0303 24.2407C62.0303 24.2121 62.0267 24.1799 62.0195 24.144C62.0124 24.1011 62.0088 24.0653 62.0088 24.0366C62.0088 23.9578 62.0124 23.8898 62.0195 23.8325C62.0267 23.7752 62.0303 23.7144 62.0303 23.6499C62.0303 23.4422 62.016 23.2345 61.9873 23.0269C61.9658 22.812 61.9014 22.6222 61.7939 22.4575C61.7581 22.3931 61.665 22.3286 61.5146 22.2642C61.3643 22.1925 61.2067 22.1245 61.042 22.0601C60.8844 21.9884 60.7412 21.9168 60.6123 21.8452C60.4834 21.7736 60.4189 21.7056 60.4189 21.6411C60.4189 21.6268 60.4225 21.5981 60.4297 21.5552C60.444 21.505 60.4583 21.4692 60.4727 21.4478C60.5299 21.369 60.6195 21.3188 60.7412 21.2974C60.8701 21.2687 60.9704 21.2472 61.042 21.2329C61.2139 21.1613 61.3857 21.0861 61.5576 21.0073C61.7295 20.9285 61.9014 20.8569 62.0732 20.7925C62.2523 20.7209 62.4313 20.6636 62.6104 20.6206C62.7965 20.5705 62.9827 20.5454 63.1689 20.5454C63.1976 20.5454 63.2406 20.549 63.2979 20.5562C63.3623 20.5633 63.4268 20.5776 63.4912 20.5991C63.5557 20.6206 63.613 20.6493 63.6631 20.6851C63.7132 20.7137 63.7383 20.7531 63.7383 20.8032V23.6606C63.7383 23.675 63.7347 23.7036 63.7275 23.7466C63.7275 23.7824 63.7204 23.8254 63.7061 23.8755C63.6989 23.9185 63.6846 23.9614 63.6631 24.0044C63.6416 24.0402 63.613 24.0688 63.5771 24.0903V25.229C63.6058 25.2505 63.6273 25.3436 63.6416 25.5083C63.6631 25.6659 63.681 25.8449 63.6953 26.0454C63.7096 26.2388 63.7204 26.425 63.7275 26.604C63.7347 26.783 63.7383 26.8976 63.7383 26.9478V27.1948C63.7383 27.202 63.7347 27.2271 63.7275 27.27C63.7204 27.3058 63.7096 27.3488 63.6953 27.3989C63.6882 27.4419 63.681 27.4849 63.6738 27.5278C63.6667 27.5708 63.6631 27.5959 63.6631 27.603C63.6559 27.6532 63.6523 27.7427 63.6523 27.8716C63.6523 27.9933 63.6523 28.1258 63.6523 28.269C63.6523 28.4051 63.6523 28.5376 63.6523 28.6665C63.6523 28.7882 63.6559 28.8742 63.6631 28.9243C63.6559 28.9386 63.6416 28.978 63.6201 29.0425C63.6058 29.1069 63.5915 29.1463 63.5771 29.1606V29.1821C63.5771 29.2251 63.5843 29.2788 63.5986 29.3433C63.613 29.4077 63.6273 29.4757 63.6416 29.5474C63.6631 29.6118 63.681 29.6763 63.6953 29.7407C63.7168 29.8052 63.7311 29.8553 63.7383 29.8911C63.7454 29.9198 63.7526 29.9735 63.7598 30.0522C63.7669 30.131 63.7741 30.2134 63.7812 30.2993C63.7956 30.3853 63.8063 30.4676 63.8135 30.5464C63.8278 30.6252 63.8421 30.6789 63.8564 30.7075C63.8564 30.729 63.8636 30.7397 63.8779 30.7397H63.9102C63.9674 30.7397 64.0391 30.6896 64.125 30.5894C64.2109 30.4891 64.3184 30.3423 64.4473 30.1489C64.5762 29.9556 64.7301 29.7121 64.9092 29.4185C65.0954 29.1248 65.3174 28.7847 65.5752 28.3979C65.611 28.2905 65.6611 28.1903 65.7256 28.0972C65.79 28.0041 65.8223 27.8966 65.8223 27.7749ZM75.0176 31.062C74.9961 31.062 74.9424 31.0835 74.8564 31.1265C74.7777 31.1694 74.6917 31.2196 74.5986 31.2769C74.5127 31.327 74.4268 31.3807 74.3408 31.438C74.262 31.4881 74.2083 31.5239 74.1797 31.5454C74.1654 31.5669 74.1224 31.6134 74.0508 31.6851C73.9792 31.7567 73.9004 31.8354 73.8145 31.9214C73.7357 32.0002 73.6605 32.0754 73.5889 32.147C73.5173 32.2186 73.4743 32.2651 73.46 32.2866C73.4313 32.2866 73.3955 32.3009 73.3525 32.3296L73.2881 32.3618C73.2523 32.3976 73.2021 32.4836 73.1377 32.6196C73.0732 32.7485 73.0195 32.8846 72.9766 33.0278C72.9264 33.1711 72.8978 33.2785 72.8906 33.3501C72.8835 33.4217 72.8799 33.5184 72.8799 33.6401C72.8799 33.8192 72.9014 33.9839 72.9443 34.1343C72.9873 34.2847 73.1019 34.4064 73.2881 34.4995C73.3167 34.5138 73.3561 34.5317 73.4062 34.5532C73.4635 34.5675 73.5173 34.5819 73.5674 34.5962C73.6247 34.6105 73.6748 34.6248 73.7178 34.6392C73.7607 34.6463 73.793 34.6499 73.8145 34.6499C73.8503 34.6499 73.8968 34.6499 73.9541 34.6499C74.0114 34.6427 74.0723 34.6356 74.1367 34.6284C74.2012 34.6213 74.2585 34.6141 74.3086 34.6069C74.3659 34.5998 74.4089 34.5926 74.4375 34.5854C74.7025 34.5282 74.9137 34.4422 75.0713 34.3276C75.2288 34.2059 75.3398 34.0161 75.4043 33.7583C75.4186 33.6938 75.4401 33.6115 75.4688 33.5112C75.4974 33.4038 75.5225 33.3 75.5439 33.1997C75.5726 33.0923 75.5977 32.9992 75.6191 32.9204C75.6406 32.8345 75.6514 32.7843 75.6514 32.77C75.6657 32.77 75.6729 32.7557 75.6729 32.7271C75.68 32.6912 75.6836 32.6698 75.6836 32.6626C75.6836 32.6411 75.68 32.616 75.6729 32.5874C75.6729 32.5516 75.6657 32.5265 75.6514 32.5122C75.637 32.4621 75.6263 32.4155 75.6191 32.3726C75.612 32.3368 75.6048 32.3009 75.5977 32.2651C75.5977 32.2293 75.5977 32.2043 75.5977 32.1899V31.7817C75.5833 31.7173 75.5583 31.6457 75.5225 31.5669C75.4867 31.481 75.4437 31.4022 75.3936 31.3306C75.3506 31.2518 75.2969 31.1873 75.2324 31.1372C75.168 31.0871 75.0964 31.062 75.0176 31.062ZM70.9248 34.1665C70.9248 33.9875 70.9463 33.7798 70.9893 33.5435C71.0322 33.3 71.1182 33.0994 71.2471 32.9419C71.2542 32.9347 71.2865 32.8989 71.3438 32.8345C71.4082 32.77 71.4798 32.6984 71.5586 32.6196C71.6374 32.5337 71.7161 32.4513 71.7949 32.3726C71.8809 32.2938 71.9453 32.2329 71.9883 32.1899C72.2174 31.9823 72.4609 31.7925 72.7188 31.6206C72.9766 31.4416 73.2415 31.284 73.5137 31.1479C73.5495 31.1336 73.6104 31.1193 73.6963 31.105C73.7894 31.0907 73.8467 31.0763 73.8682 31.062C73.8896 31.0549 73.929 31.0369 73.9863 31.0083C74.0508 30.9725 74.1188 30.9367 74.1904 30.9009C74.262 30.8579 74.3265 30.8221 74.3838 30.7935C74.4482 30.7576 74.4876 30.7397 74.502 30.7397C74.6237 30.6825 74.7347 30.6359 74.835 30.6001C74.9424 30.5643 75.0426 30.5249 75.1357 30.4819C75.2288 30.439 75.3184 30.3888 75.4043 30.3315C75.4902 30.2671 75.5726 30.1812 75.6514 30.0737C75.6657 30.0451 75.6764 29.995 75.6836 29.9233C75.6979 29.8446 75.7087 29.7622 75.7158 29.6763C75.723 29.5832 75.7266 29.4972 75.7266 29.4185C75.7337 29.3325 75.7373 29.2716 75.7373 29.2358C75.7373 29.064 75.7337 28.8921 75.7266 28.7202C75.7194 28.5412 75.6908 28.3729 75.6406 28.2153C75.5977 28.0506 75.526 27.9038 75.4258 27.7749C75.3327 27.6388 75.1966 27.5314 75.0176 27.4526C75.0033 27.4455 74.971 27.4347 74.9209 27.4204C74.8708 27.4061 74.8171 27.3918 74.7598 27.3774C74.7025 27.356 74.6488 27.3381 74.5986 27.3237C74.5485 27.3094 74.5163 27.3022 74.502 27.3022C74.502 27.2951 74.4876 27.2843 74.459 27.27C74.4303 27.2557 74.3981 27.2414 74.3623 27.2271C74.3265 27.2056 74.2907 27.1912 74.2549 27.1841C74.2191 27.1698 74.194 27.159 74.1797 27.1519H74.126C74.0329 27.1519 73.9613 27.1626 73.9111 27.1841C73.861 27.2056 73.7965 27.245 73.7178 27.3022C73.6891 27.3166 73.6533 27.3345 73.6104 27.356C73.5674 27.3774 73.5244 27.4025 73.4814 27.4312C73.4385 27.4598 73.3991 27.4849 73.3633 27.5063C73.3346 27.5207 73.3167 27.5278 73.3096 27.5278C73.2952 27.5422 73.2773 27.5708 73.2559 27.6138C73.2344 27.6496 73.2129 27.6925 73.1914 27.7427C73.1771 27.7856 73.1628 27.8286 73.1484 27.8716C73.1341 27.9074 73.127 27.9289 73.127 27.936C73.1198 27.9504 73.1126 27.979 73.1055 28.022C73.0983 28.0578 73.0911 28.1007 73.084 28.1509C73.0768 28.1938 73.0697 28.2368 73.0625 28.2798C73.0553 28.3156 73.0518 28.3371 73.0518 28.3442C73.0518 28.3657 73.0374 28.4123 73.0088 28.4839C72.9801 28.5483 72.9551 28.5877 72.9336 28.6021C72.9049 28.7596 72.8835 28.8921 72.8691 28.9995C72.862 29.1069 72.8369 29.1929 72.7939 29.2573C72.751 29.3218 72.6829 29.3683 72.5898 29.397C72.5039 29.4185 72.3714 29.4292 72.1924 29.4292C72.0277 29.4292 71.8665 29.4256 71.709 29.4185C71.5586 29.4113 71.4225 29.3862 71.3008 29.3433C71.1862 29.2931 71.0931 29.2179 71.0215 29.1177C70.9499 29.0103 70.9141 28.8634 70.9141 28.6772C70.9141 28.5985 70.9176 28.5125 70.9248 28.4194C70.932 28.3263 70.957 28.2476 71 28.1831C71.0072 28.1759 71.0251 28.158 71.0537 28.1294C71.0824 28.0936 71.1146 28.0578 71.1504 28.022C71.1862 27.9862 71.2184 27.9539 71.2471 27.9253C71.2829 27.8966 71.3079 27.8752 71.3223 27.8608C71.9382 27.4025 72.5791 27.0301 73.2451 26.7437C73.9183 26.45 74.638 26.3032 75.4043 26.3032C75.5833 26.3032 75.7624 26.314 75.9414 26.3354C76.1276 26.3569 76.3066 26.3999 76.4785 26.4644C76.6504 26.5216 76.8079 26.604 76.9512 26.7114C77.0944 26.8188 77.2126 26.9549 77.3057 27.1196C77.3271 27.1626 77.3522 27.2199 77.3809 27.2915C77.4167 27.3631 77.4525 27.4347 77.4883 27.5063C77.5241 27.578 77.5527 27.6388 77.5742 27.689C77.6029 27.7391 77.6172 27.7677 77.6172 27.7749C77.6243 27.7964 77.6315 27.8501 77.6387 27.936C77.6458 28.0148 77.653 28.1007 77.6602 28.1938C77.6673 28.2798 77.6745 28.3657 77.6816 28.4517C77.6888 28.5304 77.6924 28.5806 77.6924 28.6021C77.6924 28.6235 77.7067 28.6558 77.7354 28.6987C77.7497 28.7202 77.7676 28.7381 77.7891 28.7524C77.7962 28.7524 77.7998 28.7703 77.7998 28.8062V28.8169C77.7926 28.8241 77.7891 28.8276 77.7891 28.8276C77.7389 28.9924 77.7067 29.1571 77.6924 29.3218C77.6781 29.4865 77.653 29.6584 77.6172 29.8374C77.6172 29.8446 77.6064 29.8947 77.585 29.9878C77.5706 30.0809 77.5635 30.1418 77.5635 30.1704C77.5492 30.1776 77.542 30.2456 77.542 30.3745C77.542 30.4891 77.5456 30.6073 77.5527 30.729C77.5599 30.8507 77.5635 30.9295 77.5635 30.9653C77.5635 30.9797 77.5563 31.0083 77.542 31.0513C77.5348 31.0871 77.5241 31.13 77.5098 31.1802C77.5026 31.2231 77.4919 31.2661 77.4775 31.3091C77.4704 31.3449 77.4668 31.3664 77.4668 31.3735C77.4668 31.395 77.4596 31.4953 77.4453 31.6743C77.431 31.8534 77.4131 32.061 77.3916 32.2974C77.3773 32.5265 77.3594 32.7629 77.3379 33.0063C77.3236 33.2427 77.3128 33.436 77.3057 33.5864V33.6294V33.6938C77.3057 33.7225 77.3092 33.7798 77.3164 33.8657C77.3236 33.9445 77.3307 34.0304 77.3379 34.1235C77.3451 34.2166 77.3522 34.3062 77.3594 34.3921C77.3665 34.478 77.3737 34.5425 77.3809 34.5854C77.4811 34.7 77.6064 34.7824 77.7568 34.8325C77.9072 34.8826 78.0469 34.9077 78.1758 34.9077C78.319 34.9077 78.4443 34.8898 78.5518 34.854C78.6663 34.8182 78.7845 34.8003 78.9062 34.8003C78.9206 34.8003 78.9635 34.8039 79.0352 34.811C79.1139 34.811 79.1641 34.811 79.1855 34.811C79.2572 34.8468 79.3001 34.8898 79.3145 34.9399C79.3359 34.9901 79.3467 35.0545 79.3467 35.1333C79.3467 35.1405 79.3467 35.1548 79.3467 35.1763C79.3467 35.1978 79.3395 35.2085 79.3252 35.2085L78.584 35.9712L78.498 36.0142C78.4264 36.0428 78.3799 36.0571 78.3584 36.0571C78.3369 36.0571 78.2832 36.0607 78.1973 36.0679C78.1113 36.075 78.0182 36.0822 77.918 36.0894C77.8177 36.0965 77.721 36.1037 77.6279 36.1108C77.542 36.118 77.4883 36.1252 77.4668 36.1323C77.4525 36.1323 77.4167 36.1395 77.3594 36.1538C77.3021 36.161 77.2412 36.1717 77.1768 36.186C77.1123 36.1932 77.0514 36.2004 76.9941 36.2075C76.944 36.2147 76.9118 36.2147 76.8975 36.2075C76.8831 36.2075 76.8545 36.2039 76.8115 36.1968C76.7757 36.1825 76.7327 36.1681 76.6826 36.1538C76.6325 36.1323 76.5824 36.1144 76.5322 36.1001C76.4821 36.0858 76.4427 36.0715 76.4141 36.0571C76.2995 36.0142 76.1849 35.9569 76.0703 35.8853C75.9557 35.8136 75.8698 35.7277 75.8125 35.6274C75.7695 35.5487 75.7337 35.4627 75.7051 35.3696C75.6836 35.2694 75.6549 35.1799 75.6191 35.1011C75.5905 35.0151 75.5475 34.9435 75.4902 34.8862C75.4329 34.8289 75.3434 34.8003 75.2217 34.8003C75.2145 34.8003 75.2074 34.8039 75.2002 34.811C75.2002 34.811 75.1966 34.811 75.1895 34.811H75.168C74.9889 34.9256 74.8457 35.0581 74.7383 35.2085C74.638 35.3589 74.5127 35.4985 74.3623 35.6274C74.2406 35.7277 74.1152 35.8136 73.9863 35.8853C73.8646 35.9497 73.7393 36.0321 73.6104 36.1323C73.5745 36.1466 73.5101 36.161 73.417 36.1753C73.3311 36.1896 73.2344 36.2039 73.127 36.2183C73.0267 36.2397 72.9264 36.2541 72.8262 36.2612C72.7331 36.2756 72.665 36.2827 72.6221 36.2827C72.6006 36.2827 72.5648 36.2791 72.5146 36.272C72.4645 36.272 72.4072 36.2684 72.3428 36.2612C72.2855 36.2541 72.2282 36.2433 72.1709 36.229C72.1208 36.2218 72.085 36.2147 72.0635 36.2075C72.0492 36.2075 72.0241 36.1968 71.9883 36.1753C71.9596 36.1466 71.9274 36.118 71.8916 36.0894C71.8558 36.0607 71.82 36.0356 71.7842 36.0142C71.7555 35.9855 71.7376 35.9712 71.7305 35.9712C71.4154 35.7563 71.2005 35.4914 71.0859 35.1763C70.9785 34.8612 70.9248 34.5246 70.9248 34.1665ZM79.6475 35.8745C79.6475 35.7599 79.6689 35.6704 79.7119 35.606C79.762 35.5415 79.8229 35.495 79.8945 35.4663C79.9733 35.4305 80.0592 35.409 80.1523 35.4019C80.2526 35.3875 80.3493 35.3768 80.4424 35.3696C80.4567 35.3553 80.4925 35.3481 80.5498 35.3481C80.6071 35.3481 80.668 35.3517 80.7324 35.3589C80.804 35.366 80.8506 35.3696 80.8721 35.3696C80.9437 35.3267 81.0153 35.2729 81.0869 35.2085C81.1657 35.1369 81.2337 35.0617 81.291 34.9829C81.3555 34.897 81.4056 34.8075 81.4414 34.7144C81.4844 34.6141 81.5059 34.5174 81.5059 34.4243L81.5381 32.394L81.5596 31.9858L81.6455 29.9448C81.667 29.8159 81.6777 29.7013 81.6777 29.6011C81.6849 29.4937 81.6885 29.3898 81.6885 29.2896C81.6885 29.1678 81.6742 29.0353 81.6455 28.8921C81.624 28.7417 81.5775 28.6092 81.5059 28.4946C81.4056 28.3299 81.2839 28.1759 81.1406 28.0327C81.0046 27.8823 80.847 27.757 80.668 27.6567C80.6536 27.6496 80.625 27.6424 80.582 27.6353C80.5391 27.6209 80.4925 27.6066 80.4424 27.5923C80.3994 27.578 80.3564 27.5601 80.3135 27.5386C80.2777 27.5099 80.2598 27.4813 80.2598 27.4526C80.2598 27.381 80.3206 27.3022 80.4424 27.2163C80.5641 27.1304 80.7038 27.048 80.8613 26.9692C81.0189 26.8833 81.1729 26.8117 81.3232 26.7544C81.4808 26.6899 81.5882 26.6398 81.6455 26.604C81.7458 26.561 81.8389 26.5073 81.9248 26.4429C82.0179 26.3713 82.1074 26.3032 82.1934 26.2388C82.2865 26.1743 82.3796 26.1206 82.4727 26.0776C82.5658 26.0275 82.6696 26.0024 82.7842 26.0024C82.8701 26.0024 82.9382 26.0526 82.9883 26.1528C83.0384 26.2531 83.0778 26.3784 83.1064 26.5288C83.1351 26.672 83.1602 26.8332 83.1816 27.0122C83.2031 27.1841 83.2282 27.3452 83.2568 27.4956C83.2855 27.6388 83.3213 27.7606 83.3643 27.8608C83.4072 27.9611 83.4681 28.0112 83.5469 28.0112C83.597 28.0112 83.6292 28.0076 83.6436 28.0005C83.6579 27.9933 83.6865 27.9647 83.7295 27.9146C83.7367 27.9002 83.7689 27.8537 83.8262 27.7749C83.8835 27.689 83.9479 27.5994 84.0195 27.5063C84.0983 27.4061 84.1699 27.3166 84.2344 27.2378C84.2988 27.159 84.3418 27.1125 84.3633 27.0981C84.4349 27.0122 84.5602 26.9048 84.7393 26.7759C84.9183 26.647 85.1117 26.5216 85.3193 26.3999C85.5342 26.2782 85.7419 26.1743 85.9424 26.0884C86.1429 25.9953 86.2969 25.9487 86.4043 25.9487C86.5547 25.9487 86.6979 25.9774 86.834 26.0347C86.9772 26.092 87.1025 26.1743 87.21 26.2817C87.3174 26.382 87.4033 26.5002 87.4678 26.6362C87.5322 26.7723 87.5645 26.9155 87.5645 27.0659C87.5645 27.3524 87.5 27.603 87.3711 27.8179C87.2493 28.0327 87.0381 28.201 86.7373 28.3228H86.6084C86.4795 28.3228 86.3613 28.2941 86.2539 28.2368C86.1465 28.1724 86.0391 28.1043 85.9316 28.0327C85.8314 27.9539 85.7275 27.8859 85.6201 27.8286C85.5127 27.7642 85.3981 27.7319 85.2764 27.7319C85.1117 27.7319 84.9648 27.7606 84.8359 27.8179C84.7142 27.868 84.5889 27.9217 84.46 27.979C84.4313 28.0005 84.3848 28.0291 84.3203 28.0649C84.263 28.0936 84.2021 28.1294 84.1377 28.1724C84.0804 28.2082 84.0231 28.2404 83.9658 28.269C83.9157 28.2977 83.8799 28.3156 83.8584 28.3228C83.7868 28.3729 83.7223 28.4445 83.665 28.5376C83.6077 28.6307 83.5576 28.7345 83.5146 28.8491C83.4788 28.9565 83.4466 29.0675 83.418 29.1821C83.3965 29.2967 83.3822 29.397 83.375 29.4829C83.375 29.4901 83.3714 29.5259 83.3643 29.5903C83.3571 29.6476 83.3464 29.7157 83.332 29.7944C83.3249 29.8732 83.3177 29.952 83.3105 30.0308C83.3034 30.1024 83.2998 30.1597 83.2998 30.2026V30.2241V30.2778C83.2998 30.328 83.2998 30.4282 83.2998 30.5786C83.307 30.7218 83.3141 30.8937 83.3213 31.0942C83.3285 31.2876 83.332 31.4953 83.332 31.7173C83.3392 31.9321 83.3464 32.1398 83.3535 32.3403C83.3607 32.5337 83.3643 32.7056 83.3643 32.856C83.3714 32.9992 83.375 33.0959 83.375 33.146V34.2739C83.3822 34.3097 83.3965 34.3778 83.418 34.478C83.4395 34.5783 83.4645 34.6857 83.4932 34.8003C83.529 34.9077 83.5648 35.0116 83.6006 35.1118C83.6436 35.2049 83.6865 35.2622 83.7295 35.2837C83.7939 35.3123 83.8835 35.3374 83.998 35.3589C84.1198 35.3804 84.238 35.409 84.3525 35.4448C84.4743 35.4735 84.5781 35.5164 84.6641 35.5737C84.75 35.631 84.793 35.7062 84.793 35.7993C84.793 35.8781 84.7679 35.9461 84.7178 36.0034C84.6676 36.0535 84.6068 36.0965 84.5352 36.1323C84.4635 36.1681 84.3848 36.1932 84.2988 36.2075C84.2201 36.229 84.1484 36.2397 84.084 36.2397C83.9193 36.2397 83.751 36.2254 83.5791 36.1968C83.4144 36.1681 83.2497 36.1538 83.085 36.1538C82.8988 36.1538 82.7054 36.1681 82.5049 36.1968C82.3115 36.2254 82.1253 36.2397 81.9463 36.2397H81.9141C81.8997 36.2397 81.8711 36.2362 81.8281 36.229C81.7923 36.229 81.7493 36.2254 81.6992 36.2183C81.6562 36.2183 81.6133 36.2147 81.5703 36.2075C81.5345 36.2075 81.513 36.2075 81.5059 36.2075C81.4844 36.2075 81.4307 36.2111 81.3447 36.2183C81.2588 36.2326 81.1979 36.2397 81.1621 36.2397H80.7539H80.4209C80.335 36.2397 80.2454 36.2362 80.1523 36.229C80.0592 36.2218 79.9733 36.2075 79.8945 36.186C79.8229 36.1574 79.762 36.1216 79.7119 36.0786C79.6689 36.0285 79.6475 35.9604 79.6475 35.8745Z" fill="black"/>
</svg>
