<svg width="311" height="205" viewBox="0 0 311 205" fill="none" xmlns="http://www.w3.org/2000/svg">
<g clip-path="url(#clip0_54_10)">
<mask id="path-1-inside-1_54_10" fill="white">
<path fill-rule="evenodd" clip-rule="evenodd" d="M237.425 19.8719C230.797 19.5481 223.704 19.2918 216.284 19.0991C159.115 17.5991 82.7041 19.7289 52.6199 22.3096L40.484 23.738C40.1914 24.5227 39.2449 31.4662 39.0034 37.3468C38.9019 39.8202 38.9235 42.1069 39.1956 43.6485C39.2559 43.9902 39.3273 44.2902 39.4166 44.5366C39.4556 44.6459 39.5265 44.775 39.5684 44.8465C56.2262 42.1267 67.4177 43.3426 74.785 46.1577C87.3079 50.9456 89.0887 60.446 87.9074 64.1114C87.3664 65.7901 86.2693 66.5133 85.1305 66.2033C44.2888 61.8008 30.2545 80.1519 31.4715 99.9174C32.9703 124.262 57.3695 150.268 82.3221 136.282C95.9591 126.841 98.2017 113.333 94.5836 101.296C86.4935 113.037 72.535 120.795 61.1294 121.598C54.5111 122.065 48.7656 120.19 45.4085 115.594C41.5944 110.375 40.773 101.493 45.6194 88.1443C54.7217 63.0724 76.5895 69.7297 89.0626 86.2748C91.485 89.4893 93.5483 93.0673 95.0884 96.8499C98.4034 90.8819 100.082 84.01 99.0747 76.5838C98.7289 74.0329 99.9005 71.8376 102.417 70.0734C106.804 67 115.584 65.1643 126.099 64.2524C147.684 62.383 176.652 64.2465 189.09 66.104C191.939 66.5292 193.948 66.9662 194.854 67.3497C195.604 67.6675 195.888 68.1742 195.956 68.4602C195.969 68.5178 195.979 68.5854 195.983 68.6569C197.019 69.3463 197.923 70.5303 198.662 72.1217C210.071 67.6735 220.585 65.6809 230 65.5239C235.321 55.668 240.22 47.9199 241.245 45.516C243.245 40.8235 245.212 34.2296 247.095 26.4478L244.341 26.3127C243.102 26.2551 241.861 26.1975 240.622 26.1399L237.78 26.0167C233.109 42.8559 228.008 54.4442 223.208 55.7157C214.157 58.1136 193.96 58.3818 172.247 57.7302C137.035 56.6732 97.8329 53.2303 95.9612 52.7793C94.0544 52.3224 92.6378 49.0106 92.002 44.5306C91.1248 38.3461 91.3066 30.0139 91.6174 26.2392C91.715 25.0552 91.9412 24.2267 92.1076 23.8174L91.9275 24.1552C91.9887 23.8155 92.3315 23.2095 93.2736 22.9115C94.4105 22.5539 96.917 22.2519 100.546 22.0254C113.543 21.2169 141.326 21.2447 171.771 21.8268C193.412 22.24 216.396 22.9373 236.385 23.8135L236.454 23.5612C236.779 22.3573 237.103 21.1275 237.425 19.8719ZM230.953 67.6576C223.192 82.0511 214.91 100.484 216.688 113.175C218.265 124.419 228.023 130.56 253.419 125.355C269.927 121.972 277.667 112.817 278.102 102.627C278.553 91.9865 271.099 80.4876 257.86 73.6852C250.545 69.9284 241.471 67.6139 230.953 67.6576ZM93.8116 98.9856C92.3201 94.9229 90.1767 91.0766 87.6082 87.6695C76.0635 72.3561 55.8107 65.7544 47.3861 88.9588C42.667 101.958 43.4385 110.347 47.5085 115.01C52.3231 120.525 61.4931 120.672 70.7538 117.239C79.4703 114.009 88.3127 107.542 93.8116 98.9856ZM126.423 111.655C121.508 111.7 117.758 112.135 115.964 113.131C115.371 113.461 115.241 113.922 115.704 114.543C116.361 115.427 117.624 116.451 119.559 117.674C122.897 119.786 124.721 118.606 125.661 115.537C126.003 114.422 126.25 113.111 126.423 111.655ZM147.443 94.462C146.418 92.3303 145.127 90.0535 143.706 87.8264C140.321 82.526 136.179 77.5115 132.93 75.5408C131.785 74.8454 130.805 74.4839 130.07 74.9368C128.821 75.7077 128.533 78.3877 128.365 81.928C128 89.6283 129.035 101.179 128.491 109.593C150.444 109.849 190.337 116.252 191.956 116.5C193.632 116.757 194.894 114.887 196.025 112.1C197.814 107.687 198.949 100.873 199.301 93.9812C199.646 87.1748 199.229 80.2909 197.87 75.5626C197.795 75.3044 197.72 75.054 197.639 74.8097C194.923 75.9163 192.153 77.1659 189.337 78.5665C188.941 78.7632 181.634 87.3278 176.033 94.9288C174.988 96.3473 174.004 97.734 173.139 99.0313C173.77 99.7585 174.293 100.448 174.676 101.09C175.399 102.305 175.66 103.414 175.484 104.322C175.21 105.752 173.674 107.073 169.956 107.361C168.619 107.465 168.047 106.765 167.926 105.73C167.795 104.614 168.706 102.345 170.406 99.6015L170.642 99.23C166.571 94.9269 159.564 89.525 155.874 84.904C154.085 87.884 151.614 91.3766 149.638 94.5971C151.06 97.8055 151.861 100.646 151.714 102.482C151.521 104.878 150.145 106.261 146.831 105.23C144.083 104.374 143.913 101.666 145.544 98.0201C146.036 96.9175 146.692 95.7156 147.443 94.462ZM172.008 100.776C171.435 101.693 170.948 102.542 170.572 103.295C170.298 103.847 170.084 104.34 169.951 104.767C169.904 104.91 169.871 105.081 169.848 105.212C172.238 105.027 173.442 104.787 173.62 103.865C173.707 103.41 173.454 102.899 173.091 102.289C172.805 101.811 172.44 101.306 172.008 100.776ZM148.425 96.6552C147.727 97.9069 147.153 99.085 146.787 100.136C146.271 101.614 146.13 102.778 147.339 103.154C148.329 103.462 149.018 103.535 149.45 103.213C149.912 102.872 149.888 102.135 149.771 101.201C149.611 99.9313 149.134 98.3737 148.425 96.6552ZM155.704 81.1273C155.887 80.7359 156.044 80.3624 156.171 80.0108C156.422 79.3095 156.631 78.7652 156.414 78.3976C156.258 78.1334 155.93 78.0877 155.434 78.0996C154.864 78.9559 155.081 79.977 155.704 81.1273ZM235.804 25.9293C221.98 25.3313 206.73 24.8187 191.497 24.4234C155.386 23.4877 119.365 23.2155 102.616 24.0638C99.1068 24.2426 96.454 24.4671 94.8386 24.7472C94.3632 24.8307 93.909 24.9618 93.6828 25.0353C93.6402 25.3214 93.5632 25.8916 93.5182 26.4379C93.2165 30.1013 93.0357 38.1891 93.887 44.1909C94.3653 47.5623 94.9243 50.3298 96.359 50.6754C98.2224 51.1224 137.246 54.5256 172.3 55.5786C193.802 56.2242 213.808 55.9958 222.771 53.6217C224.173 53.2502 225.53 51.784 226.933 49.5291C229.93 44.7074 232.901 36.3653 235.804 25.9293ZM250.006 22.4069C249.875 22.985 249.742 23.5651 249.608 24.1453L249.541 24.4393C264.855 25.23 277.403 26.13 284.668 27.0736C284.143 25.9909 282.136 25.2141 279.026 24.3777C272.981 22.7526 262.977 21.5288 250.402 20.6368L250.006 22.4069ZM239.22 20.6209C239.064 21.2209 238.908 21.8208 238.751 22.4208L238.358 23.9009C241.523 24.0419 244.607 24.189 247.597 24.3399L247.808 23.436C247.939 22.8619 248.068 22.2897 248.199 21.7155L248.47 20.5037C245.565 20.309 242.532 20.1302 239.386 19.9712L239.22 20.6209Z"/>
</mask>
<path fill-rule="evenodd" clip-rule="evenodd" d="M237.425 19.8719C230.797 19.5481 223.704 19.2918 216.284 19.0991C159.115 17.5991 82.7041 19.7289 52.6199 22.3096L40.484 23.738C40.1914 24.5227 39.2449 31.4662 39.0034 37.3468C38.9019 39.8202 38.9235 42.1069 39.1956 43.6485C39.2559 43.9902 39.3273 44.2902 39.4166 44.5366C39.4556 44.6459 39.5265 44.775 39.5684 44.8465C56.2262 42.1267 67.4177 43.3426 74.785 46.1577C87.3079 50.9456 89.0887 60.446 87.9074 64.1114C87.3664 65.7901 86.2693 66.5133 85.1305 66.2033C44.2888 61.8008 30.2545 80.1519 31.4715 99.9174C32.9703 124.262 57.3695 150.268 82.3221 136.282C95.9591 126.841 98.2017 113.333 94.5836 101.296C86.4935 113.037 72.535 120.795 61.1294 121.598C54.5111 122.065 48.7656 120.19 45.4085 115.594C41.5944 110.375 40.773 101.493 45.6194 88.1443C54.7217 63.0724 76.5895 69.7297 89.0626 86.2748C91.485 89.4893 93.5483 93.0673 95.0884 96.8499C98.4034 90.8819 100.082 84.01 99.0747 76.5838C98.7289 74.0329 99.9005 71.8376 102.417 70.0734C106.804 67 115.584 65.1643 126.099 64.2524C147.684 62.383 176.652 64.2465 189.09 66.104C191.939 66.5292 193.948 66.9662 194.854 67.3497C195.604 67.6675 195.888 68.1742 195.956 68.4602C195.969 68.5178 195.979 68.5854 195.983 68.6569C197.019 69.3463 197.923 70.5303 198.662 72.1217C210.071 67.6735 220.585 65.6809 230 65.5239C235.321 55.668 240.22 47.9199 241.245 45.516C243.245 40.8235 245.212 34.2296 247.095 26.4478L244.341 26.3127C243.102 26.2551 241.861 26.1975 240.622 26.1399L237.78 26.0167C233.109 42.8559 228.008 54.4442 223.208 55.7157C214.157 58.1136 193.96 58.3818 172.247 57.7302C137.035 56.6732 97.8329 53.2303 95.9612 52.7793C94.0544 52.3224 92.6378 49.0106 92.002 44.5306C91.1248 38.3461 91.3066 30.0139 91.6174 26.2392C91.715 25.0552 91.9412 24.2267 92.1076 23.8174L91.9275 24.1552C91.9887 23.8155 92.3315 23.2095 93.2736 22.9115C94.4105 22.5539 96.917 22.2519 100.546 22.0254C113.543 21.2169 141.326 21.2447 171.771 21.8268C193.412 22.24 216.396 22.9373 236.385 23.8135L236.454 23.5612C236.779 22.3573 237.103 21.1275 237.425 19.8719ZM230.953 67.6576C223.192 82.0511 214.91 100.484 216.688 113.175C218.265 124.419 228.023 130.56 253.419 125.355C269.927 121.972 277.667 112.817 278.102 102.627C278.553 91.9865 271.099 80.4876 257.86 73.6852C250.545 69.9284 241.471 67.6139 230.953 67.6576ZM93.8116 98.9856C92.3201 94.9229 90.1767 91.0766 87.6082 87.6695C76.0635 72.3561 55.8107 65.7544 47.3861 88.9588C42.667 101.958 43.4385 110.347 47.5085 115.01C52.3231 120.525 61.4931 120.672 70.7538 117.239C79.4703 114.009 88.3127 107.542 93.8116 98.9856ZM126.423 111.655C121.508 111.7 117.758 112.135 115.964 113.131C115.371 113.461 115.241 113.922 115.704 114.543C116.361 115.427 117.624 116.451 119.559 117.674C122.897 119.786 124.721 118.606 125.661 115.537C126.003 114.422 126.25 113.111 126.423 111.655ZM147.443 94.462C146.418 92.3303 145.127 90.0535 143.706 87.8264C140.321 82.526 136.179 77.5115 132.93 75.5408C131.785 74.8454 130.805 74.4839 130.07 74.9368C128.821 75.7077 128.533 78.3877 128.365 81.928C128 89.6283 129.035 101.179 128.491 109.593C150.444 109.849 190.337 116.252 191.956 116.5C193.632 116.757 194.894 114.887 196.025 112.1C197.814 107.687 198.949 100.873 199.301 93.9812C199.646 87.1748 199.229 80.2909 197.87 75.5626C197.795 75.3044 197.72 75.054 197.639 74.8097C194.923 75.9163 192.153 77.1659 189.337 78.5665C188.941 78.7632 181.634 87.3278 176.033 94.9288C174.988 96.3473 174.004 97.734 173.139 99.0313C173.77 99.7585 174.293 100.448 174.676 101.09C175.399 102.305 175.66 103.414 175.484 104.322C175.21 105.752 173.674 107.073 169.956 107.361C168.619 107.465 168.047 106.765 167.926 105.73C167.795 104.614 168.706 102.345 170.406 99.6015L170.642 99.23C166.571 94.9269 159.564 89.525 155.874 84.904C154.085 87.884 151.614 91.3766 149.638 94.5971C151.06 97.8055 151.861 100.646 151.714 102.482C151.521 104.878 150.145 106.261 146.831 105.23C144.083 104.374 143.913 101.666 145.544 98.0201C146.036 96.9175 146.692 95.7156 147.443 94.462ZM172.008 100.776C171.435 101.693 170.948 102.542 170.572 103.295C170.298 103.847 170.084 104.34 169.951 104.767C169.904 104.91 169.871 105.081 169.848 105.212C172.238 105.027 173.442 104.787 173.62 103.865C173.707 103.41 173.454 102.899 173.091 102.289C172.805 101.811 172.44 101.306 172.008 100.776ZM148.425 96.6552C147.727 97.9069 147.153 99.085 146.787 100.136C146.271 101.614 146.13 102.778 147.339 103.154C148.329 103.462 149.018 103.535 149.45 103.213C149.912 102.872 149.888 102.135 149.771 101.201C149.611 99.9313 149.134 98.3737 148.425 96.6552ZM155.704 81.1273C155.887 80.7359 156.044 80.3624 156.171 80.0108C156.422 79.3095 156.631 78.7652 156.414 78.3976C156.258 78.1334 155.93 78.0877 155.434 78.0996C154.864 78.9559 155.081 79.977 155.704 81.1273ZM235.804 25.9293C221.98 25.3313 206.73 24.8187 191.497 24.4234C155.386 23.4877 119.365 23.2155 102.616 24.0638C99.1068 24.2426 96.454 24.4671 94.8386 24.7472C94.3632 24.8307 93.909 24.9618 93.6828 25.0353C93.6402 25.3214 93.5632 25.8916 93.5182 26.4379C93.2165 30.1013 93.0357 38.1891 93.887 44.1909C94.3653 47.5623 94.9243 50.3298 96.359 50.6754C98.2224 51.1224 137.246 54.5256 172.3 55.5786C193.802 56.2242 213.808 55.9958 222.771 53.6217C224.173 53.2502 225.53 51.784 226.933 49.5291C229.93 44.7074 232.901 36.3653 235.804 25.9293ZM250.006 22.4069C249.875 22.985 249.742 23.5651 249.608 24.1453L249.541 24.4393C264.855 25.23 277.403 26.13 284.668 27.0736C284.143 25.9909 282.136 25.2141 279.026 24.3777C272.981 22.7526 262.977 21.5288 250.402 20.6368L250.006 22.4069ZM239.22 20.6209C239.064 21.2209 238.908 21.8208 238.751 22.4208L238.358 23.9009C241.523 24.0419 244.607 24.189 247.597 24.3399L247.808 23.436C247.939 22.8619 248.068 22.2897 248.199 21.7155L248.47 20.5037C245.565 20.309 242.532 20.1302 239.386 19.9712L239.22 20.6209Z" fill="#D9D9D9"/>
<path d="M216.329 16.9455L216.342 16.4457L216.342 16.4457L216.329 16.9455ZM52.4752 20.1639L52.5178 20.6621L52.5179 20.6621L52.4752 20.1639ZM41.9253 21.4056L41.8328 20.9142L41.8326 20.9143L41.9253 21.4056ZM38.7243 22.9056L39.1927 23.0804L39.193 23.0798L38.7243 22.9056ZM37.1024 42.0691L37.6014 42.0384L37.6014 42.0384L37.1024 42.0691ZM38.1468 46.2988L37.7514 46.6049L37.7517 46.6053L38.1468 46.2988ZM39.7415 46.9921L39.8216 47.4857L39.8224 47.4855L39.7415 46.9921ZM74.1721 48.1961L74.3507 47.729L74.3506 47.729L74.1721 48.1961ZM86.3054 61.2208L85.8067 61.2571L85.8067 61.2571L86.3054 61.2208ZM85.9817 63.7081L85.532 63.4894L85.5316 63.4902L85.9817 63.7081ZM85.5592 64.1054L85.7145 63.6301L85.7123 63.6294L85.5592 64.1054ZM85.3887 64.0697L85.3348 64.5668L85.3374 64.567L85.3887 64.0697ZM29.5672 100.066L29.0681 100.097L29.0681 100.097L29.5672 100.066ZM83.2107 138.187L83.4557 138.623L83.456 138.623L83.2107 138.187ZM83.2835 138.141L82.9993 137.73L82.9909 137.736L82.9827 137.742L83.2835 138.141ZM95.9571 99.1684L95.5292 98.9098L95.4084 99.1098L95.4842 99.3307L95.9571 99.1684ZM100.962 76.258L101.457 76.1908L101.457 76.1907L100.962 76.258ZM103.424 71.9012L103.137 71.4917L103.137 71.4918L103.424 71.9012ZM126.246 66.4001L126.289 66.8982L126.289 66.8982L126.246 66.4001ZM188.839 68.2377L188.765 68.7322L188.766 68.7323L188.839 68.2377ZM193.529 69.1436H194.029V68.7692L193.67 68.6638L193.529 69.1436ZM193.529 69.1476L193.029 69.1476L193.03 69.1573L193.529 69.1476ZM194.278 70.1787L194.157 70.6639L194.158 70.6639L194.278 70.1787ZM196.871 72.8369L197.06 73.2998L197.55 73.0996L197.322 72.6216L196.871 72.8369ZM188.567 76.5977L188.344 76.15L188.344 76.1502L188.567 76.5977ZM171.755 97.5294L171.397 97.8783L171.826 98.3186L172.17 97.809L171.755 97.5294ZM156.943 83.0186L156.502 82.7841L156.353 83.0645L156.543 83.3185L156.943 83.0186ZM157.379 82.1485L156.927 81.9346L156.927 81.935L157.379 82.1485ZM158.003 77.2036L158.434 76.9496L158.433 76.9489L158.003 77.2036ZM154.951 75.9659L154.925 75.4666L154.921 75.4668L154.951 75.9659ZM154.334 76.2679L154.701 76.6066L154.704 76.604L154.334 76.2679ZM154.631 83.1676L155.065 83.4165L155.214 83.1563L155.055 82.9022L154.631 83.1676ZM148.649 92.507L148.202 92.7304L148.597 93.5221L149.071 92.775L148.649 92.507ZM147.503 90.3356L147.066 90.5784L147.066 90.5795L147.503 90.3356ZM134.573 74.1302L134.285 74.5391L134.285 74.5393L134.573 74.1302ZM129.155 73.0495L128.892 72.6238L128.892 72.6239L129.155 73.0495ZM126.458 81.8147L125.959 81.7909L125.959 81.7911L126.458 81.8147ZM126.62 109.585L126.622 110.085L127.086 110.083L127.119 109.62L126.62 109.585ZM123.893 109.64L123.875 109.141L123.874 109.141L123.893 109.64ZM115.487 111.015L115.699 111.468L115.699 111.468L115.487 111.015ZM113.456 113.276L112.964 113.185L112.964 113.185L113.456 113.276ZM118.625 119.552L118.892 119.129L118.892 119.129L118.625 119.552ZM127.466 116.24L127.944 116.386L127.944 116.386L127.466 116.24ZM128.317 111.655L128.321 111.155L127.867 111.151L127.82 111.603L128.317 111.655ZM191.7 118.632L191.776 118.138L191.775 118.138L191.7 118.632ZM196.521 115.523L196.949 115.781L196.949 115.781L196.521 115.523ZM201.206 94.1044L201.705 94.1298L201.705 94.1298L201.206 94.1044ZM199.687 74.8991L199.206 75.0368L199.206 75.0371L199.687 74.8991ZM199.436 74.0945L199.255 73.6284L198.808 73.802L198.963 74.2559L199.436 74.0945ZM228.838 67.6973L229.28 67.9313L229.684 67.1689L228.821 67.1976L228.838 67.6973ZM214.802 113.51L214.307 113.58L214.307 113.58L214.802 113.51ZM253.76 127.473L253.66 126.983L253.66 126.983L253.76 127.473ZM278.117 110.9L278.574 111.102L278.574 111.102L278.117 110.9ZM270.811 80.7161L271.174 80.3718L271.174 80.3718L270.811 80.7161ZM232.117 65.5179L231.679 65.2771L231.278 66.0075L232.111 66.0179L232.117 65.5179ZM242.965 46.4498L243.425 46.646L243.425 46.6459L242.965 46.4498ZM249.041 26.5472L249.066 26.0478L248.652 26.0267L248.555 26.4304L249.041 26.5472ZM285.718 29.3663L286.176 29.1664L286.065 28.9119L285.791 28.8716L285.718 29.3663ZM294.595 82.2299L295.095 82.2238L295.095 82.2238L294.595 82.2299ZM284.079 166.469L284.534 166.677L284.534 166.676L284.079 166.469ZM271.085 172.541L270.975 172.053L270.975 172.053L271.085 172.541ZM210.638 177.595L210.649 178.095L210.649 178.095L210.638 177.595ZM33.7505 169.998L33.5594 170.46L33.5626 170.461L33.7505 169.998ZM33.1967 169.966L33.0611 169.485L33.0611 169.485L33.1967 169.966ZM31.4379 169.267L31.7856 168.907L31.7855 168.907L31.4379 169.267ZM28.1294 163.378L28.5949 163.196L28.5949 163.196L28.1294 163.378ZM16.9684 68.7562L17.4683 68.7659L17.4683 68.7659L16.9684 68.7562ZM25.0655 20.6844L25.5011 20.9299L25.5011 20.9299L25.0655 20.6844ZM40.1005 16.0654L40.3552 15.6351L40.3548 15.6349L40.1005 16.0654ZM41.3889 15.6125L41.8423 15.8231L41.8424 15.823L41.3889 15.6125ZM40.9863 14.1602L40.732 14.5907L40.733 14.5913L40.9863 14.1602ZM23.4544 19.5302L23.89 19.7757L23.89 19.7757L23.4544 19.5302ZM15.0601 68.7086L15.56 68.7183L15.56 68.7183L15.0601 68.7086ZM26.3836 164.248L26.8491 164.066L26.8491 164.066L26.3836 164.248ZM33.3739 172.117L33.5234 171.64L33.4102 171.605L33.2931 171.624L33.3739 172.117ZM210.673 179.746L210.684 180.246L210.684 180.246L210.673 179.746ZM271.46 174.652L271.57 175.14L271.57 175.14L271.46 174.652ZM285.778 167.453L286.233 167.66L286.233 167.66L285.778 167.453ZM296.504 82.2001L297.004 82.194L297.004 82.194L296.504 82.2001ZM287.994 29.7437L288.089 29.2529L287.178 29.0764L287.531 29.9341L287.994 29.7437ZM289.906 30.2046L290.059 29.7286L290.059 29.7286L289.906 30.2046ZM312.319 57.0785L311.954 57.4192L311.954 57.4193L312.319 57.0785ZM324.684 66.0702L324.895 65.6167L324.893 65.6162L324.684 66.0702ZM325.406 64.0796L325.197 64.5336L325.197 64.5339L325.406 64.0796ZM313.636 55.521L313.27 55.8617L313.27 55.8618L313.636 55.521ZM290.428 28.1345L290.58 27.6585L290.58 27.6583L290.428 28.1345ZM286.982 27.4054L286.527 27.6122L286.638 27.8572L286.904 27.8993L286.982 27.4054ZM286.345 26.0465L286.795 25.8288L286.795 25.8288L286.345 26.0465ZM279.468 22.2837L279.338 22.7666L279.338 22.7666L279.468 22.2837ZM250.861 18.519L250.372 18.4142L250.252 18.9764L250.825 19.0177L250.861 18.519ZM248.931 18.3839L248.897 18.8827L249.329 18.9119L249.42 18.4891L248.931 18.3839ZM237.99 17.2468C231.215 16.9108 223.948 16.6464 216.342 16.4457L216.315 17.4453C223.915 17.6459 231.175 17.91 237.941 18.2455L237.99 17.2468ZM216.342 16.4457C159.093 14.9474 82.5745 17.0811 52.4325 19.6658L52.5179 20.6621C82.6136 18.0814 159.094 15.9477 216.315 17.4453L216.342 16.4457ZM52.4326 19.6657C47.6889 20.0712 44.0668 20.494 41.8328 20.9142L42.0177 21.897C44.1988 21.4867 47.7782 21.0672 52.5178 20.6621L52.4326 19.6657ZM41.8326 20.9143C40.776 21.1136 39.9617 21.4088 39.3814 21.7159C39.0919 21.8692 38.8532 22.0294 38.6702 22.1882C38.4985 22.3372 38.3339 22.5208 38.2556 22.7313L39.193 23.0798C39.1849 23.1016 39.2015 23.0512 39.3256 22.9435C39.4384 22.8456 39.6102 22.7263 39.8493 22.5997C40.3265 22.3471 41.0425 22.081 42.018 21.8969L41.8326 20.9143ZM38.2558 22.7308C38.1885 22.9112 38.113 23.2549 38.0334 23.6806C37.9505 24.1236 37.8554 24.7004 37.7542 25.3785C37.5518 26.7354 37.3238 28.5082 37.1207 30.446C36.7152 34.313 36.4047 38.8733 36.6033 42.0998L37.6014 42.0384C37.4082 38.8996 37.7107 34.4085 38.1152 30.5503C38.317 28.6256 38.5432 26.8673 38.7433 25.5261C38.8434 24.8552 38.9365 24.2913 39.0163 23.8645C39.0994 23.4203 39.1611 23.1652 39.1927 23.0804L38.2558 22.7308ZM36.6033 42.0998C36.6665 43.1266 36.7955 44.0404 36.9826 44.7958C37.167 45.5407 37.4181 46.1743 37.7514 46.6049L38.5421 45.9927C38.3341 45.724 38.1248 45.248 37.9533 44.5555C37.7844 43.8735 37.662 43.0222 37.6014 42.0384L36.6033 42.0998ZM37.7517 46.6053C38.283 47.2899 38.9904 47.6205 39.8216 47.4857L39.6614 46.4986C39.2438 46.5663 38.8831 46.4321 38.5418 45.9923L37.7517 46.6053ZM39.8224 47.4855C56.0661 44.8217 66.9093 45.9563 73.9937 48.6631L74.3506 47.729C67.0426 44.9367 56.0046 43.8184 39.6606 46.4987L39.8224 47.4855ZM73.9936 48.6631C82.6714 51.9806 85.5404 57.6046 85.8067 61.2571L86.804 61.1844C86.5052 57.0849 83.3312 51.1623 74.3507 47.729L73.9936 48.6631ZM85.8067 61.2571C85.8792 62.2515 85.7588 63.0232 85.532 63.4894L86.4313 63.9268C86.767 63.2368 86.8828 62.2641 86.804 61.1844L85.8067 61.2571ZM85.5316 63.4902C85.502 63.5513 85.4791 63.5977 85.4574 63.6367C85.4469 63.6554 85.4385 63.6693 85.4317 63.6795C85.4248 63.6899 85.4213 63.6939 85.4215 63.6938C85.4215 63.6937 85.4278 63.6864 85.441 63.6761C85.4545 63.6656 85.4771 63.6507 85.5089 63.6383C85.5417 63.6254 85.5792 63.6173 85.6189 63.6166C85.6582 63.6158 85.6908 63.6224 85.7145 63.6302L85.4039 64.5807C85.5562 64.6305 85.7192 64.6297 85.8729 64.5697C86.0144 64.5144 86.1135 64.4223 86.178 64.3477C86.2964 64.2107 86.3816 64.0295 86.4317 63.926L85.5316 63.4902ZM85.7123 63.6294C85.6233 63.6008 85.5321 63.5818 85.4401 63.5723L85.3374 64.567C85.3608 64.5694 85.3838 64.5743 85.4061 64.5814L85.7123 63.6294ZM85.4426 63.5726C63.984 61.2463 49.5584 65.0756 40.6487 72.182C31.7272 79.298 28.4237 89.6295 29.0681 100.097L30.0663 100.036C29.4373 89.82 32.6581 79.8346 41.2723 72.9638C49.8984 66.0835 64.0202 62.2561 85.3348 64.5667L85.4426 63.5726ZM29.0681 100.097C29.8661 113.057 36.7744 126.408 46.8082 134.666C56.8613 142.94 70.0995 146.13 83.4557 138.623L82.9657 137.751C70.0422 145.015 57.2479 141.963 47.4437 133.894C37.6204 125.809 30.8468 112.714 30.0663 100.036L29.0681 100.097ZM83.456 138.623C83.4797 138.609 83.5309 138.581 83.5843 138.541L82.9827 137.742C82.9866 137.739 82.9884 137.738 82.9859 137.739C82.9847 137.74 82.9826 137.741 82.9791 137.743C82.9755 137.745 82.9714 137.748 82.9655 137.751L83.456 138.623ZM83.5677 138.553C91.2602 133.238 95.6402 126.71 97.5094 119.813C99.3766 112.923 98.7287 105.703 96.4301 99.0061L95.4842 99.3307C97.7315 105.878 98.3492 112.891 96.5442 119.551C94.7412 126.204 90.5115 132.54 82.9993 137.73L83.5677 138.553ZM96.3851 99.427C100.461 92.6828 102.621 84.7693 101.457 76.1908L100.466 76.3252C101.595 84.6454 99.5049 92.3313 95.5292 98.9098L96.3851 99.427ZM101.457 76.1907C101.257 74.7111 102.047 73.4773 103.711 72.3105L103.137 71.4918C101.345 72.7487 100.192 74.3003 100.466 76.3252L101.457 76.1907ZM103.711 72.3106C105.744 70.8863 108.843 69.7475 112.734 68.8565C116.615 67.9678 121.24 67.3352 126.289 66.8982L126.203 65.9019C121.128 66.3411 116.454 66.9789 112.511 67.8817C108.578 68.7822 105.329 69.9559 103.137 71.4917L103.711 72.3106ZM126.289 66.8982C147.692 65.0426 176.439 66.8914 188.765 68.7322L188.913 67.7432C176.522 65.8928 147.696 64.0385 126.203 65.9019L126.289 66.8982ZM188.766 68.7323C190.854 69.0419 192.429 69.3419 193.389 69.6234L193.67 68.6638C192.638 68.3613 191.005 68.0534 188.912 67.7431L188.766 68.7323ZM193.029 69.1436V69.1476H194.029V69.1436H193.029ZM193.03 69.1573C193.043 69.8407 193.472 70.493 194.157 70.6639L194.399 69.6935C194.224 69.6499 194.035 69.4479 194.029 69.1379L193.03 69.1573ZM194.158 70.6639C195.005 70.8745 195.756 71.6624 196.419 73.0521L197.322 72.6216C196.622 71.1545 195.694 70.0153 194.399 69.6935L194.158 70.6639ZM196.682 72.374C193.95 73.4893 191.171 74.744 188.344 76.15L188.79 77.0454C191.595 75.6501 194.352 74.4056 197.06 73.2998L196.682 72.374ZM188.344 76.1502C188.262 76.1911 188.191 76.2542 188.162 76.2797C188.117 76.3189 188.066 76.3678 188.01 76.423C187.898 76.534 187.752 76.6865 187.577 76.8742C187.227 77.2505 186.749 77.7815 186.173 78.4357C185.022 79.7447 183.474 81.5549 181.761 83.6246C178.337 87.7613 174.242 92.949 171.341 97.2498L172.17 97.809C175.044 93.5491 179.114 88.3912 182.531 84.2623C184.239 82.1992 185.78 80.3967 186.924 79.0961C187.496 78.4454 187.967 77.9224 188.309 77.5558C188.48 77.3721 188.616 77.2309 188.714 77.1337C188.763 77.0847 188.799 77.0508 188.824 77.0295C188.863 76.9944 188.842 77.0193 188.79 77.0452L188.344 76.1502ZM172.113 97.1805C169.943 94.9526 167.08 92.4554 164.362 89.9691C161.626 87.4677 159.035 84.976 157.343 82.7188L156.543 83.3185C158.298 85.6605 160.956 88.21 163.687 90.7071C166.434 93.2193 169.254 95.6779 171.397 97.8783L172.113 97.1805ZM157.385 83.2532C157.547 82.948 157.695 82.6509 157.832 82.3619L156.927 81.935C156.797 82.2103 156.656 82.4933 156.502 82.7841L157.385 83.2532ZM157.831 82.3624C158.359 81.2484 158.684 80.2125 158.795 79.3053C158.905 78.4038 158.808 77.5842 158.434 76.9496L157.572 77.4576C157.794 77.8342 157.897 78.4063 157.802 79.1841C157.708 79.9561 157.423 80.887 156.927 81.9346L157.831 82.3624ZM158.433 76.9489C157.861 75.9831 156.723 75.3724 154.925 75.4666L154.977 76.4652C156.515 76.3846 157.241 76.8983 157.573 77.4583L158.433 76.9489ZM154.921 75.4668C154.555 75.4888 154.214 75.6554 153.964 75.9317L154.704 76.604C154.785 76.5148 154.884 76.4709 154.981 76.465L154.921 75.4668ZM153.966 75.9292C153.044 76.9299 152.654 78.117 152.732 79.4119C152.809 80.6891 153.339 82.0471 154.207 83.4331L155.055 82.9022C154.238 81.5982 153.793 80.4033 153.73 79.3517C153.668 78.3177 153.971 77.3998 154.701 76.6066L153.966 75.9292ZM154.197 82.9188C152.597 85.7082 150.271 89.0195 148.227 92.2391L149.071 92.775C151.073 89.6213 153.453 86.2256 155.065 83.4165L154.197 82.9188ZM149.097 92.2837C148.736 91.5621 148.351 90.8282 147.939 90.0918L147.066 90.5795C147.469 91.3013 147.848 92.0215 148.202 92.7304L149.097 92.2837ZM147.94 90.0929C146.133 86.8398 143.91 83.4857 141.622 80.5803C139.338 77.6813 136.967 75.2014 134.86 73.7211L134.285 74.5393C136.276 75.9378 138.576 78.3302 140.836 81.1991C143.091 84.0615 145.284 87.3708 147.066 90.5784L147.94 90.0929ZM134.86 73.7214C132.663 72.1744 130.499 71.6337 128.892 72.6238L129.417 73.4751C130.486 72.8163 132.17 73.0503 134.285 74.5391L134.86 73.7214ZM128.892 72.6239C127.932 73.2162 127.266 74.426 126.809 75.9595C126.346 77.5145 126.068 79.5035 125.959 81.7909L126.958 81.8385C127.065 79.5943 127.336 77.6934 127.767 76.245C128.205 74.7752 128.78 73.8681 129.417 73.4751L128.892 72.6239ZM125.959 81.7911C125.774 85.6883 125.966 90.5779 126.126 95.5029C126.288 100.443 126.419 105.423 126.122 109.549L127.119 109.62C127.42 105.434 127.287 100.401 127.126 95.4703C126.964 90.5245 126.775 85.6853 126.958 81.8384L125.959 81.7911ZM126.618 109.085C125.659 109.089 124.745 109.109 123.875 109.141L123.911 110.14C124.771 110.108 125.675 110.089 126.622 110.085L126.618 109.085ZM123.874 109.141C120.076 109.288 117.047 109.733 115.275 110.562L115.699 111.468C117.272 110.732 120.119 110.287 123.912 110.14L123.874 109.141ZM115.276 110.562C113.946 111.183 113.162 112.116 112.964 113.185L113.948 113.367C114.072 112.695 114.58 111.991 115.699 111.468L115.276 110.562ZM112.964 113.185C112.797 114.091 113.155 115.156 114.009 116.278C114.871 117.409 116.281 118.661 118.358 119.974L118.892 119.129C116.876 117.854 115.57 116.677 114.805 115.672C114.033 114.658 113.853 113.879 113.948 113.367L112.964 113.185ZM118.357 119.974C120.846 121.549 122.905 121.941 124.564 121.183C126.197 120.437 127.248 118.659 127.944 116.386L126.988 116.094C126.313 118.294 125.377 119.712 124.148 120.274C122.946 120.823 121.27 120.634 118.892 119.129L118.357 119.974ZM127.944 116.386C128.352 115.051 128.631 113.463 128.814 111.707L127.82 111.603C127.64 113.323 127.37 114.842 126.988 116.094L127.944 116.386ZM128.312 112.155C149.898 112.349 189.988 118.877 191.624 119.126L191.775 118.138C190.18 117.894 149.998 111.35 128.321 111.155L128.312 112.155ZM191.624 119.126C193.71 119.446 195.534 118.124 196.949 115.781L196.093 115.264C194.76 117.471 193.264 118.366 191.776 118.138L191.624 119.126ZM196.949 115.781C198.271 113.593 199.345 110.339 200.146 106.576C200.948 102.803 201.483 98.481 201.705 94.1298L200.706 94.0789C200.487 98.3856 199.958 102.655 199.168 106.368C198.376 110.091 197.329 113.217 196.093 115.264L196.949 115.781ZM201.705 94.1298C202.067 87.008 201.606 79.7676 200.167 74.761L199.206 75.0371C200.601 79.8924 201.066 87.0079 200.706 94.079L201.705 94.1298ZM200.167 74.7613C200.086 74.4786 200.001 74.2024 199.909 73.933L198.963 74.2559C199.048 74.507 199.129 74.7672 199.206 75.0368L200.167 74.7613ZM199.617 74.5606C210.235 70.4368 220.039 68.491 228.855 68.1971L228.821 67.1976C219.883 67.4957 209.968 69.4677 199.255 73.6284L199.617 74.5606ZM228.396 67.4634C224.527 74.7709 220.559 83.0648 217.78 91.1361C215.006 99.1952 213.397 107.091 214.307 113.58L215.297 113.441C214.421 107.189 215.967 99.4753 218.726 91.4616C221.48 83.4602 225.422 75.2179 229.28 67.9313L228.396 67.4634ZM214.307 113.58C215.168 119.725 218.219 124.771 224.544 127.537C230.824 130.283 240.265 130.75 253.861 127.963L253.66 126.983C240.14 129.755 230.944 129.244 224.944 126.621C218.99 124.017 216.119 119.303 215.297 113.441L214.307 113.58ZM253.861 127.963C267.163 125.236 275.16 118.822 278.574 111.102L277.66 110.698C274.411 118.044 266.739 124.302 253.66 126.983L253.861 127.963ZM278.574 111.102C282.882 101.356 279.919 89.5801 271.174 80.3718L270.449 81.0604C278.994 90.0581 281.763 101.415 277.66 110.698L278.574 111.102ZM271.174 80.3718C262.923 71.684 249.45 65.2341 232.124 65.018L232.111 66.0179C249.195 66.231 262.401 72.5872 270.449 81.0604L271.174 80.3718ZM232.555 65.7588C235.136 61.0645 237.597 56.8824 239.54 53.5799C241.47 50.2981 242.914 47.8425 243.425 46.646L242.505 46.2536C242.027 47.3735 240.632 49.7504 238.678 53.0729C236.736 56.3747 234.268 60.5684 231.679 65.2771L232.555 65.7588ZM243.425 46.6459C245.518 41.7377 247.57 34.8117 249.527 26.6639L248.555 26.4304C246.602 34.5615 244.565 41.4231 242.505 46.2536L243.425 46.6459ZM249.016 27.0465C265.494 27.885 278.743 28.8477 285.645 29.861L285.791 28.8716C278.834 27.8504 265.539 26.886 249.066 26.0478L249.016 27.0465ZM285.26 29.5661C291.485 43.8443 293.856 62.8668 294.095 82.2361L295.095 82.2238C294.855 62.809 292.482 43.6276 286.176 29.1664L285.26 29.5661ZM294.095 82.2361C294.328 101.202 292.511 120.456 290.231 135.858C289.091 143.559 287.836 150.292 286.665 155.541C285.49 160.806 284.409 164.537 283.624 166.262L284.534 166.676C285.367 164.845 286.467 161.019 287.641 155.759C288.818 150.483 290.077 143.725 291.22 136.005C293.506 120.565 295.329 101.256 295.095 82.2238L294.095 82.2361ZM283.624 166.262C283.111 167.39 281.793 168.441 279.61 169.421C277.447 170.391 274.533 171.25 270.975 172.053L271.195 173.028C274.776 172.22 277.766 171.344 280.019 170.333C282.253 169.33 283.863 168.151 284.534 166.677L283.624 166.262ZM270.975 172.053C257.644 175.062 235.819 176.57 210.628 177.095L210.649 178.095C235.839 177.57 257.755 176.062 271.196 173.028L270.975 172.053ZM210.628 177.095C174.757 177.84 132.151 176.59 97.7082 174.83C80.4877 173.95 65.3116 172.942 54.0422 171.992C48.407 171.517 43.7522 171.057 40.3085 170.635C38.5863 170.424 37.1715 170.223 36.0905 170.035C34.994 169.844 34.2828 169.674 33.9383 169.534L33.5626 170.461C34.0194 170.646 34.8306 170.831 35.9192 171.02C37.0234 171.212 38.4566 171.416 40.1869 171.628C43.6484 172.052 48.3172 172.513 53.9583 172.989C65.2415 173.94 80.4289 174.948 97.6572 175.829C132.112 177.59 174.745 178.84 210.649 178.095L210.628 177.095ZM33.9415 169.536C33.6582 169.418 33.3504 169.403 33.0611 169.485L33.3323 170.447C33.4097 170.425 33.4872 170.43 33.5594 170.46L33.9415 169.536ZM33.0611 169.485C32.739 169.575 32.3459 169.45 31.7856 168.907L31.0902 169.626C31.7124 170.228 32.4696 170.69 33.3323 170.447L33.0611 169.485ZM31.7855 168.907C30.7394 167.895 29.6766 165.955 28.5949 163.196L27.6639 163.561C28.7506 166.332 29.877 168.452 31.0903 169.626L31.7855 168.907ZM28.5949 163.196C25.3495 154.918 22.393 140.192 20.3351 123.066C18.2789 105.954 17.1252 86.492 17.4683 68.7659L16.4685 68.7466C16.1244 86.5246 17.2812 106.033 19.3423 123.186C21.4018 140.325 24.3694 155.158 27.6639 163.561L28.5949 163.196ZM17.4683 68.7659C17.6659 58.5596 18.3521 48.9386 19.6536 40.6918C20.9567 32.4353 22.8707 25.5974 25.5011 20.9299L24.6299 20.439C21.9119 25.2619 19.9753 32.2394 18.6658 40.5359C17.3549 48.8422 16.6667 58.5119 16.4685 68.7466L17.4683 68.7659ZM25.5011 20.9299C27.2378 17.8478 29.2682 15.8372 31.5986 15.0355C33.912 14.2398 36.633 14.5981 39.8462 16.4959L40.3548 15.6349C36.9751 13.6388 33.9457 13.1707 31.2733 14.0899C28.618 15.0033 26.4273 17.2491 24.6299 20.439L25.5011 20.9299ZM39.8458 16.4957C40.5981 16.941 41.489 16.5838 41.8423 15.8231L40.9354 15.4018C40.7997 15.6941 40.5359 15.7421 40.3552 15.6351L39.8458 16.4957ZM41.8424 15.823C42.1827 15.0898 41.9528 14.1481 41.2395 13.7291L40.733 14.5913C40.9531 14.7206 41.0838 15.0822 40.9354 15.4019L41.8424 15.823ZM41.2405 13.7297C37.3144 11.4109 33.8075 10.8707 30.721 11.9282C27.6512 12.98 25.1095 15.575 23.0188 19.2847L23.89 19.7757C25.9196 16.1743 28.3006 13.8146 31.0451 12.8742C33.7729 11.9396 36.9718 12.3699 40.732 14.5907L41.2405 13.7297ZM23.0188 19.2847C20.2385 24.2178 18.2296 31.3508 16.8627 39.8365C15.4941 48.3318 14.763 58.2229 14.5602 68.6989L15.56 68.7183C15.7622 58.2725 16.4911 48.4308 17.8499 39.9956C19.2103 31.5508 21.1961 24.5554 23.89 19.7757L23.0188 19.2847ZM14.5602 68.6989C14.2126 86.6509 15.3941 106.349 17.4887 123.667C19.5817 140.972 22.5917 155.947 25.9181 164.431L26.8491 164.066C23.5716 155.707 20.5728 140.838 18.4815 123.547C16.3918 106.269 15.2135 86.6179 15.56 68.7183L14.5602 68.6989ZM25.9181 164.431C27.0099 167.215 28.214 169.338 29.4625 170.725C30.7036 172.104 32.0689 172.838 33.4547 172.611L33.2931 171.624C32.3986 171.771 31.3494 171.327 30.2058 170.056C29.0696 168.793 27.9187 166.794 26.8491 164.066L25.9181 164.431ZM33.2243 172.595C34.3423 172.945 36.8486 173.342 40.459 173.769C44.0896 174.199 48.8847 174.664 54.6172 175.142C66.0829 176.098 81.3102 177.108 98.4944 177.987C132.862 179.745 175.07 180.986 210.684 180.246L210.663 179.246C175.082 179.985 132.9 178.746 98.5455 176.988C81.369 176.109 66.1528 175.101 54.7003 174.146C48.9737 173.668 44.1912 173.204 40.5765 172.776C36.9415 172.346 34.5349 171.957 33.5234 171.64L33.2243 172.595ZM210.684 180.246C236.015 179.72 258.055 178.19 271.57 175.14L271.35 174.165C257.943 177.19 235.994 178.72 210.663 179.246L210.684 180.246ZM271.57 175.14C275.57 174.237 278.862 173.151 281.331 171.914C283.785 170.684 285.501 169.267 286.233 167.66L285.323 167.246C284.734 168.539 283.27 169.824 280.883 171.02C278.513 172.208 275.306 173.272 271.35 174.165L271.57 175.14ZM286.233 167.66C287.076 165.807 288.194 161.936 289.39 156.613C290.589 151.274 291.874 144.436 293.041 136.623C295.375 120.998 297.241 101.458 297.004 82.194L296.004 82.2063C296.24 101.403 294.38 120.889 292.052 136.475C290.888 144.268 289.607 151.082 288.414 156.394C287.218 161.721 286.118 165.498 285.323 167.246L286.233 167.66ZM297.004 82.194C296.768 63.03 294.446 44.1045 288.456 29.5534L287.531 29.9341C293.45 44.3131 295.769 63.0909 296.004 82.2063L297.004 82.194ZM287.899 30.2346C288.68 30.386 289.298 30.5345 289.754 30.6807L290.059 29.7286C289.549 29.5648 288.887 29.4075 288.089 29.2529L287.899 30.2346ZM289.754 30.6807C294.651 32.2539 297.769 36.2442 300.896 41.2584C304.001 46.2357 307.103 52.2092 311.954 57.4192L312.685 56.7378C307.922 51.6211 304.902 45.7907 301.745 40.7292C298.611 35.7047 295.33 31.4215 290.059 29.7286L289.754 30.6807ZM311.954 57.4193C315.207 60.913 319.214 64.0996 324.475 66.5243L324.893 65.6162C319.766 63.253 315.863 60.1497 312.685 56.7378L311.954 57.4193ZM324.474 66.5238C325.269 66.8927 326.117 66.4341 326.399 65.6521L325.459 65.3123C325.344 65.6309 325.076 65.7007 324.895 65.6167L324.474 66.5238ZM326.399 65.6521C326.674 64.8921 326.371 63.9731 325.615 63.6253L325.197 64.5339C325.417 64.6351 325.582 64.9717 325.459 65.3123L326.399 65.6521ZM325.616 63.6256C320.739 61.3756 317.025 58.4251 314.002 55.1801L313.27 55.8618C316.369 59.1887 320.187 62.2221 325.197 64.5336L325.616 63.6256ZM314.002 55.1803C309.107 49.9228 305.957 43.9843 302.667 38.8398C299.4 33.7309 295.984 29.3938 290.58 27.6585L290.275 28.6106C295.314 30.2288 298.566 34.2834 301.825 39.3786C305.061 44.4382 308.294 50.5162 313.27 55.8617L314.002 55.1803ZM290.58 27.6583C289.778 27.4019 288.585 27.1529 287.06 26.9116L286.904 27.8993C288.417 28.1387 289.549 28.3784 290.275 28.6108L290.58 27.6583ZM287.438 27.1986C287.227 26.7361 287.013 26.2795 286.795 25.8288L285.895 26.2642C286.11 26.7075 286.32 27.1569 286.527 27.6122L287.438 27.1986ZM286.795 25.8288C286.402 25.015 285.546 24.2719 284.36 23.612C283.161 22.9447 281.564 22.3291 279.598 21.8009L279.338 22.7666C281.254 23.2814 282.768 23.8707 283.874 24.4858C284.992 25.1083 285.634 25.725 285.895 26.2642L286.795 25.8288ZM279.598 21.8009C273.496 20.1602 263.459 18.9243 250.897 18.0203L250.825 19.0177C263.386 19.9216 273.338 21.1531 279.338 22.7666L279.598 21.8009ZM251.35 18.6238C253.02 10.8366 254.608 2.27807 256.076 -6.52038L255.089 -6.68494C253.623 2.10274 252.038 10.6456 250.372 18.4142L251.35 18.6238ZM239.898 18.3448C243.014 18.5096 246.018 18.6882 248.897 18.8827L248.965 17.885C246.08 17.6901 243.071 17.5112 239.951 17.3462L239.898 18.3448ZM249.42 18.4891C251.109 10.644 252.714 1.98593 254.199 -6.91773L253.213 -7.08227C251.73 1.81079 250.127 10.4528 248.442 18.2786L249.42 18.4891ZM237.425 19.8719L238.394 20.1206L238.699 18.9329L237.474 18.8731L237.425 19.8719ZM216.284 19.0991L216.258 20.0987L216.258 20.0987L216.284 19.0991ZM52.6199 22.3096L52.5345 21.3132L52.5187 21.3146L52.503 21.3164L52.6199 22.3096ZM40.484 23.738L40.3671 22.7448L39.7605 22.8162L39.547 23.3886L40.484 23.738ZM39.0034 37.3468L38.0042 37.3057L38.0042 37.3057L39.0034 37.3468ZM39.1956 43.6485L40.1805 43.475L40.1804 43.4747L39.1956 43.6485ZM39.4166 44.5366L40.3585 44.2005L40.3567 44.1956L39.4166 44.5366ZM39.5684 44.8465L38.7054 45.3518L39.0522 45.944L39.7295 45.8334L39.5684 44.8465ZM74.785 46.1577L75.1421 45.2237L75.1419 45.2236L74.785 46.1577ZM87.9074 64.1114L88.8592 64.4181L88.8592 64.4181L87.9074 64.1114ZM85.1305 66.2033L85.3931 65.2384L85.3165 65.2176L85.2377 65.2091L85.1305 66.2033ZM31.4715 99.9174L32.4696 99.8559L32.4696 99.8559L31.4715 99.9174ZM82.3221 136.282L82.811 137.154L82.8523 137.131L82.8913 137.104L82.3221 136.282ZM94.5836 101.296L95.5413 101.008L94.9418 99.0138L93.7602 100.729L94.5836 101.296ZM61.1294 121.598L61.0592 120.601L61.0591 120.601L61.1294 121.598ZM45.4085 115.594L46.2159 115.004L46.2158 115.004L45.4085 115.594ZM45.6194 88.1443L46.5594 88.4856L46.5594 88.4856L45.6194 88.1443ZM89.0626 86.2748L89.8612 85.673L89.8611 85.6728L89.0626 86.2748ZM95.0884 96.8499L94.1622 97.227L94.9492 99.1599L95.9626 97.3355L95.0884 96.8499ZM99.0747 76.5838L98.0838 76.7181L98.0838 76.7182L99.0747 76.5838ZM102.417 70.0734L101.843 69.2544L101.843 69.2546L102.417 70.0734ZM126.099 64.2524L126.013 63.2562L126.013 63.2562L126.099 64.2524ZM189.09 66.104L188.942 67.093L188.943 67.0931L189.09 66.104ZM194.854 67.3497L194.464 68.2705L194.464 68.2705L194.854 67.3497ZM195.956 68.4602L196.929 68.2319L196.929 68.2304L195.956 68.4602ZM195.983 68.6569L194.984 68.7108L195.011 69.2118L195.429 69.4896L195.983 68.6569ZM198.662 72.1217L197.755 72.543L198.15 73.3944L199.025 73.0534L198.662 72.1217ZM230 65.5239L230.017 66.5238L230.602 66.514L230.88 65.999L230 65.5239ZM241.245 45.516L242.165 45.9082L242.165 45.908L241.245 45.516ZM247.095 26.4478L248.067 26.6831L248.352 25.5082L247.144 25.449L247.095 26.4478ZM244.341 26.3127L244.39 25.3139L244.388 25.3138L244.341 26.3127ZM240.622 26.1399L240.668 25.141L240.665 25.1408L240.622 26.1399ZM237.78 26.0167L237.824 25.0177L237.029 24.9832L236.817 25.7494L237.78 26.0167ZM223.208 55.7157L222.952 54.749L222.952 54.749L223.208 55.7157ZM172.247 57.7302L172.217 58.7297L172.217 58.7297L172.247 57.7302ZM95.9612 52.7793L96.1954 51.8072L96.1942 51.8069L95.9612 52.7793ZM92.002 44.5306L91.012 44.6711L91.012 44.6711L92.002 44.5306ZM91.6174 26.2392L90.6208 26.157L90.6207 26.1572L91.6174 26.2392ZM92.1076 23.8174L93.034 24.194L91.2252 23.347L92.1076 23.8174ZM91.9275 24.1552L90.9434 23.9779L92.81 24.6257L91.9275 24.1552ZM93.2736 22.9115L92.9736 21.9576L92.9721 21.9581L93.2736 22.9115ZM100.546 22.0254L100.484 21.0274L100.484 21.0274L100.546 22.0254ZM171.771 21.8268L171.752 22.8266L171.752 22.8266L171.771 21.8268ZM236.385 23.8135L236.341 24.8125L237.137 24.8474L237.349 24.079L236.385 23.8135ZM236.454 23.5612L237.419 23.8267L237.42 23.8213L236.454 23.5612ZM230.953 67.6576L230.949 66.6576L230.355 66.6601L230.073 67.183L230.953 67.6576ZM216.688 113.175L215.697 113.313L215.697 113.313L216.688 113.175ZM253.419 125.355L253.218 124.375L253.218 124.375L253.419 125.355ZM278.102 102.627L279.101 102.67L279.101 102.67L278.102 102.627ZM257.86 73.6852L258.317 72.7957L258.317 72.7957L257.86 73.6852ZM93.8116 98.9856L94.6528 99.5263L94.9217 99.1079L94.7503 98.641L93.8116 98.9856ZM87.6082 87.6695L88.4067 87.0675L88.4067 87.0675L87.6082 87.6695ZM47.3861 88.9588L46.4461 88.6176L46.4461 88.6176L47.3861 88.9588ZM47.5085 115.01L46.7551 115.668L46.7551 115.668L47.5085 115.01ZM70.7538 117.239L70.4063 116.302L70.4062 116.302L70.7538 117.239ZM126.423 111.655L127.416 111.773L127.551 110.644L126.414 110.655L126.423 111.655ZM115.964 113.131L115.479 112.256L115.478 112.257L115.964 113.131ZM115.704 114.543L114.901 115.14L114.901 115.14L115.704 114.543ZM119.559 117.674L120.093 116.829L120.093 116.829L119.559 117.674ZM125.661 115.537L124.705 115.244L124.705 115.244L125.661 115.537ZM147.443 94.462L148.301 94.9758L148.577 94.5139L148.344 94.0287L147.443 94.462ZM143.706 87.8264L144.549 87.2886L144.549 87.2881L143.706 87.8264ZM132.93 75.5408L132.411 76.3954L132.411 76.3957L132.93 75.5408ZM130.07 74.9368L129.545 74.0854L129.544 74.0859L130.07 74.9368ZM128.365 81.928L127.366 81.8806L127.366 81.8806L128.365 81.928ZM128.491 109.593L127.493 109.528L127.425 110.58L128.479 110.592L128.491 109.593ZM191.956 116.5L191.805 117.489L191.805 117.489L191.956 116.5ZM196.025 112.1L196.952 112.476L196.952 112.476L196.025 112.1ZM199.301 93.9812L200.299 94.0321L200.299 94.0319L199.301 93.9812ZM197.87 75.5626L198.832 75.2864L198.83 75.2828L197.87 75.5626ZM197.639 74.8097L198.588 74.4948L198.251 73.4803L197.261 73.8836L197.639 74.8097ZM189.337 78.5665L189.782 79.462L189.782 79.4619L189.337 78.5665ZM176.033 94.9288L175.227 94.3356L175.227 94.336L176.033 94.9288ZM173.139 99.0313L172.307 98.4767L171.884 99.1111L172.384 99.6869L173.139 99.0313ZM174.676 101.09L175.535 100.578L175.535 100.578L174.676 101.09ZM175.484 104.322L174.503 104.132L174.502 104.134L175.484 104.322ZM169.956 107.361L170.033 108.359L170.034 108.358L169.956 107.361ZM167.926 105.73L168.919 105.614L168.919 105.614L167.926 105.73ZM170.406 99.6015L169.561 99.0661L169.556 99.0747L170.406 99.6015ZM170.642 99.23L171.486 99.7654L171.903 99.1081L171.368 98.5428L170.642 99.23ZM155.874 84.904L156.655 84.28L155.757 83.1555L155.017 84.3892L155.874 84.904ZM149.638 94.5971L148.785 94.074L148.51 94.5219L148.723 95.0024L149.638 94.5971ZM151.714 102.482L152.711 102.562L152.711 102.562L151.714 102.482ZM146.831 105.23L146.534 106.185L146.534 106.185L146.831 105.23ZM145.544 98.0201L146.456 98.4285L146.457 98.4277L145.544 98.0201ZM172.008 100.776L172.783 100.144L171.9 99.0606L171.16 100.246L172.008 100.776ZM170.572 103.295L169.678 102.848L169.676 102.85L170.572 103.295ZM169.951 104.767L170.902 105.075L170.905 105.065L169.951 104.767ZM169.848 105.212L168.864 105.038L168.639 106.308L169.925 106.209L169.848 105.212ZM173.62 103.865L174.602 104.054L174.602 104.052L173.62 103.865ZM173.091 102.289L173.95 101.778L173.95 101.777L173.091 102.289ZM148.425 96.6552L149.35 96.2741L148.561 94.3606L147.552 96.1678L148.425 96.6552ZM146.787 100.136L145.843 99.8065L145.842 99.8067L146.787 100.136ZM147.339 103.154L147.636 102.199L147.635 102.199L147.339 103.154ZM149.45 103.213L148.855 102.41L148.853 102.411L149.45 103.213ZM149.771 101.201L150.763 101.076L150.763 101.076L149.771 101.201ZM155.704 81.1273L154.825 81.6038L155.769 83.3458L156.61 81.5516L155.704 81.1273ZM156.171 80.0108L157.111 80.3514L157.113 80.3477L156.171 80.0108ZM156.414 78.3976L157.276 77.8906L157.275 77.8884L156.414 78.3976ZM155.434 78.0996L155.41 77.0999L154.889 77.1124L154.601 77.5459L155.434 78.0996ZM235.804 25.9293L236.767 26.1973L237.105 24.9846L235.847 24.9302L235.804 25.9293ZM191.497 24.4234L191.523 23.4237L191.523 23.4237L191.497 24.4234ZM102.616 24.0638L102.565 23.0651L102.565 23.0651L102.616 24.0638ZM94.8386 24.7472L94.6678 23.7619L94.6657 23.7623L94.8386 24.7472ZM93.6828 25.0353L93.3738 24.0842L92.7851 24.2755L92.6938 24.8878L93.6828 25.0353ZM93.5182 26.4379L94.5148 26.52L94.5148 26.5199L93.5182 26.4379ZM93.887 44.1909L92.897 44.3314L92.897 44.3314L93.887 44.1909ZM96.359 50.6754L96.1248 51.6476L96.1257 51.6479L96.359 50.6754ZM172.3 55.5786L172.27 56.5781L172.27 56.5781L172.3 55.5786ZM222.771 53.6217L223.028 54.5884L223.028 54.5883L222.771 53.6217ZM226.933 49.5291L227.782 50.0575L227.782 50.0571L226.933 49.5291ZM250.006 22.4069L250.981 22.6283L250.982 22.6251L250.006 22.4069ZM249.608 24.1453L250.583 24.3693L250.583 24.369L249.608 24.1453ZM249.541 24.4393L248.566 24.2153L248.299 25.3765L249.489 25.438L249.541 24.4393ZM284.668 27.0736L284.539 28.0653L286.376 28.3039L285.568 26.6373L284.668 27.0736ZM279.026 24.3777L279.286 23.412L279.286 23.412L279.026 24.3777ZM250.402 20.6368L250.473 19.6393L249.614 19.5783L249.426 20.4186L250.402 20.6368ZM239.22 20.6209L240.188 20.873L240.189 20.8684L239.22 20.6209ZM238.751 22.4208L239.718 22.6779L239.719 22.673L238.751 22.4208ZM238.358 23.9009L237.391 23.6438L237.072 24.8446L238.313 24.8999L238.358 23.9009ZM247.597 24.3399L247.547 25.3387L248.382 25.3808L248.571 24.5666L247.597 24.3399ZM247.808 23.436L248.782 23.6627L248.782 23.6589L247.808 23.436ZM248.199 21.7155L249.174 21.9384L249.175 21.9332L248.199 21.7155ZM248.47 20.5037L249.446 20.7213L249.699 19.5838L248.537 19.5059L248.47 20.5037ZM239.386 19.9712L239.437 18.9725L238.62 18.9312L238.417 19.7237L239.386 19.9712ZM237.474 18.8731C230.837 18.5488 223.736 18.2923 216.31 18.0994L216.258 20.0987C223.671 20.2913 230.757 20.5473 237.376 20.8707L237.474 18.8731ZM216.31 18.0994C159.114 16.5988 82.665 18.7285 52.5345 21.3132L52.7054 23.3059C82.7432 20.7292 159.115 18.5995 216.258 20.0987L216.31 18.0994ZM52.503 21.3164L40.3671 22.7448L40.6009 24.7311L52.7368 23.3027L52.503 21.3164ZM39.547 23.3886C39.4778 23.5743 39.4177 23.8463 39.3651 24.1139C39.3073 24.4076 39.2432 24.78 39.1752 25.2137C39.0392 26.0823 38.8842 27.2205 38.7314 28.5141C38.426 31.1001 38.1263 34.3327 38.0042 37.3057L40.0025 37.3878C40.1219 34.4802 40.4162 31.3008 40.7176 28.7487C40.8682 27.4734 41.0199 26.361 41.1511 25.5232C41.2169 25.1037 41.2765 24.7589 41.3275 24.4998C41.353 24.37 41.3753 24.2673 41.3938 24.1905C41.4143 24.1057 41.4241 24.0792 41.421 24.0874L39.547 23.3886ZM38.0042 37.3057C37.9025 39.784 37.9183 42.1652 38.2109 43.8224L40.1804 43.4747C39.9287 42.0486 39.9012 39.8564 40.0025 37.3878L38.0042 37.3057ZM38.2108 43.8221C38.2759 44.1916 38.3594 44.5547 38.4766 44.8776L40.3567 44.1956C40.2951 44.0258 40.2358 43.7889 40.1805 43.475L38.2108 43.8221ZM38.4748 44.8727C38.547 45.0749 38.6582 45.2712 38.7054 45.3518L40.4313 44.3411C40.4178 44.3182 40.3999 44.2862 40.3833 44.2535C40.3752 44.2375 40.3687 44.2238 40.3638 44.213C40.3587 44.2015 40.3574 44.1976 40.3585 44.2005L38.4748 44.8727ZM39.7295 45.8334C56.283 43.1307 67.2813 44.361 74.428 47.0919L75.1419 45.2236C67.5542 42.3242 56.1695 41.1227 39.4072 43.8596L39.7295 45.8334ZM74.4279 47.0918C86.543 51.7238 87.9462 60.7309 86.9556 63.8046L88.8592 64.4181C90.2311 60.161 88.0727 50.1675 75.1421 45.2237L74.4279 47.0918ZM86.9556 63.8046C86.7293 64.5067 86.4203 64.9015 86.1553 65.0941C85.9133 65.2699 85.6666 65.3129 85.3931 65.2384L84.8679 67.1682C85.7331 67.4037 86.6044 67.2401 87.3309 66.7121C88.0344 66.2009 88.5444 65.3948 88.8592 64.4181L86.9556 63.8046ZM85.2377 65.2091C64.6803 62.9931 50.6637 66.4791 41.9193 73.2047C33.1435 79.9544 29.8488 89.8341 30.4734 99.9788L32.4696 99.8559C31.8773 90.2352 34.9911 81.0565 43.1387 74.79C51.3175 68.4994 64.739 65.0111 85.0233 67.1976L85.2377 65.2091ZM30.4734 99.9788C31.24 112.431 37.8478 125.274 47.4635 133.244C57.1173 141.245 69.9 144.391 82.811 137.154L81.8331 135.409C69.7916 142.159 57.8984 139.295 48.7398 131.704C39.5429 124.081 33.2018 111.748 32.4696 99.8559L30.4734 99.9788ZM82.8913 137.104C89.8822 132.264 93.9987 126.344 95.8816 120.049C97.7609 113.766 97.3954 107.177 95.5413 101.008L93.626 101.584C95.3899 107.453 95.7122 113.636 93.9655 119.476C92.2223 125.304 88.399 130.858 81.7529 135.459L82.8913 137.104ZM93.7602 100.729C85.8294 112.239 72.1388 119.821 61.0592 120.601L61.1996 122.596C72.9312 121.77 87.1576 113.836 95.4071 101.864L93.7602 100.729ZM61.0591 120.601C54.6486 121.053 49.3012 119.227 46.2159 115.004L44.601 116.184C48.23 121.152 54.3736 123.077 61.1998 122.596L61.0591 120.601ZM46.2158 115.004C42.6962 110.188 41.755 101.718 46.5594 88.4856L44.6795 87.803C39.7909 101.268 40.4927 110.562 44.6011 116.184L46.2158 115.004ZM46.5594 88.4856C48.788 82.347 51.7637 78.245 55.0933 75.7484C58.4109 73.2608 62.1443 72.3176 66.0038 72.6005C73.7783 73.1704 82.1282 78.7378 88.2641 86.8768L89.8611 85.6728C83.5239 77.2667 74.7033 71.2329 66.1501 70.6058C61.8457 70.2903 57.6259 71.3496 53.8935 74.1482C50.1731 76.9379 47.002 81.4056 44.6795 87.8031L46.5594 88.4856ZM88.264 86.8767C90.6367 90.0253 92.6563 93.5282 94.1622 97.227L96.0146 96.4729C94.4404 92.6064 92.3332 88.9533 89.8612 85.673L88.264 86.8767ZM95.9626 97.3355C99.3686 91.2037 101.105 84.116 100.066 76.4494L98.0838 76.7182C99.0584 83.904 97.4383 90.5601 94.2142 96.3644L95.9626 97.3355ZM100.066 76.4494C99.7831 74.3657 100.692 72.504 102.991 70.8922L101.843 69.2546C99.109 71.1712 97.6746 73.7 98.0838 76.7181L100.066 76.4494ZM102.99 70.8925C105.029 69.4643 108.175 68.2726 112.19 67.3257C116.185 66.3834 120.957 65.7021 126.186 65.2487L126.013 63.2562C120.726 63.7146 115.851 64.4072 111.73 65.3791C107.629 66.3463 104.192 67.6091 101.843 69.2544L102.99 70.8925ZM126.185 65.2487C147.68 63.387 176.569 65.2451 188.942 67.093L189.238 65.115C176.735 63.2478 147.688 61.3789 126.013 63.2562L126.185 65.2487ZM188.943 67.0931C191.809 67.5208 193.693 67.9442 194.464 68.2705L195.244 66.4289C194.203 65.9882 192.069 65.5375 189.238 65.115L188.943 67.0931ZM194.464 68.2705C194.931 68.4685 194.991 68.7248 194.982 68.6901L196.929 68.2304C196.786 67.6235 196.277 66.8665 195.243 66.4288L194.464 68.2705ZM194.982 68.6886C194.981 68.6848 194.982 68.6856 194.982 68.6908C194.983 68.6957 194.984 68.7026 194.984 68.7108L196.981 68.603C196.975 68.4786 196.958 68.3523 196.929 68.2319L194.982 68.6886ZM195.429 69.4896C196.257 70.0403 197.059 71.0461 197.755 72.543L199.569 71.7004C198.786 70.0146 197.782 68.6523 196.537 67.8243L195.429 69.4896ZM199.025 73.0534C210.334 68.6441 220.731 66.6786 230.017 66.5238L229.983 64.524C220.438 64.6832 209.808 66.7028 198.299 71.19L199.025 73.0534ZM230.88 65.999C233.532 61.0864 236.08 56.6976 238.098 53.2282C240.092 49.8003 241.621 47.1843 242.165 45.9082L240.325 45.1238C239.844 46.2516 238.411 48.7116 236.369 52.2227C234.351 55.6923 231.789 60.1055 229.12 65.0488L230.88 65.999ZM242.165 45.908C244.197 41.1391 246.179 34.482 248.067 26.6831L246.123 26.2125C244.244 33.9773 242.292 40.5078 240.325 45.124L242.165 45.908ZM247.144 25.449L244.39 25.3139L244.292 27.3115L247.046 27.4466L247.144 25.449ZM244.388 25.3138C243.768 25.285 243.148 25.2562 242.528 25.2274C241.908 25.1986 241.288 25.1698 240.668 25.141L240.575 27.1388C241.195 27.1676 241.815 27.1964 242.435 27.2252C243.055 27.254 243.675 27.2828 244.295 27.3116L244.388 25.3138ZM240.665 25.1408L237.824 25.0177L237.737 27.0158L240.578 27.139L240.665 25.1408ZM236.817 25.7494C234.488 34.1457 232.063 41.189 229.64 46.2739C228.428 48.818 227.232 50.8362 226.073 52.281C224.899 53.7445 223.847 54.5118 222.952 54.749L223.464 56.6823C224.968 56.2838 226.355 55.1257 227.633 53.5326C228.926 51.9208 230.198 49.7511 231.445 47.1342C233.941 41.8973 236.402 34.7268 238.744 26.284L236.817 25.7494ZM222.952 54.749C218.547 55.9161 211.336 56.5818 202.444 56.867C193.578 57.1514 183.123 57.0561 172.277 56.7306L172.217 58.7297C183.084 59.0558 193.584 59.1522 202.508 58.866C211.405 58.5806 218.818 57.9132 223.464 56.6823L222.952 54.749ZM172.277 56.7306C154.69 56.2027 136.102 55.0788 121.674 54.0302C114.461 53.5059 108.29 53.0007 103.808 52.5985C101.567 52.3974 99.7499 52.2223 98.4373 52.0837C97.7805 52.0144 97.2537 51.9545 96.8646 51.9055C96.6699 51.8809 96.5136 51.8596 96.395 51.8416C96.3357 51.8326 96.2887 51.8248 96.2527 51.8184C96.2348 51.8152 96.221 51.8125 96.2107 51.8104C96.2 51.8083 96.1954 51.8071 96.1954 51.8072L95.727 53.7515C96.0421 53.8274 96.945 53.9373 98.2273 54.0727C99.5543 54.2128 101.382 54.3889 103.63 54.5905C108.125 54.9938 114.306 55.4999 121.529 56.0249C135.974 57.0747 154.593 58.2007 172.217 58.7297L172.277 56.7306ZM96.1942 51.8069C95.7091 51.6906 95.0544 51.1241 94.4118 49.742C93.7957 48.4172 93.3021 46.574 92.9921 44.3901L91.012 44.6711C91.3378 46.9672 91.8703 49.0199 92.5982 50.5853C93.2995 52.0933 94.3065 53.4111 95.7282 53.7518L96.1942 51.8069ZM92.9921 44.3902C92.129 38.3054 92.3067 30.0537 92.614 26.3213L90.6207 26.1572C90.3065 29.9741 90.1205 38.3867 91.012 44.6711L92.9921 44.3902ZM92.614 26.3214C92.7053 25.214 92.9141 24.489 93.034 24.194L91.1812 23.4408C90.9684 23.9644 90.7247 24.8963 90.6208 26.157L92.614 26.3214ZM91.2252 23.347L91.0451 23.6847L92.81 24.6257L92.99 24.2879L91.2252 23.347ZM92.9117 24.3324C92.902 24.3863 92.9589 24.0599 93.5752 23.865L92.9721 21.9581C91.7042 22.3591 91.0754 23.2446 90.9434 23.9779L92.9117 24.3324ZM93.5737 23.8654C94.5738 23.5509 96.9546 23.2515 100.608 23.0235L100.484 21.0274C96.8795 21.2523 94.2472 21.557 92.9736 21.9576L93.5737 23.8654ZM100.608 23.0235C113.558 22.2179 141.301 22.2444 171.752 22.8266L171.79 20.827C141.351 20.245 113.528 20.2159 100.484 21.0274L100.608 23.0235ZM171.752 22.8266C193.386 23.2397 216.362 23.9368 236.341 24.8125L236.429 22.8144C216.431 21.9379 193.438 21.2403 171.79 20.827L171.752 22.8266ZM237.349 24.079L237.419 23.8267L235.49 23.2956L235.421 23.5479L237.349 24.079ZM237.42 23.8213C237.745 22.6139 238.07 21.3803 238.394 20.1206L236.457 19.6232C236.135 20.8747 235.812 22.1006 235.489 23.3011L237.42 23.8213ZM230.073 67.183C226.182 74.4001 222.144 82.6582 219.3 90.722C216.466 98.7604 214.775 106.726 215.697 113.313L217.678 113.036C216.823 106.932 218.384 99.3361 221.187 91.3871C223.98 83.4635 227.964 75.3087 231.834 68.1322L230.073 67.183ZM215.697 113.313C216.529 119.244 219.565 123.924 225.755 126.364C231.838 128.761 240.859 128.95 253.619 126.335L253.218 124.375C240.583 126.965 232.027 126.686 226.488 124.503C221.055 122.362 218.423 118.35 217.678 113.036L215.697 113.313ZM253.619 126.335C270.424 122.891 278.641 113.458 279.101 102.67L277.102 102.585C276.694 112.175 269.431 121.052 253.218 124.375L253.619 126.335ZM279.101 102.67C279.574 91.5295 271.793 79.7202 258.317 72.7957L257.403 74.5747C270.404 81.2551 277.533 92.4435 277.102 102.585L279.101 102.67ZM258.317 72.7957C250.85 68.9611 241.617 66.6133 230.949 66.6576L230.958 68.6576C241.325 68.6145 250.239 70.8957 257.403 74.5748L258.317 72.7957ZM94.7503 98.641C93.2231 94.4806 91.0308 90.5484 88.4067 87.0675L86.8097 88.2714C89.3226 91.6049 91.4172 95.3651 92.8728 99.3302L94.7503 98.641ZM88.4067 87.0675C82.5371 79.2818 74.3581 73.5716 66.4146 72.8738C62.4137 72.5223 58.4847 73.4478 55.0082 76.0095C51.5442 78.562 48.5996 82.6862 46.4461 88.6176L48.3261 89.3001C50.3849 83.6292 53.1311 79.877 56.1947 77.6196C59.2458 75.3714 62.6811 74.5535 66.2396 74.8661C73.4149 75.4964 81.1346 80.7438 86.8097 88.2715L88.4067 87.0675ZM46.4461 88.6176C41.6976 101.698 42.3066 110.571 46.7551 115.668L48.2618 114.353C44.5704 110.124 43.6364 102.218 48.3261 89.3001L46.4461 88.6176ZM46.7551 115.668C49.3807 118.675 53.1536 120.167 57.3907 120.478C61.6219 120.788 66.3756 119.929 71.1014 118.177L70.4062 116.302C65.8713 117.983 61.4097 118.767 57.537 118.483C53.6703 118.2 50.4508 116.86 48.2618 114.353L46.7551 115.668ZM71.1013 118.177C79.9967 114.88 89.0235 108.286 94.6528 99.5263L92.9703 98.445C87.602 106.799 78.9438 113.138 70.4063 116.302L71.1013 118.177ZM126.414 110.655C123.934 110.678 121.723 110.799 119.89 111.046C118.083 111.289 116.544 111.665 115.479 112.256L116.449 114.005C117.178 113.601 118.411 113.262 120.157 113.028C121.876 112.796 123.998 112.677 126.433 112.655L126.414 110.655ZM115.478 112.257C115.058 112.49 114.592 112.886 114.459 113.523C114.327 114.157 114.589 114.721 114.901 115.14L116.506 113.947C116.472 113.901 116.45 113.866 116.436 113.84C116.422 113.815 116.418 113.802 116.418 113.801C116.418 113.801 116.422 113.814 116.424 113.838C116.426 113.864 116.424 113.896 116.417 113.932C116.409 113.968 116.397 113.999 116.384 114.025C116.371 114.049 116.359 114.063 116.355 114.068C116.352 114.072 116.355 114.067 116.371 114.055C116.386 114.043 116.412 114.026 116.45 114.005L115.478 112.257ZM114.901 115.14C115.676 116.182 117.074 117.286 119.024 118.52L120.093 116.829C118.173 115.615 117.046 114.673 116.506 113.947L114.901 115.14ZM119.024 118.519C120.793 119.638 122.452 120.075 123.895 119.471C125.308 118.879 126.122 117.447 126.617 115.829L124.705 115.244C124.26 116.696 123.691 117.388 123.123 117.626C122.585 117.851 121.663 117.822 120.093 116.829L119.024 118.519ZM126.617 115.83C126.982 114.639 127.238 113.265 127.416 111.773L125.43 111.536C125.261 112.957 125.023 114.205 124.705 115.244L126.617 115.83ZM148.344 94.0287C147.299 91.8545 145.987 89.5427 144.549 87.2886L142.863 88.3642C144.266 90.5643 145.537 92.806 146.542 94.8953L148.344 94.0287ZM144.549 87.2881C142.835 84.6055 140.925 81.987 139.024 79.7819C137.135 77.591 135.206 75.752 133.449 74.6858L132.411 76.3957C133.902 77.3003 135.669 78.9539 137.509 81.088C139.337 83.208 141.191 85.7469 142.863 88.3647L144.549 87.2881ZM133.449 74.6861C132.85 74.3221 132.217 73.9959 131.59 73.8383C130.945 73.6763 130.216 73.6724 129.545 74.0854L130.594 75.7883C130.659 75.7483 130.787 75.6987 131.103 75.778C131.436 75.8619 131.865 76.0641 132.411 76.3954L133.449 74.6861ZM129.544 74.0859C128.532 74.7107 128.085 75.9654 127.833 77.1921C127.566 78.4863 127.45 80.1128 127.366 81.8806L129.364 81.9753C129.448 80.2028 129.56 78.7192 129.791 77.5956C130.037 76.4045 130.358 75.9338 130.595 75.7878L129.544 74.0859ZM127.366 81.8806C127.182 85.779 127.351 90.6392 127.496 95.5224C127.641 100.432 127.761 105.376 127.493 109.528L129.489 109.657C129.764 105.395 129.64 100.357 129.495 95.4632C129.349 90.5426 129.184 85.7773 129.364 81.9753L127.366 81.8806ZM128.479 110.592C150.344 110.848 190.151 117.235 191.805 117.489L192.108 115.512C190.523 115.269 150.544 108.85 128.502 108.593L128.479 110.592ZM191.805 117.489C193.123 117.69 194.173 117.011 194.957 116.089C195.73 115.18 196.376 113.895 196.952 112.476L195.099 111.724C194.543 113.092 193.993 114.135 193.433 114.794C192.884 115.44 192.465 115.566 192.108 115.512L191.805 117.489ZM196.952 112.476C198.802 107.913 199.946 100.97 200.299 94.0321L198.302 93.9303C197.953 100.776 196.827 107.462 195.098 111.724L196.952 112.476ZM200.299 94.0319C200.647 87.1785 200.234 80.1683 198.832 75.2864L196.909 75.8388C198.224 80.4136 198.645 87.1711 198.302 93.9305L200.299 94.0319ZM198.83 75.2828C198.754 75.0203 198.675 74.7564 198.588 74.4948L196.69 75.1246C196.765 75.3517 196.836 75.5884 196.91 75.8425L198.83 75.2828ZM197.261 73.8836C194.522 74.9998 191.73 76.2597 188.892 77.6711L189.782 79.4619C192.577 78.0721 195.324 76.8327 198.016 75.7358L197.261 73.8836ZM188.892 77.671C188.753 77.7403 188.647 77.8341 188.625 77.8537C188.577 77.8953 188.528 77.9415 188.483 77.9863C188.39 78.0772 188.277 78.1956 188.149 78.334C187.89 78.6127 187.543 79.0018 187.126 79.4798C186.29 80.4374 185.159 81.771 183.866 83.3338C181.282 86.4585 178.043 90.5153 175.227 94.3356L176.838 95.5221C179.624 91.7413 182.838 87.7153 185.408 84.6083C186.692 83.0552 187.812 81.7357 188.633 80.7946C189.044 80.3233 189.376 79.9516 189.615 79.6946C189.735 79.5651 189.824 79.4719 189.885 79.412C189.917 79.3814 189.932 79.3675 189.935 79.3646C189.964 79.3398 189.897 79.405 189.782 79.462L188.892 77.671ZM175.227 94.336C174.177 95.7626 173.183 97.1626 172.307 98.4767L173.971 99.586C174.825 98.3055 175.8 96.932 176.838 95.5217L175.227 94.336ZM172.384 99.6869C172.993 100.388 173.475 101.028 173.816 101.601L175.535 100.578C175.112 99.8673 174.548 99.1286 173.894 98.3758L172.384 99.6869ZM173.816 101.601C174.469 102.698 174.615 103.552 174.503 104.132L176.466 104.512C176.705 103.276 176.33 101.913 175.535 100.578L173.816 101.601ZM174.502 104.134C174.362 104.866 173.475 106.086 169.879 106.364L170.034 108.358C173.873 108.061 176.059 106.639 176.467 104.51L174.502 104.134ZM169.879 106.364C169.394 106.402 169.216 106.285 169.152 106.228C169.073 106.157 168.963 105.992 168.919 105.614L166.933 105.847C167.01 106.504 167.247 107.206 167.818 107.718C168.404 108.243 169.181 108.424 170.033 108.359L169.879 106.364ZM168.919 105.614C168.885 105.323 168.991 104.679 169.406 103.651C169.803 102.669 170.426 101.468 171.256 100.128L169.556 99.0747C168.686 100.479 168.003 101.784 167.552 102.902C167.119 103.973 166.836 105.021 166.933 105.847L168.919 105.614ZM171.251 100.137L171.486 99.7654L169.797 98.6946L169.562 99.0661L171.251 100.137ZM171.368 98.5428C169.298 96.3546 166.484 93.8894 163.787 91.4451C161.059 88.9735 158.443 86.5185 156.655 84.28L155.093 85.528C156.995 87.9106 159.728 90.4669 162.444 92.9273C165.189 95.4149 167.914 97.8023 169.915 99.9172L171.368 98.5428ZM155.017 84.3892C154.135 85.8577 153.082 87.458 151.991 89.1093C150.906 90.7534 149.784 92.4467 148.785 94.074L150.49 95.1201C151.468 93.527 152.569 91.8638 153.66 90.2114C154.747 88.5664 155.824 86.9303 156.731 85.4188L155.017 84.3892ZM148.723 95.0024C150.14 98.1974 150.843 100.837 150.718 102.403L152.711 102.562C152.88 100.456 151.98 97.4137 150.552 94.1917L148.723 95.0024ZM150.718 102.402C150.633 103.459 150.306 104.034 149.892 104.306C149.474 104.583 148.661 104.752 147.128 104.275L146.534 106.185C148.315 106.739 149.847 106.732 150.994 105.976C152.145 105.216 152.603 103.902 152.711 102.562L150.718 102.402ZM147.129 104.275C146.584 104.105 146.228 103.864 145.994 103.597C145.762 103.331 145.602 102.985 145.534 102.526C145.393 101.567 145.669 100.189 146.456 98.4285L144.631 97.6117C143.788 99.4963 143.332 101.296 143.556 102.816C143.67 103.597 143.967 104.316 144.488 104.913C145.008 105.508 145.704 105.926 146.534 106.185L147.129 104.275ZM146.457 98.4277C146.926 97.3757 147.561 96.2116 148.301 94.9758L146.585 93.9481C145.824 95.2196 145.145 96.4593 144.631 97.6125L146.457 98.4277ZM171.16 100.246C170.576 101.181 170.072 102.058 169.678 102.848L171.467 103.742C171.825 103.026 172.294 102.206 172.856 101.305L171.16 100.246ZM169.676 102.85C169.393 103.422 169.152 103.969 168.996 104.469L170.905 105.065C171.016 104.711 171.203 104.272 171.468 103.739L169.676 102.85ZM168.999 104.459C168.929 104.674 168.887 104.906 168.864 105.038L170.833 105.386C170.856 105.256 170.879 105.146 170.902 105.075L168.999 104.459ZM169.925 106.209C171.107 106.118 172.118 106.006 172.867 105.767C173.643 105.52 174.412 105.039 174.602 104.054L172.638 103.676C172.636 103.686 172.642 103.678 172.629 103.689C172.596 103.718 172.498 103.786 172.26 103.862C171.765 104.02 170.979 104.121 169.771 104.215L169.925 106.209ZM174.602 104.052C174.693 103.577 174.593 103.138 174.46 102.784C174.329 102.434 174.135 102.089 173.95 101.778L172.232 102.801C172.409 103.1 172.523 103.315 172.588 103.486C172.651 103.654 172.634 103.698 172.638 103.677L174.602 104.052ZM173.95 101.777C173.632 101.245 173.236 100.699 172.783 100.144L171.233 101.407C171.645 101.913 171.979 102.377 172.232 102.802L173.95 101.777ZM147.552 96.1678C146.841 97.4427 146.236 98.6777 145.843 99.8065L147.731 100.465C148.07 99.4922 148.613 98.3711 149.299 97.1427L147.552 96.1678ZM145.842 99.8067C145.583 100.552 145.346 101.396 145.421 102.156C145.461 102.563 145.593 102.988 145.891 103.358C146.189 103.729 146.592 103.969 147.042 104.109L147.635 102.199C147.557 102.174 147.51 102.15 147.485 102.134C147.461 102.118 147.452 102.108 147.45 102.105C147.45 102.105 147.423 102.076 147.412 101.96C147.383 101.675 147.475 101.198 147.731 100.465L145.842 99.8067ZM147.042 104.109C147.564 104.271 148.079 104.396 148.556 104.419C149.042 104.442 149.581 104.363 150.047 104.015L148.853 102.411C148.887 102.386 148.866 102.431 148.651 102.421C148.428 102.41 148.104 102.344 147.636 102.199L147.042 104.109ZM150.046 104.017C150.593 103.612 150.77 103.018 150.822 102.537C150.873 102.065 150.822 101.544 150.763 101.076L148.779 101.326C148.837 101.791 148.857 102.105 148.833 102.322C148.811 102.527 148.769 102.473 148.855 102.41L150.046 104.017ZM150.763 101.076C150.587 99.6807 150.074 98.0302 149.35 96.2741L147.501 97.0363C148.194 98.7173 148.634 100.182 148.779 101.326L150.763 101.076ZM156.61 81.5516C156.804 81.1371 156.972 80.7356 157.111 80.3514L155.231 79.6702C155.115 79.9893 154.971 80.3348 154.799 80.7031L156.61 81.5516ZM157.113 80.3477C157.227 80.0286 157.373 79.6379 157.447 79.284C157.52 78.9315 157.574 78.3976 157.276 77.8906L155.552 78.9046C155.47 78.7652 155.528 78.6872 155.489 78.8741C155.45 79.0596 155.366 79.2917 155.23 79.6739L157.113 80.3477ZM157.275 77.8884C157.029 77.4735 156.653 77.269 156.305 77.1779C155.997 77.0968 155.67 77.0936 155.41 77.0999L155.458 79.0993C155.566 79.0967 155.647 79.0978 155.709 79.1019C155.739 79.1038 155.761 79.1063 155.776 79.1085C155.792 79.1108 155.798 79.1125 155.797 79.1123C155.796 79.112 155.756 79.1015 155.702 79.0641C155.642 79.0234 155.59 78.9679 155.554 78.9068L157.275 77.8884ZM154.601 77.5459C153.705 78.8937 154.163 80.383 154.825 81.6038L156.583 80.6508C155.998 79.5711 156.024 79.018 156.267 78.6533L154.601 77.5459ZM235.847 24.9302C222.017 24.3319 206.761 23.8192 191.523 23.4237L191.471 25.4231C206.699 25.8183 221.944 26.3307 235.761 26.9284L235.847 24.9302ZM191.523 23.4237C155.414 22.4881 119.358 22.2146 102.565 23.0651L102.667 25.0625C119.372 24.2164 155.357 24.4873 191.471 25.4231L191.523 23.4237ZM102.565 23.0651C99.0549 23.2439 96.3485 23.4705 94.6678 23.7619L95.0095 25.7325C96.5595 25.4637 99.1587 25.2413 102.667 25.0625L102.565 23.0651ZM94.6657 23.7623C94.1312 23.8561 93.6299 24.001 93.3738 24.0842L93.9919 25.9863C94.1882 25.9225 94.5953 25.8052 95.0115 25.7322L94.6657 23.7623ZM92.6938 24.8878C92.6493 25.1857 92.569 25.7795 92.5216 26.3559L94.5148 26.5199C94.5573 26.0036 94.631 25.457 94.6719 25.1828L92.6938 24.8878ZM92.5216 26.3558C92.2164 30.061 92.0314 38.2294 92.897 44.3314L94.8771 44.0505C94.04 38.1488 94.2166 30.1417 94.5148 26.52L92.5216 26.3558ZM92.897 44.3314C93.1354 46.0123 93.4044 47.6285 93.8141 48.8791C94.0193 49.5056 94.2778 50.0985 94.6253 50.5776C94.9779 51.0639 95.465 51.4886 96.1248 51.6476L96.5932 49.7033C96.5357 49.6894 96.4149 49.6386 96.2443 49.4034C96.0685 49.161 95.8883 48.7866 95.7147 48.2565C95.3667 47.1941 95.117 45.7409 94.8771 44.0504L92.897 44.3314ZM96.1257 51.6479C96.4396 51.7231 97.3387 51.8319 98.6149 51.9658C99.9359 52.1045 101.756 52.2787 103.993 52.4781C108.467 52.877 114.621 53.3777 121.811 53.8972C136.19 54.9361 154.724 56.0511 172.27 56.5781L172.33 54.579C154.822 54.0531 136.317 52.9401 121.955 51.9024C114.774 51.3836 108.632 50.8838 104.17 50.486C101.939 50.2871 100.13 50.1139 98.8237 49.9767C98.1699 49.9081 97.6455 49.8489 97.2582 49.8004C97.0643 49.7761 96.9089 49.7549 96.7908 49.7371C96.7318 49.7282 96.685 49.7205 96.6491 49.7141C96.6314 49.7109 96.6176 49.7083 96.6073 49.7062C96.5968 49.7041 96.5922 49.703 96.5923 49.703L96.1257 51.6479ZM172.27 56.5781C183.031 56.9013 193.43 57.0061 202.268 56.7321C211.08 56.4588 218.425 55.8075 223.028 54.5884L222.515 52.655C218.155 53.81 211.014 54.4599 202.206 54.733C193.425 55.0053 183.071 54.9015 172.33 54.579L172.27 56.5781ZM223.028 54.5883C223.963 54.3403 224.802 53.7512 225.561 52.9862C226.324 52.2176 227.06 51.2183 227.782 50.0575L226.084 49.0008C225.403 50.0948 224.758 50.9561 224.142 51.5771C223.522 52.2018 222.981 52.5315 222.515 52.6551L223.028 54.5883ZM227.782 50.0571C230.863 45.1012 233.864 36.6332 236.767 26.1973L234.841 25.6613C231.938 36.0975 228.998 44.3137 226.084 49.0012L227.782 50.0571ZM249.031 22.1855C248.9 22.7623 248.767 23.3412 248.634 23.9215L250.583 24.369C250.716 23.7891 250.85 23.2078 250.981 22.6283L249.031 22.1855ZM248.634 23.9213L248.566 24.2153L250.516 24.6633L250.583 24.3693L248.634 23.9213ZM249.489 25.438C264.804 26.2287 277.317 27.1272 284.539 28.0653L284.797 26.082C277.489 25.1327 264.906 24.2313 249.592 23.4406L249.489 25.438ZM285.568 26.6373C285.142 25.7598 284.22 25.1725 283.23 24.7227C282.195 24.2532 280.85 23.8329 279.286 23.412L278.766 25.3434C280.311 25.7589 281.525 26.1452 282.403 26.5438C283.324 26.9622 283.669 27.3047 283.768 27.5099L285.568 26.6373ZM279.286 23.412C273.139 21.7595 263.049 20.5314 250.473 19.6393L250.331 21.6343C262.905 22.5262 272.823 23.7457 278.766 25.3434L279.286 23.412ZM249.426 20.4186L249.03 22.1887L250.982 22.6251L251.378 20.8549L249.426 20.4186ZM238.253 20.3687C238.174 20.6687 238.096 20.9687 238.018 21.2687C237.94 21.5687 237.862 21.8687 237.784 22.1686L239.719 22.673C239.797 22.373 239.875 22.073 239.954 21.773C240.032 21.473 240.11 21.173 240.188 20.873L238.253 20.3687ZM237.785 22.1637L237.391 23.6438L239.324 24.158L239.718 22.6779L237.785 22.1637ZM238.313 24.8999C241.477 25.0409 244.559 25.1878 247.547 25.3387L247.648 23.3412C244.656 23.1901 241.57 23.043 238.402 22.9019L238.313 24.8999ZM248.571 24.5666L248.782 23.6627L246.834 23.2093L246.623 24.1133L248.571 24.5666ZM248.782 23.6589C248.848 23.3711 248.914 23.0839 248.979 22.7974C249.044 22.5108 249.109 22.2248 249.174 21.9384L247.225 21.4927C247.159 21.7805 247.094 22.0676 247.028 22.3541C246.963 22.6408 246.898 22.9268 246.833 23.2132L248.782 23.6589ZM249.175 21.9332L249.446 20.7213L247.494 20.286L247.223 21.4979L249.175 21.9332ZM248.537 19.5059C245.626 19.3108 242.588 19.1317 239.437 18.9725L239.336 20.97C242.477 21.1286 245.503 21.3071 248.403 21.5014L248.537 19.5059ZM238.417 19.7237L238.251 20.3733L240.189 20.8684L240.355 20.2188L238.417 19.7237Z" fill="black" mask="url(#path-1-inside-1_54_10)"/>
<path d="M42.0074 172.644L58.4613 162.45C59.4606 161.83 60.7513 162.549 60.7513 163.725V184.113C60.7513 185.289 59.4606 186.007 58.4613 185.388L42.0074 175.194C41.0608 174.608 41.0608 173.23 42.0074 172.644Z" fill="#FCF9F9" stroke="black"/>
<path d="M62.0074 172.644L78.4613 162.45C79.4606 161.83 80.7513 162.549 80.7513 163.725V184.113C80.7513 185.289 79.4606 186.007 78.4613 185.388L62.0074 175.194C61.0608 174.608 61.0608 173.23 62.0074 172.644Z" fill="#FCF9F9" stroke="black"/>
<path d="M248.661 175.194L232.207 185.388C231.207 186.007 229.917 185.289 229.917 184.113V163.725C229.917 162.549 231.207 161.83 232.207 162.45L248.661 172.644C249.607 173.23 249.607 174.608 248.661 175.194Z" fill="#FCF9F9" stroke="black"/>
<path d="M268.661 175.194L252.207 185.388C251.207 186.007 249.917 185.289 249.917 184.113V163.725C249.917 162.549 251.207 161.83 252.207 162.45L268.661 172.644C269.607 173.23 269.607 174.608 268.661 175.194Z" fill="#FCF9F9" stroke="black"/>
<rect x="116.5" y="162.5" width="23" height="23" rx="2.5" fill="#FCF9F9" stroke="black"/>
<path d="M192.661 175.194L176.207 185.388C175.207 186.007 173.917 185.289 173.917 184.113V163.725C173.917 162.549 175.207 161.83 176.207 162.45L192.661 172.644C193.607 173.23 193.607 174.608 192.661 175.194Z" fill="#FCF9F9" stroke="black"/>
</g>
<defs>
<clipPath id="clip0_54_10">
<rect width="311" height="205" fill="white"/>
</clipPath>
</defs>
</svg>
